<?xml version="1.0" standalone="no"?>
<!DOCTYPE svg PUBLIC "-//W3C//DTD SVG 1.1//EN" "http://www.w3.org/Graphics/SVG/1.1/DTD/svg11.dtd" >
<svg>
<metadata>
Created by FontForge 20110222 at Mon Sep  8 19:23:37 2014
 By deploy user
(c) 1992, 1994, 1997, 2000, 2004, 2010 Adobe Systems Incorporated. All rights reserved.
</metadata>
<defs>
<font id="MyriadArabic-Regular" horiz-adv-x="0" >
  <font-face 
    font-family="Myriad Arabic"
    font-weight="400"
    font-stretch="normal"
    units-per-em="1400"
    panose-1="1 1 1 1 1 1 1 1 1 1"
    ascent="950"
    descent="-450"
    x-height="484"
    cap-height="674"
    bbox="-171 -635 2471 1297"
    underline-thickness="24"
    underline-position="-25"
    unicode-range="U+0020-FD3F"
  />
<missing-glyph horiz-adv-x="500" 
d="M0 0v700h500v-700h-500zM250 395l170 255h-340zM280 350l170 -255v510zM80 50h340l-170 255zM50 95l170 255l-170 255v-510z" />
    <glyph glyph-name="uni0622.f" unicode="&#x622;" horiz-adv-x="266" arabic-form="final" 
d="M78 207l-20 514l75 5l19 -494q3 -76 31 -107t83 -34q23 0 38 -11.5t15 -33.5q0 -46 -53 -46q-91 0 -137.5 48t-50.5 159zM138 814q-24 0 -61 12t-53 12q-30 0 -37 -47l-47 17q1 40 21.5 65t59.5 25q25 0 65.5 -13t60.5 -13q33 0 70 34l9 -48q-25 -44 -88 -44z" />
    <glyph glyph-name="uni0623.f" unicode="&#x623;" horiz-adv-x="266" arabic-form="final" 
d="M78 207l-20 514l75 5l19 -494q3 -76 31 -107t83 -34q23 0 38 -11.5t15 -33.5q0 -46 -53 -46q-91 0 -137.5 48t-50.5 159zM115 809q-93 0 -134 -17l6 47q22 12 46 12q-36 26 -36 62q0 40 29.5 62.5t72.5 22.5q58 0 86 -26l-16 -46q-29 22 -72 22q-23 0 -37 -11t-14 -25
q0 -24 24.5 -38t63.5 -14h66l-20 -51h-65z" />
    <glyph glyph-name="uni0624.f" unicode="&#x624;" horiz-adv-x="532" arabic-form="final" 
d="M346 485h-65q-93 0 -133 -17l6 47q19 12 45 12q-35 25 -35 62q0 40 29.5 62.5t72.5 22.5q57 0 85 -26l-15 -46q-29 22 -72 22q-24 0 -37.5 -11t-13.5 -25q0 -24 24.5 -38t63.5 -14h66zM456 90h76q53 0 53 -44q0 -46 -53 -46h-83q-23 -119 -102 -197.5t-182 -78.5
q-98 0 -151 49l15 63q55 -29 128 -29q82 0 141.5 54.5t80.5 138.5h-20q-229 0 -229 179q0 68 46 118.5t111 50.5q27 0 53.5 -12t53 -39t44 -80.5t18.5 -126.5zM374 90h15q-3 87 -35 134.5t-80 47.5q-35 0 -57.5 -25.5t-22.5 -57.5q0 -44 37.5 -71.5t142.5 -27.5z" />
    <glyph glyph-name="uni0625.f" unicode="&#x625;" horiz-adv-x="266" arabic-form="final" 
d="M78 207l-20 514l75 5l19 -494q3 -76 31 -107t83 -34q23 0 38 -11.5t15 -33.5q0 -46 -53 -46q-91 0 -137.5 48t-50.5 159zM173 -71q56 0 86 -26l-16 -46q-29 22 -72 22q-24 0 -37.5 -11t-13.5 -25q0 -24 24.5 -38t63.5 -14h66l-21 -51h-65q-93 0 -133 -17l6 47
q22 12 46 12q-36 24 -36 62q0 40 29.5 62.5t72.5 22.5z" />
    <glyph glyph-name="uni0626.i" unicode="&#x626;" horiz-adv-x="286" arabic-form="initial" 
d="M0 0q-50 0 -50 47q0 17 12 30.5t38 13.5h20q106 0 141 23q1 6 1 19q-4 105 -77 232l73 29q27 -49 49 -125.5t22 -142.5q0 -47 -11 -77q-17 -15 -35.5 -24t-61.5 -17t-106 -8h-15zM99 519q-94 0 -134 -17l6 47q22 12 46 12q-36 26 -36 62q0 40 29.5 62.5t72.5 22.5
q58 0 86 -26l-16 -46q-29 22 -72 22q-23 0 -37 -11t-14 -25q0 -24 24.5 -38t63.5 -14h66l-20 -51h-65z" />
    <glyph glyph-name="uni0626.m" unicode="&#x626;" horiz-adv-x="314" arabic-form="medial" 
d="M-3 0q-51 0 -51 46q0 17 13 30.5t39 13.5q76 0 104.5 38.5t37.5 114.5l59 5q-2 -16 -2 -34q0 -123 117 -124q53 0 53 -44q0 -46 -53 -46q-124 0 -154 100q-37 -100 -163 -100zM180 413q-93 0 -134 -17l7 47q19 12 45 12q-36 26 -36 62q0 39 30 62t73 23q57 0 85 -26
l-15 -46q-29 22 -72 22q-24 0 -37.5 -11t-13.5 -25q0 -24 24.5 -38t63.5 -14h66l-21 -51h-65z" />
    <glyph glyph-name="uni0626.f" unicode="&#x626;" horiz-adv-x="660" arabic-form="final" 
d="M50 -3q0 91 41 173l56 -8q-26 -75 -26 -148q0 -99 63 -147t161 -48q81 0 147 24.5t102 62.5q24 24 24 41q0 23 -33.5 38t-84.5 15h-6l26 90h140q53 0 53 -44q0 -46 -53 -46h-4q23 -22 23 -56q0 -41 -28 -77q-44 -60 -131 -98t-188 -38q-142 0 -212 72t-70 194zM360 406
q-94 0 -134 -17l6 47q22 12 46 12q-36 26 -36 62q0 40 29.5 62.5t72.5 22.5q58 0 86 -26l-16 -46q-29 22 -72 22q-23 0 -37 -11t-14 -25q0 -24 24.5 -38t63.5 -14h66l-20 -51h-65z" />
    <glyph glyph-name="uni0627.f" unicode="&#x627;" horiz-adv-x="266" arabic-form="final" 
d="M78 207l-20 514l75 5l19 -494q3 -76 31 -107t83 -34q23 0 38 -11.5t15 -33.5q0 -46 -53 -46q-91 0 -137.5 48t-50.5 159z" />
    <glyph glyph-name="uni0628.i" unicode="&#x628;" horiz-adv-x="286" arabic-form="initial" 
d="M0 0q-50 0 -50 47q0 17 12 30.5t38 13.5h20q106 0 141 23q1 6 1 19q-4 105 -77 232l73 29q27 -49 49 -125.5t22 -142.5q0 -47 -11 -77q-17 -15 -35.5 -24t-61.5 -17t-106 -8h-15zM127 -144q23 0 37.5 -15t14.5 -39q0 -25 -14.5 -40t-37.5 -15t-37.5 15t-14.5 40
q0 24 14.5 39t37.5 15z" />
    <glyph glyph-name="uni0628.m" unicode="&#x628;" horiz-adv-x="314" arabic-form="medial" 
d="M-3 0q-51 0 -51 46q0 17 13 30.5t39 13.5q76 0 104.5 38.5t37.5 114.5l59 5q-2 -16 -2 -34q0 -123 117 -124q53 0 53 -44q0 -46 -53 -46q-124 0 -154 100q-37 -100 -163 -100zM160 -144q23 0 37.5 -15t14.5 -39q0 -25 -14.5 -40t-37.5 -15t-37.5 15t-14.5 40
q0 24 14.5 39t37.5 15z" />
    <glyph glyph-name="uni0628.f" unicode="&#x628;" horiz-adv-x="916" arabic-form="final" 
d="M49 245q0 66 21 124l55 -10q-11 -47 -11 -85q0 -204 283 -204q116 0 204.5 24t133.5 53q-3 24 -3 42q0 29 11 67l59 6q-5 -28 -5 -54q0 -111 119 -117v-1q23 0 38.5 -11t15.5 -33q0 -46 -54 -46q-110 0 -156 75q-146 -97 -371 -97q-162 0 -250.5 66t-89.5 201zM457 -144
q23 0 37.5 -15t14.5 -39q0 -25 -14.5 -40t-37.5 -15t-37.5 15t-14.5 40q0 24 14.5 39t37.5 15z" />
    <glyph glyph-name="uni0629.f" unicode="&#x629;" horiz-adv-x="480" arabic-form="final" 
d="M247 620q-22 0 -36.5 14t-14.5 38t14.5 38.5t36.5 14.5q23 0 37 -14.5t14 -38.5t-14 -38t-37 -14zM381 620q-22 0 -35.5 14t-13.5 38t13.5 38.5t35.5 14.5q23 0 37 -14.5t14 -38.5t-14 -38t-37 -14zM358 528l12 -309q3 -74 32 -101t78 -27q23 0 38.5 -11.5t15.5 -33.5
q0 -46 -54 -46q-119 0 -157 91q-49 -31 -124 -31q-68 0 -110 34.5t-42 91.5q0 90 98 168q38 31 148 87l-3 80zM304 190l-8 177q-181 -76 -181 -158q0 -30 25.5 -45t69.5 -15q52 0 95 19q0 3 -0.5 10.5t-0.5 11.5z" />
    <glyph glyph-name="uni062A.i" unicode="&#x62a;" horiz-adv-x="286" arabic-form="initial" 
d="M0 0q-50 0 -50 47q0 17 12 30.5t38 13.5h20q106 0 141 23q1 6 1 19q-4 105 -77 232l73 29q27 -49 49 -125.5t22 -142.5q0 -47 -11 -77q-17 -15 -35.5 -24t-61.5 -17t-106 -8h-15zM143 510q-22 0 -35.5 14.5t-13.5 38.5t13.5 38.5t35.5 14.5q23 0 37 -14.5t14 -38.5
q0 -25 -14 -39t-37 -14zM9 510q-22 0 -36.5 14.5t-14.5 38.5t14.5 38.5t36.5 14.5q23 0 37 -14.5t14 -38.5t-14 -38.5t-37 -14.5z" />
    <glyph glyph-name="uni062A.m" unicode="&#x62a;" horiz-adv-x="314" arabic-form="medial" 
d="M-3 0q-51 0 -51 46q0 17 13 30.5t39 13.5q76 0 104.5 38.5t37.5 114.5l59 5q-2 -16 -2 -34q0 -123 117 -124q53 0 53 -44q0 -46 -53 -46q-124 0 -154 100q-37 -100 -163 -100zM225 404q-23 0 -36 14t-13 39q0 24 13.5 38.5t35.5 14.5q23 0 37 -14.5t14 -38.5t-14 -38.5
t-37 -14.5zM91 404q-22 0 -36.5 14.5t-14.5 38.5t14.5 38.5t36.5 14.5q23 0 37 -14.5t14 -38.5t-14 -38.5t-37 -14.5z" />
    <glyph glyph-name="uni062A.f" unicode="&#x62a;" horiz-adv-x="916" arabic-form="final" 
d="M49 245q0 66 21 124l55 -10q-11 -47 -11 -85q0 -204 283 -204q116 0 204.5 24t133.5 53q-3 24 -3 42q0 29 11 67l59 6q-5 -28 -5 -54q0 -111 119 -117v-1q23 0 38.5 -11t15.5 -33q0 -46 -54 -46q-110 0 -156 75q-146 -97 -371 -97q-162 0 -250.5 66t-89.5 201zM497 422
q-22 0 -35.5 14.5t-13.5 38.5t13.5 38.5t35.5 14.5q23 0 37 -14.5t14 -38.5q0 -25 -14 -39t-37 -14zM363 422q-22 0 -36.5 14.5t-14.5 38.5t14.5 38.5t36.5 14.5q23 0 37 -14.5t14 -38.5t-14 -38.5t-37 -14.5z" />
    <glyph glyph-name="uni062B.i" unicode="&#x62b;" horiz-adv-x="286" arabic-form="initial" 
d="M0 0q-50 0 -50 47q0 17 12 30.5t38 13.5h20q106 0 141 23q1 6 1 19q-4 105 -77 232l73 29q27 -49 49 -125.5t22 -142.5q0 -47 -11 -77q-17 -15 -35.5 -24t-61.5 -17t-106 -8h-15zM143 510q-23 0 -36.5 14.5t-13.5 39.5q0 22 14 37t36 15t35.5 -15t13.5 -37
q0 -25 -13.5 -39.5t-35.5 -14.5zM10 510q-22 0 -36 14.5t-14 39.5q0 22 14.5 37t35.5 15q22 0 36.5 -15t14.5 -37q0 -25 -14 -39.5t-37 -14.5zM77 631q-22 0 -35 14t-13 39q0 23 13 38t35 15q23 0 37 -15t14 -38q0 -25 -14 -39t-37 -14z" />
    <glyph glyph-name="uni062B.m" unicode="&#x62b;" horiz-adv-x="314" arabic-form="medial" 
d="M-3 0q-51 0 -51 46q0 17 13 30.5t39 13.5q76 0 104.5 38.5t37.5 114.5l59 5q-2 -16 -2 -34q0 -123 117 -124q53 0 53 -44q0 -46 -53 -46q-124 0 -154 100q-37 -100 -163 -100zM224 404q-22 0 -36 14.5t-14 39.5q0 22 14 37t36 15t35.5 -15t13.5 -37q0 -25 -13.5 -39.5
t-35.5 -14.5zM92 404q-23 0 -36.5 14.5t-13.5 39.5q0 22 14.5 37t35.5 15q22 0 36 -15t14 -37q0 -24 -14 -39t-36 -15zM159 525q-22 0 -35.5 14t-13.5 39q0 23 13.5 38t35.5 15q23 0 36.5 -14.5t13.5 -38.5q0 -25 -13.5 -39t-36.5 -14z" />
    <glyph glyph-name="uni062B.f" unicode="&#x62b;" horiz-adv-x="916" arabic-form="final" 
d="M49 245q0 66 21 124l55 -10q-11 -47 -11 -85q0 -204 283 -204q116 0 204.5 24t133.5 53q-3 24 -3 42q0 29 11 67l59 6q-5 -28 -5 -54q0 -111 119 -117v-1q23 0 38.5 -11t15.5 -33q0 -46 -54 -46q-110 0 -156 75q-146 -97 -371 -97q-162 0 -250.5 66t-89.5 201zM497 422
q-23 0 -36.5 14.5t-13.5 39.5q0 22 14 37t36 15t35.5 -15t13.5 -37q0 -25 -13.5 -39.5t-35.5 -14.5zM364 422q-22 0 -36 14.5t-14 39.5q0 22 14.5 37t35.5 15q22 0 36.5 -15t14.5 -37q0 -25 -14 -39.5t-37 -14.5zM431 543q-22 0 -35 14t-13 39q0 23 13 38t35 15q23 0 37 -15
t14 -38q0 -25 -14 -39t-37 -14z" />
    <glyph glyph-name="uni062C.i" unicode="&#x62c;" horiz-adv-x="653" arabic-form="initial" 
d="M1 0q-24 0 -37.5 12.5t-13.5 32.5q0 19 12.5 32.5t38.5 13.5h12q195 0 339 66q91 41 105 45q-20 7 -78 32.5t-105 40.5t-86 15q-81 0 -134 -23l14 82q45 22 121 22q14 0 28 -1.5t25.5 -3t27.5 -5.5t25 -6t26.5 -8.5t24 -9t26 -11t24 -10.5t26 -11.5t24.5 -10.5
q89 -39 140 -39h37l-14 -83h-16q-64 0 -174 -64q-107 -62 -197.5 -85t-209.5 -23h-11zM319 -105q23 0 37 -15t14 -39q0 -25 -14 -40t-38 -15q-23 0 -37 15t-14 40q0 24 14.5 39t37.5 15z" />
    <glyph glyph-name="uni062C.m" unicode="&#x62c;" horiz-adv-x="682" arabic-form="medial" 
d="M603 181h-27q-8 0 -26 -2q5 -51 39.5 -69.5t92.5 -18.5q23 0 38 -11.5t15 -33.5q0 -46 -53 -46q-90 1 -137.5 39t-52.5 121q-40 -16 -82 -42q-104 -67 -189.5 -92.5t-208.5 -25.5h-11q-24 0 -37.5 12.5t-13.5 32.5q0 19 12.5 32.5t38.5 13.5h12q188 0 309 60
q25 12 53.5 26.5t44 21.5t29.5 11q-23 7 -77 29.5t-101.5 36.5t-91.5 14q-85 0 -132 -27l15 83q44 25 121 25q99 0 250 -70q83 -37 155 -37h29zM319 -105q23 0 37 -15t14 -39q0 -25 -14 -40t-38 -15q-23 0 -37 15t-14 40q0 24 14.5 39t37.5 15z" />
    <glyph glyph-name="uni062C.f" unicode="&#x62c;" horiz-adv-x="672" arabic-form="final" 
d="M614 291l-21 -87q-16 2 -62 2q10 -117 141 -115q24 0 39 -11.5t15 -33.5q0 -46 -54 -46q-99 -1 -151 48.5t-52 154.5q-31 -5 -63 -12q-115 -28 -192 -94t-77 -163q0 -115 96 -175.5t249 -60.5q72 0 131 14l-33 -78q-49 -17 -131 -17q-174 0 -286 81.5t-112 227.5
q0 71 35.5 130.5t91.5 97.5t114.5 61.5t115.5 33.5q-7 2 -52.5 18t-87 26t-77.5 10q-83 0 -135 -25l17 85q51 22 122 22q33 0 73 -8t65 -16.5t71.5 -25t60.5 -21.5q57 -23 98 -23h51zM320 -52q0 24 14.5 39t37.5 15t37.5 -15t14.5 -39q0 -25 -14.5 -40t-38.5 -15
q-23 0 -37 15t-14 40z" />
    <glyph glyph-name="uni062D.i" unicode="&#x62d;" horiz-adv-x="653" arabic-form="initial" 
d="M1 0q-24 0 -37.5 12.5t-13.5 32.5q0 19 12.5 32.5t38.5 13.5h12q195 0 339 66q91 41 105 45q-20 7 -78 32.5t-105 40.5t-86 15q-81 0 -134 -23l14 82q45 22 121 22q14 0 28 -1.5t25.5 -3t27.5 -5.5t25 -6t26.5 -8.5t24 -9t26 -11t24 -10.5t26 -11.5t24.5 -10.5
q89 -39 140 -39h37l-14 -83h-16q-64 0 -174 -64q-107 -62 -197.5 -85t-209.5 -23h-11z" />
    <glyph glyph-name="uni062D.m" unicode="&#x62d;" horiz-adv-x="682" arabic-form="medial" 
d="M603 181h-27q-8 0 -26 -2q5 -51 39.5 -69.5t92.5 -18.5q23 0 38 -11.5t15 -33.5q0 -46 -53 -46q-90 1 -137.5 39t-52.5 121q-40 -16 -82 -42q-104 -67 -189.5 -92.5t-208.5 -25.5h-11q-24 0 -37.5 12.5t-13.5 32.5q0 19 12.5 32.5t38.5 13.5h12q188 0 309 60
q25 12 53.5 26.5t44 21.5t29.5 11q-23 7 -77 29.5t-101.5 36.5t-91.5 14q-85 0 -132 -27l15 83q44 25 121 25q99 0 250 -70q83 -37 155 -37h29z" />
    <glyph glyph-name="uni062D.f" unicode="&#x62d;" horiz-adv-x="672" arabic-form="final" 
d="M614 291l-21 -87q-16 2 -62 2q10 -117 141 -115q24 0 39 -11.5t15 -33.5q0 -46 -54 -46q-99 -1 -151 48.5t-52 154.5q-31 -5 -63 -12q-115 -28 -192 -94t-77 -163q0 -115 96 -175.5t249 -60.5q72 0 131 14l-33 -78q-49 -17 -131 -17q-174 0 -286 81.5t-112 227.5
q0 71 35.5 130.5t91.5 97.5t114.5 61.5t115.5 33.5q-7 2 -52.5 18t-87 26t-77.5 10q-83 0 -135 -25l17 85q51 22 122 22q33 0 73 -8t65 -16.5t71.5 -25t60.5 -21.5q57 -23 98 -23h51z" />
    <glyph glyph-name="uni062E.i" unicode="&#x62e;" horiz-adv-x="653" arabic-form="initial" 
d="M1 0q-24 0 -37.5 12.5t-13.5 32.5q0 19 12.5 32.5t38.5 13.5h12q195 0 339 66q91 41 105 45q-20 7 -78 32.5t-105 40.5t-86 15q-81 0 -134 -23l14 82q45 22 121 22q14 0 28 -1.5t25.5 -3t27.5 -5.5t25 -6t26.5 -8.5t24 -9t26 -11t24 -10.5t26 -11.5t24.5 -10.5
q89 -39 140 -39h37l-14 -83h-16q-64 0 -174 -64q-107 -62 -197.5 -85t-209.5 -23h-11zM347 494q-23 0 -37 15t-14 40q0 23 14.5 38.5t37.5 15.5t37.5 -15.5t14.5 -38.5q0 -25 -14.5 -40t-38.5 -15z" />
    <glyph glyph-name="uni062E.m" unicode="&#x62e;" horiz-adv-x="682" arabic-form="medial" 
d="M347 494q-23 0 -37 15t-14 40q0 23 14.5 38.5t37.5 15.5t37.5 -15.5t14.5 -38.5q0 -25 -14.5 -40t-38.5 -15zM603 181h-27q-8 0 -26 -2q5 -51 39.5 -69.5t92.5 -18.5q23 0 38 -11.5t15 -33.5q0 -46 -53 -46q-90 1 -137.5 39t-52.5 121q-40 -16 -82 -42
q-104 -67 -189.5 -92.5t-208.5 -25.5h-11q-24 0 -37.5 12.5t-13.5 32.5q0 19 12.5 32.5t38.5 13.5h12q188 0 309 60q25 12 53.5 26.5t44 21.5t29.5 11q-23 7 -77 29.5t-101.5 36.5t-91.5 14q-85 0 -132 -27l15 83q44 25 121 25q99 0 250 -70q83 -37 155 -37h29z" />
    <glyph glyph-name="uni062E.f" unicode="&#x62e;" horiz-adv-x="672" arabic-form="final" 
d="M354 508q-23 0 -37 15t-14 40q0 23 14.5 38.5t37.5 15.5t37.5 -15.5t14.5 -38.5q0 -25 -14.5 -40t-38.5 -15zM614 291l-21 -87q-16 2 -62 2q10 -117 141 -115q24 0 39 -11.5t15 -33.5q0 -46 -54 -46q-99 -1 -151 48.5t-52 154.5q-31 -5 -63 -12q-115 -28 -192 -94
t-77 -163q0 -115 96 -175.5t249 -60.5q72 0 131 14l-33 -78q-49 -17 -131 -17q-174 0 -286 81.5t-112 227.5q0 71 35.5 130.5t91.5 97.5t114.5 61.5t115.5 33.5q-7 2 -52.5 18t-87 26t-77.5 10q-83 0 -135 -25l17 85q51 22 122 22q33 0 73 -8t65 -16.5t71.5 -25t60.5 -21.5
q57 -23 98 -23h51z" />
    <glyph glyph-name="uni062F.f" unicode="&#x62f;" horiz-adv-x="577" arabic-form="final" 
d="M50 156l57 11q11 -39 36 -56.5t80 -17.5q93 0 140 42q26 25 24 42q-31 134 -82 303l73 25q79 -308 81 -314q16 -59 43 -79.5t75 -20.5q23 0 38 -11.5t15 -33.5q0 -46 -53 -46q-70 0 -105 24t-60 78q-12 -43 -67.5 -72.5t-127.5 -29.5q-83 0 -123 37t-44 119z" />
    <glyph glyph-name="uni0630.f" unicode="&#x630;" horiz-adv-x="577" arabic-form="final" 
d="M50 156l57 11q11 -39 36 -56.5t80 -17.5q93 0 140 42q26 25 24 42q-31 134 -82 303l73 25q79 -308 81 -314q16 -59 43 -79.5t75 -20.5q23 0 38 -11.5t15 -33.5q0 -46 -53 -46q-70 0 -105 24t-60 78q-12 -43 -67.5 -72.5t-127.5 -29.5q-83 0 -123 37t-44 119zM334 606
q-23 0 -37.5 15t-14.5 40q0 23 15 38.5t37 15.5q23 0 37.5 -15.5t14.5 -38.5q0 -25 -14.5 -40t-37.5 -15z" />
    <glyph glyph-name="uni0631.f" unicode="&#x631;" horiz-adv-x="471" arabic-form="final" 
d="M241 246l73 37q32 -63 55 -124q33 -68 102 -68q23 0 38 -11.5t15 -33.5q0 -46 -53 -46q-46 0 -71 17q-2 -37 -4 -46q-12 -69 -52 -121t-88 -75.5t-97 -23.5q-94 0 -145 54l9 65q56 -34 135 -34q66 0 120 52.5t58 134.5q-6 60 -95 223z" />
    <glyph glyph-name="uni0632.f" unicode="&#x632;" horiz-adv-x="471" arabic-form="final" 
d="M244 395q-23 0 -37 15t-14 40q0 23 14.5 38.5t37.5 15.5t37.5 -15.5t14.5 -38.5q0 -25 -14.5 -40t-38.5 -15zM241 246l73 37q32 -63 55 -124q33 -68 102 -68q23 0 38 -11.5t15 -33.5q0 -46 -53 -46q-46 0 -71 17q-2 -37 -4 -46q-12 -69 -52 -121t-88 -75.5t-97 -23.5
q-94 0 -145 54l9 65q56 -34 135 -34q66 0 120 52.5t58 134.5q-6 60 -95 223z" />
    <glyph glyph-name="uni0633.i" unicode="&#x633;" horiz-adv-x="672" arabic-form="initial" 
d="M0 0q-51 0 -51 45q0 20 12.5 33t38.5 13q68 0 101 35t46 104l64 3q-13 -42 -14 -69q-4 -77 55 -77q42 0 66 28.5t37 102.5l63 3q-8 -37 -8 -55q-2 -78 68 -78q33 0 55 21.5t22 55.5q0 55 -34 123l73 21q24 -46 24 -130q0 -83 -42.5 -131t-106.5 -48q-79 0 -107 70
q-38 -70 -119 -70q-77 0 -96 73q-20 -33 -59 -53t-88 -20z" />
    <glyph glyph-name="uni0633.m" unicode="&#x633;" horiz-adv-x="731" arabic-form="medial" 
d="M1 0q-51 0 -51 45q0 20 12.5 33t38.5 13q68 0 100 34.5t47 104.5l64 3q-12 -38 -14 -65q-4 -32 8 -56.5t46 -24.5q40 0 65.5 27.5t38.5 102.5l62 3q-7 -35 -8 -58q-3 -74 52 -74q76 0 98 169l60 5q-5 -37 -5 -45q-3 -60 22 -92.5t94 -33.5q23 0 38 -11.5t15 -33.5
q0 -46 -53 -46q-120 -1 -154 90q-18 -43 -50 -66.5t-70 -23.5q-72 0 -94 71q-39 -71 -120 -71q-76 0 -96 74q-19 -32 -58.5 -53t-87.5 -21z" />
    <glyph glyph-name="uni0633.f" unicode="&#x633;" horiz-adv-x="1083" arabic-form="final" 
d="M51 22q0 97 41 179l53 -10q-24 -82 -24 -142q0 -83 49.5 -129.5t124.5 -46.5q70 0 119.5 33.5t70.5 92.5q6 20 6 36q-8 85 -64 213l72 27q21 -46 48 -146q12 -42 59 -42q41 0 64 27t37 103l62 3q-7 -42 -7 -58q0 -41 12.5 -57.5t39.5 -16.5q25 0 43 16t29 46.5t16 52
t10 54.5l60 5q-6 -42 -6 -55q-1 -57 26 -86t91 -30q23 0 38 -11.5t15 -33.5q0 -46 -53 -46q-119 -1 -153 90q-19 -42 -52.5 -66t-69.5 -24q-31 0 -51.5 12.5t-28 25.5t-13.5 33q-38 -71 -115 -71q-27 0 -48 17q-3 -35 -7 -49q-28 -86 -99.5 -135t-164.5 -49
q-104 0 -167 67.5t-63 170.5z" />
    <glyph glyph-name="uni0634.i" unicode="&#x634;" horiz-adv-x="672" arabic-form="initial" 
d="M0 0q-51 0 -51 45q0 20 12.5 33t38.5 13q68 0 101 35t46 104l64 3q-13 -42 -14 -69q-4 -77 55 -77q42 0 66 28.5t37 102.5l63 3q-8 -37 -8 -55q-2 -78 68 -78q33 0 55 21.5t22 55.5q0 55 -34 123l73 21q24 -46 24 -130q0 -83 -42.5 -131t-106.5 -48q-79 0 -107 70
q-38 -70 -119 -70q-77 0 -96 73q-20 -33 -59 -53t-88 -20zM427 388q-22 0 -36 14.5t-14 39.5q0 22 14 37t36 15t35.5 -15t13.5 -37q0 -25 -13.5 -39.5t-35.5 -14.5zM295 388q-23 0 -36.5 14.5t-13.5 39.5q0 22 14.5 37t35.5 15q22 0 36 -15t14 -37q0 -24 -14 -39t-36 -15z
M362 509q-22 0 -35.5 14t-13.5 39q0 23 13.5 38t35.5 15q23 0 36.5 -14.5t13.5 -38.5q0 -25 -13.5 -39t-36.5 -14z" />
    <glyph glyph-name="uni0634.m" unicode="&#x634;" horiz-adv-x="731" arabic-form="medial" 
d="M1 0q-51 0 -51 45q0 20 12.5 33t38.5 13q68 0 100 34.5t47 104.5l64 3q-12 -38 -14 -65q-4 -32 8 -56.5t46 -24.5q40 0 65.5 27.5t38.5 102.5l62 3q-7 -35 -8 -58q-3 -74 52 -74q76 0 98 169l60 5q-5 -37 -5 -45q-3 -60 22 -92.5t94 -33.5q23 0 38 -11.5t15 -33.5
q0 -46 -53 -46q-120 -1 -154 90q-18 -43 -50 -66.5t-70 -23.5q-72 0 -94 71q-39 -71 -120 -71q-76 0 -96 74q-19 -32 -58.5 -53t-87.5 -21zM426 388q-23 0 -36.5 14.5t-13.5 39.5q0 22 14 37t36 15t35.5 -15t13.5 -37q0 -25 -13.5 -39.5t-35.5 -14.5zM293 388
q-22 0 -36 14.5t-14 39.5q0 22 14.5 37t35.5 15q22 0 36.5 -15t14.5 -37q0 -25 -14 -39.5t-37 -14.5zM360 509q-22 0 -35 14t-13 39q0 23 13 38t35 15q23 0 37 -15t14 -38q0 -25 -14 -39t-37 -14z" />
    <glyph glyph-name="uni0634.f" unicode="&#x634;" horiz-adv-x="1083" arabic-form="final" 
d="M51 22q0 97 41 179l53 -10q-24 -82 -24 -142q0 -83 49.5 -129.5t124.5 -46.5q70 0 119.5 33.5t70.5 92.5q6 20 6 36q-8 85 -64 213l72 27q21 -46 48 -146q12 -42 59 -42q41 0 64 27t37 103l62 3q-7 -42 -7 -58q0 -41 12.5 -57.5t39.5 -16.5q25 0 43 16t29 46.5t16 52
t10 54.5l60 5q-6 -42 -6 -55q-1 -57 26 -86t91 -30q23 0 38 -11.5t15 -33.5q0 -46 -53 -46q-119 -1 -153 90q-19 -42 -52.5 -66t-69.5 -24q-31 0 -51.5 12.5t-28 25.5t-13.5 33q-38 -71 -115 -71q-27 0 -48 17q-3 -35 -7 -49q-28 -86 -99.5 -135t-164.5 -49
q-104 0 -167 67.5t-63 170.5zM779 388q-23 0 -36.5 14.5t-13.5 39.5q0 22 14 37t36 15t35.5 -15t13.5 -37q0 -25 -13.5 -39.5t-35.5 -14.5zM646 388q-22 0 -36 14.5t-14 39.5q0 22 14.5 37t35.5 15q22 0 36.5 -15t14.5 -37q0 -25 -14 -39.5t-37 -14.5zM713 509q-22 0 -35 14
t-13 39q0 23 13 38t35 15q23 0 37 -15t14 -38q0 -25 -14 -39t-37 -14z" />
    <glyph glyph-name="uni0635.i" unicode="&#x635;" horiz-adv-x="871" arabic-form="initial" 
d="M-1 0q-26 0 -38.5 13.5t-12.5 31.5q0 19 13.5 32.5t37.5 13.5q33 0 57.5 11t38.5 26.5t24 43t14 49.5t8 58l63 4q-6 -29 -6 -58q-3 -85 63 -117q32 52 69.5 98t84.5 88.5t102 67.5t110 25q87 0 142.5 -58t55.5 -131q0 -56 -39 -98t-104 -68q-97 -39 -254 -39
q-93 0 -151.5 16.5t-80 36.5t-41.5 54q-19 -44 -60.5 -72t-95.5 -28zM322 92q44 -10 115 -10q137 0 204 21q121 35 121 92q0 42 -40.5 77t-108.5 35q-61 0 -140 -53t-151 -162z" />
    <glyph glyph-name="uni0635.m" unicode="&#x635;" horiz-adv-x="893" arabic-form="medial" 
d="M141 279l63 4q-6 -29 -6 -58q-3 -85 63 -117q32 52 69.5 98t84.5 88.5t102 67.5t110 25q87 0 142.5 -58t55.5 -131q0 -51 -34 -93q47 -14 102 -14q23 0 38 -11.5t15 -33.5q0 -46 -53 -46h-15q-103 0 -169 44l-27 -12q-97 -39 -254 -39q-93 0 -151.5 16.5t-80 36.5
t-41.5 54q-19 -44 -60.5 -72t-95.5 -28q-26 0 -38.5 13.5t-12.5 31.5q0 19 13.5 32.5t37.5 13.5q33 0 57.5 11t38.5 26.5t24 43t14 49.5t8 58zM641 103q121 35 121 92q0 42 -40.5 77t-108.5 35q-61 0 -140 -53t-151 -162q44 -10 115 -10q137 0 204 21z" />
    <glyph glyph-name="uni0635.f" unicode="&#x635;" horiz-adv-x="1225" arabic-form="final" 
d="M431 232l70 32q1 -2 3.5 -10.5t5.5 -15.5q20 -60 36.5 -86t47.5 -42q32 52 69.5 97.5t84 88t101.5 67t110 24.5q87 0 143 -58t56 -131q0 -51 -34 -93q48 -15 101 -15q54 0 54 -44q0 -46 -54 -46h-15q-99 0 -168 44q-18 -8 -28 -12q-97 -39 -247 -39q-154 0 -217 52
q0 -63 -8 -90q-25 -83 -95 -130t-167 -47q-107 0 -168 63.5t-61 167.5q0 83 37 154l54 -10q-23 -64 -23 -119q0 -81 49.5 -124.5t122.5 -43.5q66 0 118 30.5t72 89.5q7 16 7 31q0 86 -57 215zM973 103q120 36 120 93q0 41 -40 76t-105 35q-63 0 -142 -52.5t-152 -160.5
q45 -12 116 -12q130 0 203 21z" />
    <glyph glyph-name="uni0636.i" unicode="&#x636;" horiz-adv-x="871" arabic-form="initial" 
d="M-1 0q-26 0 -38.5 13.5t-12.5 31.5q0 19 13.5 32.5t37.5 13.5q33 0 57.5 11t38.5 26.5t24 43t14 49.5t8 58l63 4q-6 -29 -6 -58q-3 -85 63 -117q32 52 69.5 98t84.5 88.5t102 67.5t110 25q87 0 142.5 -58t55.5 -131q0 -56 -39 -98t-104 -68q-97 -39 -254 -39
q-93 0 -151.5 16.5t-80 36.5t-41.5 54q-19 -44 -60.5 -72t-95.5 -28zM322 92q44 -10 115 -10q137 0 204 21q121 35 121 92q0 42 -40.5 77t-108.5 35q-61 0 -140 -53t-151 -162zM485 513q-23 0 -37.5 15t-14.5 40q0 23 15 38.5t37 15.5q23 0 37.5 -15.5t14.5 -38.5
q0 -25 -14.5 -40t-37.5 -15z" />
    <glyph glyph-name="uni0636.m" unicode="&#x636;" horiz-adv-x="893" arabic-form="medial" 
d="M484 513q-23 0 -37 15t-14 40q0 23 14.5 38.5t37.5 15.5t37.5 -15.5t14.5 -38.5q0 -25 -14.5 -40t-38.5 -15zM141 279l63 4q-6 -29 -6 -58q-3 -85 63 -117q32 52 69.5 98t84.5 88.5t102 67.5t110 25q87 0 142.5 -58t55.5 -131q0 -51 -34 -93q47 -14 102 -14
q23 0 38 -11.5t15 -33.5q0 -46 -53 -46h-15q-103 0 -169 44l-27 -12q-97 -39 -254 -39q-93 0 -151.5 16.5t-80 36.5t-41.5 54q-19 -44 -60.5 -72t-95.5 -28q-26 0 -38.5 13.5t-12.5 31.5q0 19 13.5 32.5t37.5 13.5q33 0 57.5 11t38.5 26.5t24 43t14 49.5t8 58zM641 103
q121 35 121 92q0 42 -40.5 77t-108.5 35q-61 0 -140 -53t-151 -162q44 -10 115 -10q137 0 204 21z" />
    <glyph glyph-name="uni0636.f" unicode="&#x636;" horiz-adv-x="1225" arabic-form="final" 
d="M817 513q-23 0 -37.5 15t-14.5 40q0 23 15 38.5t37 15.5q23 0 37.5 -15.5t14.5 -38.5q0 -25 -14.5 -40t-37.5 -15zM431 232l70 32q1 -2 3.5 -10.5t5.5 -15.5q20 -60 36.5 -86t47.5 -42q32 52 69.5 97.5t84 88t101.5 67t110 24.5q87 0 143 -58t56 -131q0 -51 -34 -93
q48 -15 101 -15q54 0 54 -44q0 -46 -54 -46h-15q-99 0 -168 44q-18 -8 -28 -12q-97 -39 -247 -39q-154 0 -217 52q0 -63 -8 -90q-25 -83 -95 -130t-167 -47q-107 0 -168 63.5t-61 167.5q0 83 37 154l54 -10q-23 -64 -23 -119q0 -81 49.5 -124.5t122.5 -43.5q66 0 118 30.5
t72 89.5q7 16 7 31q0 86 -57 215zM973 103q120 36 120 93q0 41 -40 76t-105 35q-63 0 -142 -52.5t-152 -160.5q45 -12 116 -12q130 0 203 21z" />
    <glyph glyph-name="uni0637.i" unicode="&#x637;" horiz-adv-x="694" arabic-form="initial" 
d="M0 0q-27 0 -38.5 14t-11.5 33q0 17 11.5 30.5t38.5 13.5h66q20 34 27 49q11 27 8 98l-19 482l76 6l13 -361q4 -104 -1 -147q60 76 133 122.5t147 46.5q85 0 141.5 -57t56.5 -131q0 -106 -111 -154q-103 -45 -379 -45h-158zM147 91h31q241 0 316 24q44 14 66 32.5t22 50.5
q0 39 -38 74t-105 35q-66 0 -145 -55t-147 -161z" />
    <glyph glyph-name="uni0637.m" unicode="&#x637;" horiz-adv-x="715" arabic-form="medial" 
d="M158 726l13 -361q4 -104 -1 -147q60 76 133 122.5t147 46.5q85 0 141.5 -57t56.5 -131q0 -56 -30 -95q37 -14 97 -14q53 0 53 -44q0 -46 -53 -46h-16q-104 0 -165 44q-101 -44 -376 -44h-158q-27 0 -38.5 14t-11.5 33q0 17 11.5 30.5t38.5 13.5h66q20 34 27 49
q11 27 8 98l-19 482zM147 91h31q241 0 316 24q44 14 66 32.5t22 50.5q0 39 -38 74t-105 35q-66 0 -145 -55t-147 -161z" />
    <glyph glyph-name="uni0637.f" unicode="&#x637;" horiz-adv-x="788" arabic-form="final" 
d="M229 726l14 -361q5 -102 0 -147q60 76 132.5 122.5t146.5 46.5q86 0 142 -57t56 -131q0 -57 -31 -97q41 -12 99 -12q53 0 53 -44q0 -46 -53 -46h-15q-106 0 -170 42q-102 -42 -373 -42q-113 0 -184 13l-31 93q50 -15 124 -15q20 34 27 49q11 27 8 98l-19 482zM219 91h31
q242 0 317 24q44 14 66 32.5t22 50.5q0 39 -38.5 74t-104.5 35q-67 0 -146.5 -55t-146.5 -161z" />
    <glyph glyph-name="uni0638.i" unicode="&#x638;" horiz-adv-x="694" arabic-form="initial" 
d="M0 0q-27 0 -38.5 14t-11.5 33q0 17 11.5 30.5t38.5 13.5h66q20 34 27 49q11 27 8 98l-19 482l76 6l13 -361q4 -104 -1 -147q60 76 133 122.5t147 46.5q85 0 141.5 -57t56.5 -131q0 -106 -111 -154q-103 -45 -379 -45h-158zM147 91h31q241 0 316 24q44 14 66 32.5t22 50.5
q0 39 -38 74t-105 35q-66 0 -145 -55t-147 -161zM390 513q-23 0 -37.5 15t-14.5 40q0 23 15 38.5t37 15.5q23 0 37.5 -15.5t14.5 -38.5q0 -25 -14.5 -40t-37.5 -15z" />
    <glyph glyph-name="uni0638.m" unicode="&#x638;" horiz-adv-x="715" arabic-form="medial" 
d="M158 726l13 -361q4 -104 -1 -147q60 76 133 122.5t147 46.5q85 0 141.5 -57t56.5 -131q0 -56 -30 -95q37 -14 97 -14q53 0 53 -44q0 -46 -53 -46h-16q-104 0 -165 44q-101 -44 -376 -44h-158q-27 0 -38.5 14t-11.5 33q0 17 11.5 30.5t38.5 13.5h66q20 34 27 49
q11 27 8 98l-19 482zM390 513q-23 0 -37.5 15t-14.5 40q0 23 15 38.5t37 15.5q23 0 37.5 -15.5t14.5 -38.5q0 -25 -14.5 -40t-37.5 -15zM147 91h31q241 0 316 24q44 14 66 32.5t22 50.5q0 39 -38 74t-105 35q-66 0 -145 -55t-147 -161z" />
    <glyph glyph-name="uni0638.f" unicode="&#x638;" horiz-adv-x="788" arabic-form="final" 
d="M229 726l14 -361q5 -102 0 -147q60 76 132.5 122.5t146.5 46.5q86 0 142 -57t56 -131q0 -57 -31 -97q41 -12 99 -12q53 0 53 -44q0 -46 -53 -46h-15q-106 0 -170 42q-102 -42 -373 -42q-113 0 -184 13l-31 93q50 -15 124 -15q20 34 27 49q11 27 8 98l-19 482zM461 513
q-23 0 -37.5 15t-14.5 40q0 23 15 38.5t37 15.5q23 0 37.5 -15.5t14.5 -38.5q0 -25 -14.5 -40t-37.5 -15zM219 91h31q242 0 317 24q44 14 66 32.5t22 50.5q0 39 -38.5 74t-104.5 35q-67 0 -146.5 -55t-146.5 -161z" />
    <glyph glyph-name="uni0639.i" unicode="&#x639;" horiz-adv-x="497" arabic-form="initial" 
d="M-1 0q-25 0 -37.5 13.5t-12.5 33.5q0 17 12 30.5t39 13.5h12q48 0 143 7q-36 22 -64 59.5t-28 86.5q0 82 58.5 136t141.5 54q79 0 126 -35l9 -76q-48 31 -133 31q-60 0 -98.5 -31t-38.5 -75q0 -65 97 -117q32 -18 64 -18q34 0 85.5 10t90.5 28l-13 -87
q-56 -27 -186 -45.5t-252 -18.5h-15z" />
    <glyph glyph-name="uni0639.m" unicode="&#x639;" horiz-adv-x="608" arabic-form="medial" 
d="M604 91h4q23 0 38 -11.5t15 -33.5q0 -46 -53 -46h-12q-137 0 -259 67q-149 -67 -337 -67q-26 0 -38 14t-12 31q0 16 12 31t38 15h3q134 0 250 32q-91 73 -139 163q-38 -15 -55 -24l-9 72q124 62 269 62q220 0 220 -114q0 -86 -113 -165q81 -26 178 -26zM177 304
q56 -94 161 -151q64 28 100 60.5t36 56.5q0 11 -10.5 21.5t-48.5 20.5t-100 10q-58 0 -138 -18z" />
    <glyph glyph-name="uni0639.f" unicode="&#x639;" horiz-adv-x="620" arabic-form="final" 
d="M577 91h43q24 0 39 -11.5t15 -33.5q0 -46 -54 -46h-45q-150 0 -269 80q-105 -53 -144.5 -97t-39.5 -94q0 -79 88 -133.5t231 -54.5q104 0 165 16l-31 -76q-62 -20 -164 -20q-151 0 -256.5 69.5t-105.5 194.5q0 67 43 123t158 116q-76 69 -123 160q-30 -10 -55 -24l-9 73
q42 22 115.5 42.5t154.5 20.5q113 0 166.5 -31.5t53.5 -83.5q0 -37 -31 -72.5t-128 -85.5q82 -32 183 -32zM190 303q50 -91 132 -144q167 77 167 112q0 12 -11.5 22.5t-50 19.5t-99.5 9q-64 0 -138 -19z" />
    <glyph glyph-name="uni063A.i" unicode="&#x63a;" horiz-adv-x="497" arabic-form="initial" 
d="M-1 0q-25 0 -37.5 13.5t-12.5 33.5q0 17 12 30.5t39 13.5h12q48 0 143 7q-36 22 -64 59.5t-28 86.5q0 82 58.5 136t141.5 54q79 0 126 -35l9 -76q-48 31 -133 31q-60 0 -98.5 -31t-38.5 -75q0 -65 97 -117q32 -18 64 -18q34 0 85.5 10t90.5 28l-13 -87
q-56 -27 -186 -45.5t-252 -18.5h-15zM218 557q-23 0 -37.5 15t-14.5 39t14.5 39t37.5 15t37.5 -15t14.5 -39q0 -25 -14.5 -39.5t-37.5 -14.5z" />
    <glyph glyph-name="uni063A.m" unicode="&#x63a;" horiz-adv-x="608" arabic-form="medial" 
d="M323 546q-23 0 -37.5 15t-14.5 40q0 23 15 38.5t37 15.5q23 0 37.5 -15.5t14.5 -38.5q0 -25 -14.5 -40t-37.5 -15zM604 91h4q23 0 38 -11.5t15 -33.5q0 -46 -53 -46h-12q-137 0 -259 67q-149 -67 -337 -67q-26 0 -38 14t-12 31q0 16 12 31t38 15h3q134 0 250 32
q-91 73 -139 163q-38 -15 -55 -24l-9 72q124 62 269 62q220 0 220 -114q0 -86 -113 -165q81 -26 178 -26zM177 304q56 -94 161 -151q64 28 100 60.5t36 56.5q0 11 -10.5 21.5t-48.5 20.5t-100 10q-58 0 -138 -18z" />
    <glyph glyph-name="uni063A.f" unicode="&#x63a;" horiz-adv-x="620" arabic-form="final" 
d="M330 546q-23 0 -37 15t-14 40q0 23 14.5 38.5t37.5 15.5t37.5 -15.5t14.5 -38.5q0 -25 -14.5 -40t-38.5 -15zM577 91h43q24 0 39 -11.5t15 -33.5q0 -46 -54 -46h-45q-150 0 -269 80q-105 -53 -144.5 -97t-39.5 -94q0 -79 88 -133.5t231 -54.5q104 0 165 16l-31 -76
q-62 -20 -164 -20q-151 0 -256.5 69.5t-105.5 194.5q0 67 43 123t158 116q-76 69 -123 160q-30 -10 -55 -24l-9 73q42 22 115.5 42.5t154.5 20.5q113 0 166.5 -31.5t53.5 -83.5q0 -37 -31 -72.5t-128 -85.5q82 -32 183 -32zM190 303q50 -91 132 -144q167 77 167 112
q0 12 -11.5 22.5t-50 19.5t-99.5 9q-64 0 -138 -19z" />
    <glyph glyph-name="uni0641.i" unicode="&#x641;" horiz-adv-x="436" arabic-form="initial" 
d="M193 620q-23 0 -37.5 15t-14.5 40q0 23 15 38.5t37 15.5q23 0 37.5 -15.5t14.5 -38.5q0 -25 -14.5 -40t-37.5 -15zM58 0h-58q-24 0 -37.5 14t-13.5 33q0 18 13.5 31t37.5 13h67q73 0 143.5 9.5t92.5 19.5q5 25 5 34q-67 -3 -118 10t-80 37t-43 53t-14 61q0 72 52 126
q51 54 117 54q62 0 110.5 -69.5t48.5 -186.5q0 -110 -26 -174q-90 -65 -297 -65zM117 325q0 -46 52 -71.5t144 -23.5q3 36 -6.5 78t-35.5 75t-61 33q-40 0 -66.5 -27t-26.5 -64z" />
    <glyph glyph-name="uni0641.m" unicode="&#x641;" horiz-adv-x="458" arabic-form="medial" 
d="M209 551q-23 0 -37 15t-14 40q0 23 14.5 38.5t37.5 15.5t37.5 -15.5t14.5 -38.5q0 -25 -14.5 -40t-38.5 -15zM431 91h27q24 0 39 -11.5t15 -33.5q0 -46 -54 -46h-34q-103 0 -195 39q-89 -39 -190 -39h-39q-51 0 -51 46q0 16 12 30.5t39 14.5h33q61 0 103 6
q-66 60 -66 139q0 77 56 134.5t116 57.5q53 0 98.5 -53.5t45.5 -132.5q0 -80 -65 -143q56 -8 110 -8zM134 240q0 -79 101 -119q87 36 87 115q0 44 -27.5 78t-61.5 34q-42 0 -70.5 -33.5t-28.5 -74.5z" />
    <glyph glyph-name="uni0641.f" unicode="&#x641;" horiz-adv-x="917" arabic-form="final" 
d="M680 551q-23 0 -37 15t-14 40q0 23 14.5 38.5t37.5 15.5t37.5 -15.5t14.5 -38.5q0 -25 -14.5 -40t-38.5 -15zM894 91h23q23 0 38 -11.5t15 -33.5q0 -46 -53 -46h-23q-106 0 -199 37q-121 -57 -320 -57q-90 0 -155.5 21.5t-101 59t-52 81.5t-16.5 95q0 80 28 151l53 -11
q-15 -53 -15 -112q0 -197 286 -197q120 0 206 18q-79 64 -79 152q0 76 56 133t115 57q52 0 98 -53.5t46 -130.5q0 -85 -60 -146q50 -7 110 -7zM593 243q0 -87 106 -125q82 42 82 119q0 43 -27 77t-63 34q-41 0 -69.5 -33t-28.5 -72z" />
    <glyph glyph-name="uni0642.i" unicode="&#x642;" horiz-adv-x="436" arabic-form="initial" 
d="M126 620q-22 0 -36.5 14.5t-14.5 38.5t14.5 38.5t36.5 14.5q23 0 37 -14.5t14 -38.5t-14 -38.5t-37 -14.5zM260 620q-23 0 -36 14t-13 39q0 24 13.5 38.5t35.5 14.5q23 0 37 -14.5t14 -38.5t-14 -38.5t-37 -14.5zM58 0h-58q-24 0 -37.5 14t-13.5 33q0 18 13.5 31t37.5 13
h67q73 0 143.5 9.5t92.5 19.5q5 25 5 34q-67 -3 -118 10t-80 37t-43 53t-14 61q0 72 52 126q51 54 117 54q62 0 110.5 -69.5t48.5 -186.5q0 -110 -26 -174q-90 -65 -297 -65zM117 325q0 -46 52 -71.5t144 -23.5q3 36 -6.5 78t-35.5 75t-61 33q-40 0 -66.5 -27t-26.5 -64z
" />
    <glyph glyph-name="uni0642.m" unicode="&#x642;" horiz-adv-x="458" arabic-form="medial" 
d="M142 551q-22 0 -36.5 14.5t-14.5 38.5t14.5 38.5t36.5 14.5q23 0 37 -14.5t14 -38.5t-14 -38.5t-37 -14.5zM276 551q-22 0 -35.5 14.5t-13.5 38.5t13.5 38.5t35.5 14.5q23 0 37 -14.5t14 -38.5q0 -25 -14 -39t-37 -14zM431 91h27q24 0 39 -11.5t15 -33.5q0 -46 -54 -46
h-34q-103 0 -195 39q-89 -39 -190 -39h-39q-51 0 -51 46q0 16 12 30.5t39 14.5h33q61 0 103 6q-66 60 -66 139q0 77 56 134.5t116 57.5q53 0 98.5 -53.5t45.5 -132.5q0 -80 -65 -143q56 -8 110 -8zM134 240q0 -79 101 -119q87 36 87 115q0 44 -27.5 78t-61.5 34
q-42 0 -70.5 -33.5t-28.5 -74.5z" />
    <glyph glyph-name="uni0642.f" unicode="&#x642;" horiz-adv-x="714" arabic-form="final" 
d="M378 474q-22 0 -36.5 14.5t-14.5 38.5t14.5 38.5t36.5 14.5q23 0 37 -14.5t14 -38.5t-14 -38.5t-37 -14.5zM512 474q-22 0 -35.5 14.5t-13.5 38.5t13.5 38.5t35.5 14.5q23 0 37 -14.5t14 -38.5q0 -25 -14 -39t-37 -14zM639 91h75q24 0 39 -11.5t15 -33.5q0 -46 -54 -46
h-81q-7 -54 -16 -72q-32 -68 -110 -119.5t-191 -51.5q-119 0 -192.5 72t-73.5 206q0 87 33 166l56 -7q-20 -75 -20 -138q0 -106 57.5 -159t151.5 -53q84 0 143 34t84 81q4 9 10 41h-22q-125 0 -178.5 50t-53.5 127q-1 67 46.5 119t113.5 52q62 0 113.5 -60t54.5 -197z
M559 91h15q-2 83 -35.5 132t-82.5 49q-34 0 -58 -25.5t-24 -57.5q0 -44 39 -71t146 -27z" />
    <glyph glyph-name="uni0643.i" unicode="&#x643;" horiz-adv-x="395" arabic-form="initial" 
d="M0 0q-28 0 -39.5 14t-11.5 33q0 15 12 29.5t39 14.5h85q110 0 149.5 21.5t39.5 60.5q0 41 -63 111t-205 165q3 63 13 83q6 10 40 29q70 42 168.5 89t186.5 76l-17 -88q-71 -25 -168.5 -69.5t-149.5 -76.5q40 -31 56.5 -43.5t51 -41.5t50 -45t39.5 -43.5t34.5 -48.5
t19 -47.5t8.5 -52.5q0 -88 -71 -132q-63 -38 -198 -38h-69z" />
    <glyph glyph-name="uni0643.m" unicode="&#x643;" horiz-adv-x="446" arabic-form="medial" 
d="M0 0q-51 0 -51 47q0 16 12 30t39 14h30q97 0 139.5 19.5t42.5 61.5q0 25 -40 85q-58 82 -167 188q11 80 11 81q4 10 48 35q68 36 182 83.5t211 77.5l-17 -88q-77 -24 -198 -73t-171 -77q53 -52 95.5 -102.5t68.5 -86t86 -120.5q25 -38 49 -57t37 -22t39 -5q23 0 38 -11.5
t15 -33.5q0 -46 -53 -46q-60 1 -98 24.5t-88 100.5q-12 -63 -66.5 -94t-164.5 -31h-29z" />
    <glyph glyph-name="uni0643.f" unicode="&#x643;" horiz-adv-x="855" arabic-form="final" 
d="M50 214q0 42 14 84l55 -10q-5 -28 -5 -55q0 -85 64 -124.5t171 -39.5q111 0 199.5 28t113.5 66q7 9 6 61l-21 496l75 6l18 -485q5 -86 33 -117t82 -33q23 0 38 -11.5t15 -33.5q0 -46 -53 -46q-126 0 -158 109q-28 -51 -128.5 -89t-227.5 -38q-84 0 -144 21t-90.5 57
t-43.5 73.5t-13 80.5zM311 279l-17 44q45 1 82 10.5t54 20.5t17 20q0 12 -59 16q-38 2 -53 14.5t-15 35.5q0 46 41 87.5t105 50.5v-63q-49 -8 -73.5 -24t-24.5 -34q0 -11 49 -15q46 -4 61.5 -17t15.5 -37q0 -49 -48 -80.5t-101 -31.5q-25 0 -34 3z" />
    <glyph glyph-name="uni0644.i" unicode="&#x644;" horiz-adv-x="285" arabic-form="initial" 
d="M0 0q-51 0 -51 47q0 16 12.5 30t38.5 14q123 0 116 129l-24 500l75 6l24 -507q6 -111 -44.5 -165t-146.5 -54z" />
    <glyph glyph-name="uni0644.m" unicode="&#x644;" horiz-adv-x="303" arabic-form="medial" 
d="M-1 0q-51 0 -51 47q0 17 13 30.5t39 13.5q64 0 90.5 38.5t22.5 129.5l-17 461l75 6l18 -466q3 -93 28.5 -130t85.5 -39q24 0 39 -11.5t15 -33.5q0 -18 -12 -32t-42 -14q-116 0 -144 95q-43 -95 -160 -95z" />
    <glyph glyph-name="uni0644.f" unicode="&#x644;" horiz-adv-x="690" arabic-form="final" 
d="M559 726l20 -535q15 -101 111 -101q54 0 54 -44q0 -46 -54 -46q-75 0 -106 49l1 -17q4 -88 -30 -135q-37 -62 -106.5 -96.5t-147.5 -34.5q-114 0 -181.5 65t-67.5 176q0 75 34 161l58 -10q-20 -68 -20 -122q0 -94 55 -139.5t132 -45.5q64 0 116.5 25.5t74.5 64.5
q12 22 11 61l-30 718z" />
    <glyph glyph-name="uni0645.i" unicode="&#x645;" horiz-adv-x="458" arabic-form="initial" 
d="M2 0h-2q-24 0 -39 11.5t-15 34.5q0 45 55 45q35 -1 54.5 20t35.5 68q32 92 67 130.5t91 38.5q72 0 117.5 -71t45.5 -150q0 -56 -32.5 -91.5t-81.5 -35.5q-85 0 -182 74q-20 -40 -45.5 -57t-68.5 -17zM302 88q47 0 47 42q0 47 -32 93.5t-72 46.5q-31 0 -53 -24.5
t-43 -90.5q30 -27 72.5 -47t80.5 -20z" />
    <glyph glyph-name="uni0645.m" unicode="&#x645;" horiz-adv-x="495" arabic-form="medial" 
d="M0 91h5q33 2 50.5 19.5t35.5 68.5q33 87 67.5 122t90.5 35q59 0 102 -51t57 -119q20 -45 40.5 -60t46.5 -15q23 0 38 -11.5t15 -33.5q0 -46 -53 -46q-61 0 -96 50q-31 -62 -99 -62q-88 0 -185 74q-40 -62 -113 -62h-2q-23 0 -38.5 11.5t-15.5 33.5q0 46 54 46zM302 76
q47 0 47 42q0 49 -30.5 94.5t-73.5 45.5q-32 0 -54.5 -24.5t-43.5 -90.5q30 -27 73.5 -47t81.5 -20z" />
    <glyph glyph-name="uni0645.f" unicode="&#x645;" horiz-adv-x="806" arabic-form="final" 
d="M78 -209l-48 50q114 47 204 101t123 102q11 11 49 122q30 92 65.5 131t91.5 39q57 0 100.5 -48.5t57.5 -112.5q11 -28 22 -45.5t22.5 -25.5t20 -11t20.5 -3q53 0 53 -44q0 -46 -53 -46q-62 0 -97 54q-15 -30 -40 -48t-55 -18q-86 0 -180 72q-22 -67 -41 -93
q-40 -54 -132.5 -104.5t-182.5 -71.5zM616 75q20 0 33 15.5t13 39.5q0 47 -31.5 88t-72.5 41q-31 0 -53.5 -25t-42.5 -91q29 -28 72.5 -48t81.5 -20z" />
    <glyph glyph-name="uni0646.i" unicode="&#x646;" horiz-adv-x="286" arabic-form="initial" 
d="M0 0q-50 0 -50 47q0 17 12 30.5t38 13.5h20q106 0 141 23q1 6 1 19q-4 105 -77 232l73 29q27 -49 49 -125.5t22 -142.5q0 -47 -11 -77q-17 -15 -35.5 -24t-61.5 -17t-106 -8h-15zM76 510q-23 0 -37 15t-14 40q0 23 14.5 38.5t37.5 15.5t37.5 -15.5t14.5 -38.5
q0 -25 -14.5 -40t-38.5 -15z" />
    <glyph glyph-name="uni0646.m" unicode="&#x646;" horiz-adv-x="314" arabic-form="medial" 
d="M-3 0q-51 0 -51 46q0 17 13 30.5t39 13.5q76 0 104.5 38.5t37.5 114.5l59 5q-2 -16 -2 -34q0 -123 117 -124q53 0 53 -44q0 -46 -53 -46q-124 0 -154 100q-37 -100 -163 -100zM158 404q-23 0 -37.5 15t-14.5 40q0 23 15 38.5t37 15.5q23 0 37.5 -15.5t14.5 -38.5
q0 -25 -14.5 -40t-37.5 -15z" />
    <glyph glyph-name="uni0646.f" unicode="&#x646;" horiz-adv-x="639" arabic-form="final" 
d="M50 30q0 85 38 161l59 -9q-25 -80 -25 -135q0 -79 48.5 -126.5t131.5 -47.5q55 0 104.5 24t78.5 76q18 28 18 52q0 41 -6 67q-20 81 -67 175l73 31q49 -101 64 -194q25 -14 72 -14q53 0 53 -44q0 -46 -53 -46q-51 0 -72 11q-7 -51 -32 -93q-79 -134 -243 -134
q-113 0 -177.5 67.5t-64.5 178.5zM288 369q-23 0 -37 15t-14 40q0 23 14.5 38.5t37.5 15.5t37.5 -15.5t14.5 -38.5q0 -25 -14.5 -40t-38.5 -15z" />
    <glyph glyph-name="uni0647.i" unicode="&#x647;" horiz-adv-x="631" arabic-form="initial" 
d="M190 463l43 64q168 -118 174 -123q176 -128 176 -250q1 -72 -53 -117.5t-139 -45.5q-83 0 -163 44q-91 -35 -215 -35h-13q-49 0 -49 46q0 17 11.5 31t37.5 14h23q75 0 126 9q-55 63 -55 134q0 64 39.5 116t100.5 79zM161 245q0 -70 74 -122q106 46 106 159q0 46 -22 72
t-42 26q-35 0 -75.5 -38t-40.5 -97zM395 74q124 0 124 80q0 78 -119 171q7 -27 7 -58q0 -110 -90 -182q41 -11 78 -11z" />
    <glyph glyph-name="uni0647.m" unicode="&#x647;" horiz-adv-x="479" arabic-form="medial" 
d="M356 91h123q24 0 39 -11.5t15 -33.5q0 -18 -12 -32t-42 -14h-105q62 -43 62 -104q0 -62 -45 -101t-102 -39q-50 0 -90.5 21.5t-66 58t-40.5 78t-19 86.5h-73q-25 0 -37.5 14.5t-12.5 31.5q0 18 13 31.5t37 13.5h75q22 160 138 331h27q30 -35 43.5 -51.5t42 -55
t41.5 -72.5t13 -64q0 -45 -24 -88zM140 91h59q68 0 93 18t25 52t-26 78t-64 83q-71 -118 -87 -231zM202 0h-64q10 -70 51.5 -119.5t101.5 -49.5q37 0 58.5 17.5t21.5 48.5q0 37 -42 70t-127 33z" />
    <glyph glyph-name="uni0647.f" unicode="&#x647;" horiz-adv-x="480" arabic-form="final" 
d="M358 528l12 -309q3 -74 32 -101t78 -27q23 0 38.5 -11.5t15.5 -33.5q0 -46 -54 -46q-119 0 -157 91q-49 -31 -124 -31q-68 0 -110 34.5t-42 91.5q0 90 98 168q38 31 148 87l-3 80zM304 190l-8 177q-181 -76 -181 -158q0 -30 25.5 -45t69.5 -15q52 0 95 19q0 3 -0.5 10.5
t-0.5 11.5z" />
    <glyph glyph-name="uni0648.f" unicode="&#x648;" horiz-adv-x="532" arabic-form="final" 
d="M456 90h76q53 0 53 -44q0 -46 -53 -46h-83q-23 -119 -102 -197.5t-182 -78.5q-98 0 -151 49l15 63q55 -29 128 -29q82 0 141.5 54.5t80.5 138.5h-20q-229 0 -229 179q0 68 46 118.5t111 50.5q27 0 53.5 -12t53 -39t44 -80.5t18.5 -126.5zM374 90h15q-3 87 -35 134.5
t-80 47.5q-35 0 -57.5 -25.5t-22.5 -57.5q0 -44 37.5 -71.5t142.5 -27.5z" />
    <glyph glyph-name="uni0649.i" unicode="&#x649;" horiz-adv-x="286" 
d="M0 0q-50 0 -50 47q0 17 12 30.5t38 13.5h20q106 0 141 23q1 6 1 19q-4 105 -77 232l73 29q27 -49 49 -125.5t22 -142.5q0 -47 -11 -77q-17 -15 -35.5 -24t-61.5 -17t-106 -8h-15z" />
    <glyph glyph-name="uni0649.m" unicode="&#x649;" horiz-adv-x="314" 
d="M-3 0q-51 0 -51 46q0 17 13 30.5t39 13.5q76 0 104.5 38.5t37.5 114.5l59 5q-2 -16 -2 -34q0 -123 117 -124q53 0 53 -44q0 -46 -53 -46q-124 0 -154 100q-37 -100 -163 -100z" />
    <glyph glyph-name="uni0649.f" unicode="&#x649;" horiz-adv-x="660" arabic-form="final" 
d="M50 -3q0 91 41 173l56 -8q-26 -75 -26 -148q0 -99 63 -147t161 -48q81 0 147 24.5t102 62.5q24 24 24 41q0 23 -33.5 38t-84.5 15h-6l26 90h140q53 0 53 -44q0 -46 -53 -46h-4q23 -22 23 -56q0 -41 -28 -77q-44 -60 -131 -98t-188 -38q-142 0 -212 72t-70 194z" />
    <glyph glyph-name="uni064A.i" unicode="&#x64a;" horiz-adv-x="286" arabic-form="initial" 
d="M0 0q-50 0 -50 47q0 17 12 30.5t38 13.5h20q106 0 141 23q1 6 1 19q-4 105 -77 232l73 29q27 -49 49 -125.5t22 -142.5q0 -47 -11 -77q-17 -15 -35.5 -24t-61.5 -17t-106 -8h-15zM194 -144q23 0 37 -14.5t14 -38.5t-14 -38.5t-37 -14.5t-36 14t-13 39q0 24 13.5 38.5
t35.5 14.5zM60 -144q22 0 36.5 -14.5t14.5 -38.5t-14.5 -38.5t-36.5 -14.5t-36.5 14.5t-14.5 38.5t14.5 38.5t36.5 14.5z" />
    <glyph glyph-name="uni064A.m" unicode="&#x64a;" horiz-adv-x="314" arabic-form="medial" 
d="M-3 0q-51 0 -51 46q0 17 13 30.5t39 13.5q76 0 104.5 38.5t37.5 114.5l59 5q-2 -16 -2 -34q0 -123 117 -124q53 0 53 -44q0 -46 -53 -46q-124 0 -154 100q-37 -100 -163 -100zM227 -144q23 0 37 -14.5t14 -38.5t-14 -38.5t-37 -14.5t-36 14t-13 39q0 24 13.5 38.5
t35.5 14.5zM93 -144q23 0 37 -14.5t14 -38.5t-14 -38.5t-37 -14.5q-22 0 -36.5 14.5t-14.5 38.5t14.5 38.5t36.5 14.5z" />
    <glyph glyph-name="uni064A.f" unicode="&#x64a;" horiz-adv-x="660" arabic-form="final" 
d="M50 -3q0 91 41 173l56 -8q-26 -75 -26 -148q0 -99 63 -147t161 -48q81 0 147 24.5t102 62.5q24 24 24 41q0 23 -33.5 38t-84.5 15h-6l26 90h140q53 0 53 -44q0 -46 -53 -46h-4q23 -22 23 -56q0 -41 -28 -77q-44 -60 -131 -98t-188 -38q-142 0 -212 72t-70 194zM430 -364
q23 0 37 -14.5t14 -38.5t-14 -38.5t-37 -14.5q-22 0 -35.5 14.5t-13.5 38.5t13.5 38.5t35.5 14.5zM296 -364q23 0 37 -14.5t14 -38.5t-14 -38.5t-37 -14.5q-22 0 -36.5 14.5t-14.5 38.5t14.5 38.5t36.5 14.5z" />
    <glyph glyph-name="uni066E.f" unicode="&#x66e;" horiz-adv-x="916" 
d="M49 245q0 66 21 124l55 -10q-11 -47 -11 -85q0 -204 283 -204q116 0 204.5 24t133.5 53q-3 24 -3 42q0 29 11 67l59 6q-5 -28 -5 -54q0 -111 119 -117v-1q23 0 38.5 -11t15.5 -33q0 -46 -54 -46q-110 0 -156 75q-146 -97 -371 -97q-162 0 -250.5 66t-89.5 201z" />
    <glyph glyph-name="uni06A1.i" unicode="&#x66f;" horiz-adv-x="436" 
d="M58 0h-58q-24 0 -37.5 14t-13.5 33q0 18 13.5 31t37.5 13h67q73 0 143.5 9.5t92.5 19.5q5 25 5 34q-67 -3 -118 10t-80 37t-43 53t-14 61q0 72 52 126q51 54 117 54q62 0 110.5 -69.5t48.5 -186.5q0 -110 -26 -174q-90 -65 -297 -65zM117 325q0 -46 52 -71.5t144 -23.5
q3 36 -6.5 78t-35.5 75t-61 33q-40 0 -66.5 -27t-26.5 -64z" />
    <glyph glyph-name="uni06A1.m" unicode="&#x66f;" horiz-adv-x="458" 
d="M431 91h27q24 0 39 -11.5t15 -33.5q0 -46 -54 -46h-34q-103 0 -195 39q-89 -39 -190 -39h-39q-51 0 -51 46q0 16 12 30.5t39 14.5h33q61 0 103 6q-66 60 -66 139q0 77 56 134.5t116 57.5q53 0 98.5 -53.5t45.5 -132.5q0 -80 -65 -143q56 -8 110 -8zM134 240
q0 -79 101 -119q87 36 87 115q0 44 -27.5 78t-61.5 34q-42 0 -70.5 -33.5t-28.5 -74.5z" />
    <glyph glyph-name="uni066F.f" unicode="&#x66f;" horiz-adv-x="714" 
d="M639 91h75q24 0 39 -11.5t15 -33.5q0 -46 -54 -46h-81q-7 -54 -16 -72q-32 -68 -110 -119.5t-191 -51.5q-119 0 -192.5 72t-73.5 206q0 87 33 166l56 -7q-20 -75 -20 -138q0 -106 57.5 -159t151.5 -53q84 0 143 34t84 81q4 9 10 41h-22q-125 0 -178.5 50t-53.5 127
q-1 67 46.5 119t113.5 52q62 0 113.5 -60t54.5 -197zM559 91h15q-2 83 -35.5 132t-82.5 49q-34 0 -58 -25.5t-24 -57.5q0 -44 39 -71t146 -27z" />
    <glyph glyph-name="uni0671.f" unicode="&#x671;" horiz-adv-x="266" arabic-form="final" 
d="M78 207l-20 514l75 5l19 -494q3 -76 31 -107t83 -34q23 0 38 -11.5t15 -33.5q0 -46 -53 -46q-91 0 -137.5 48t-50.5 159zM99 802q-30 0 -69.5 17.5t-50.5 17.5q-24 0 -43 -23v56q17 26 45 26q5 0 21 -4q59 93 117 93q37 0 59.5 -25.5t22.5 -63.5q0 -41 -30 -67.5
t-72 -26.5zM106 858q20 0 34 9t15 24q0 17 -10 28t-28 12q-39 0 -76 -57q27 -16 65 -16z" />
    <glyph glyph-name="uni0675.f" unicode="&#x675;" horiz-adv-x="392" 
d="M77 212l-19 508l74 6l19 -499q4 -74 32.5 -105t102.5 -31h106q24 0 39 -11.5t15 -33.5q0 -46 -53 -46h-93q-114 0 -165 44.5t-58 167.5zM290 749q-93 0 -133 -17l6 47q19 12 45 12q-35 25 -35 62q0 40 29.5 62.5t72.5 22.5q57 0 85 -26l-15 -46q-29 22 -72 22
q-24 0 -37.5 -11t-13.5 -25q0 -24 24.5 -38t63.5 -14h66l-21 -51h-65z" />
    <glyph glyph-name="uni0676.f" unicode="&#x676;" horiz-adv-x="619" 
d="M528 461h-65q-93 0 -133 -17l6 47q19 12 45 12q-35 25 -35 62q0 40 29.5 62.5t72.5 22.5q57 0 85 -26l-15 -46q-29 22 -72 22q-24 0 -37.5 -11t-13.5 -25q0 -24 24.5 -38t63.5 -14h66zM456 91h163q23 0 38.5 -11.5t15.5 -33.5q0 -18 -12 -32t-42 -14h-170
q-22 -119 -101 -197.5t-183 -78.5q-98 0 -151 49l15 63q55 -29 128 -29q82 0 141.5 54t80.5 139h-20q-125 0 -178 50t-53 129q0 73 46.5 121t114.5 48q62 0 113 -60t54 -197zM374 91h15q-2 86 -35 134t-82 48q-35 0 -56.5 -23.5t-21.5 -57.5q0 -47 37 -74t143 -27z" />
    <glyph glyph-name="uni0677.f" unicode="&#x677;" horiz-adv-x="619" 
d="M67 415v39q20 -6 53 -6q28 0 57 11.5t42 31.5q-49 -3 -81 19.5t-32 66.5q0 38 26 64.5t65 26.5q33 0 60.5 -27.5t28.5 -80.5q0 -73 -48 -116t-108 -43q-44 0 -63 14zM528 461h-65q-93 0 -133 -17l6 47q19 12 45 12q-35 25 -35 62q0 40 29.5 62.5t72.5 22.5q57 0 85 -26
l-15 -46q-29 22 -72 22q-24 0 -37.5 -11t-13.5 -25q0 -24 24.5 -38t63.5 -14h66zM147 583q0 -23 23 -38t70 -12q5 37 -9 62.5t-44 25.5q-17 0 -28.5 -11t-11.5 -27zM456 91h163q23 0 38.5 -11.5t15.5 -33.5q0 -18 -12 -32t-42 -14h-170q-22 -119 -101 -197.5t-183 -78.5
q-98 0 -151 49l15 63q55 -29 128 -29q82 0 141.5 54t80.5 139h-20q-125 0 -178 50t-53 129q0 73 46.5 121t114.5 48q62 0 113 -60t54 -197zM374 91h15q-2 86 -35 134t-82 48q-35 0 -56.5 -23.5t-21.5 -57.5q0 -47 37 -74t143 -27z" />
    <glyph glyph-name="uni0678.i" unicode="&#x678;" horiz-adv-x="417" 
d="M0 0q-50 0 -50 47q0 17 12 30.5t38 13.5h20q106 0 141 23q1 6 1 19q-4 105 -77 232l73 29q27 -49 49 -125.5t22 -142.5q0 -47 -11 -77q-17 -15 -35.5 -24t-61.5 -17t-106 -8h-15zM356 519q-94 0 -134 -17l6 47q22 12 46 12q-36 26 -36 62q0 40 29.5 62.5t72.5 22.5
q58 0 86 -26l-16 -46q-29 22 -72 22q-23 0 -37 -11t-14 -25q0 -24 24.5 -38t63.5 -14h66l-20 -51h-65z" />
    <glyph glyph-name="uni0678.m" unicode="&#x678;" horiz-adv-x="467" 
d="M-3 0q-51 0 -51 46q0 17 13 30.5t39 13.5q40 0 67 13t42 38.5t22 51t11 63.5l60 5q-3 -19 -3 -48q1 -56 27 -88.5t98 -33.5h145q23 0 38 -11.5t15 -33.5q0 -46 -53 -46h-146q-72 0 -109.5 25t-51.5 76q-45 -101 -163 -101zM345 413q-93 0 -134 -17l7 47q19 12 45 12
q-36 26 -36 62q0 39 30 62t73 23q57 0 85 -26l-15 -46q-29 22 -72 22q-24 0 -37.5 -11t-13.5 -25q0 -24 24.5 -38t63.5 -14h66l-21 -51h-65z" />
    <glyph glyph-name="uni0678.f" unicode="&#x678;" horiz-adv-x="948" 
d="M50 -3q0 91 41 173l56 -8q-25 -72 -25 -148q0 -99 62.5 -147t160.5 -48q81 0 147.5 24.5t101.5 62.5q20 21 20 41q0 23 -31.5 38t-82.5 15h-6l26 90h428q53 0 53 -44q0 -46 -53 -46h-293q24 -22 24 -56q0 -41 -28 -77q-44 -60 -131 -98t-188 -38q-142 0 -212 72t-70 194z
M750 413q-93 0 -134 -17l7 47q19 12 45 12q-36 26 -36 62q0 39 30 62t73 23q57 0 85 -26l-15 -46q-29 22 -72 22q-24 0 -38 -11t-14 -25q0 -24 24.5 -38t64.5 -14h66l-21 -51h-65z" />
    <glyph glyph-name="uni0679.i" unicode="&#x679;" horiz-adv-x="286" arabic-form="initial" 
d="M0 0q-50 0 -50 47q0 17 12 30.5t38 13.5h20q106 0 141 23q1 6 1 19q-4 105 -77 232l73 29q27 -49 49 -125.5t22 -142.5q0 -47 -11 -77q-17 -15 -35.5 -24t-61.5 -17t-106 -8h-15zM40 501h-69l-28 54l58 -4q13 26 10 79l-12 164l45 4l7 -115q2 -39 -1 -57q42 63 100 63
q31 0 49.5 -21t18.5 -51q0 -60 -51 -88t-127 -28zM43 552q131 0 131 57q0 13 -9 21.5t-25 8.5q-48 0 -97 -87z" />
    <glyph glyph-name="uni0679.m" unicode="&#x679;" horiz-adv-x="314" arabic-form="medial" 
d="M-3 0q-51 0 -51 46q0 17 13 30.5t39 13.5q76 0 104.5 38.5t37.5 114.5l59 5q-2 -16 -2 -34q0 -123 117 -124q53 0 53 -44q0 -46 -53 -46q-124 0 -154 100q-37 -100 -163 -100zM121 395h-68l-28 54l57 -4q15 29 10 79l-12 164l46 4l7 -115q2 -35 -2 -57q43 63 101 63
q31 0 49.5 -21t18.5 -51q0 -60 -51.5 -88t-127.5 -28zM124 446q132 0 132 57q0 13 -9 21.5t-26 8.5q-47 0 -97 -87z" />
    <glyph glyph-name="uni0679.f" unicode="&#x679;" horiz-adv-x="916" arabic-form="final" 
d="M49 245q0 66 21 124l55 -10q-11 -47 -11 -85q0 -204 283 -204q116 0 204.5 24t133.5 53q-3 24 -3 42q0 29 11 67l59 6q-5 -28 -5 -54q0 -111 119 -117v-1q23 0 38.5 -11t15.5 -33q0 -46 -54 -46q-110 0 -156 75q-146 -97 -371 -97q-162 0 -250.5 66t-89.5 201zM394 413
h-69l-28 54l58 -4q13 26 10 79l-12 164l45 4l7 -115q2 -39 -1 -57q42 63 100 63q31 0 49.5 -21t18.5 -51q0 -60 -51 -88t-127 -28zM397 464q131 0 131 57q0 13 -9 21.5t-25 8.5q-48 0 -97 -87z" />
    <glyph glyph-name="uni067E.i" unicode="&#x67e;" horiz-adv-x="286" arabic-form="initial" 
d="M0 0q-50 0 -50 47q0 17 12 30.5t38 13.5h20q106 0 141 23q1 6 1 19q-4 105 -77 232l73 29q27 -49 49 -125.5t22 -142.5q0 -47 -11 -77q-17 -15 -35.5 -24t-61.5 -17t-106 -8h-15zM127 -265q21 0 35 -14.5t14 -38.5q0 -23 -14.5 -38t-35.5 -15q-22 0 -36.5 15t-14.5 38
q0 24 14.5 38.5t37.5 14.5zM60 -144q22 0 36.5 -15t14.5 -39q0 -22 -14.5 -37t-36.5 -15q-21 0 -35 15t-14 37q0 24 14 39t35 15zM194 -144q22 0 35 -14.5t13 -39.5q0 -22 -13.5 -37t-35.5 -15t-36 15t-14 37q0 25 14 39.5t37 14.5z" />
    <glyph glyph-name="uni067E.m" unicode="&#x67e;" horiz-adv-x="314" arabic-form="medial" 
d="M-3 0q-51 0 -51 46q0 17 13 30.5t39 13.5q76 0 104.5 38.5t37.5 114.5l59 5q-2 -16 -2 -34q0 -123 117 -124q53 0 53 -44q0 -46 -53 -46q-124 0 -154 100q-37 -100 -163 -100zM160 -265q21 0 35 -14.5t14 -38.5q0 -23 -14.5 -38t-35.5 -15q-22 0 -36.5 15t-14.5 38
q0 24 14.5 38.5t37.5 14.5zM93 -144q22 0 36.5 -15t14.5 -39q0 -22 -14.5 -37t-36.5 -15q-21 0 -35 15t-14 37q0 24 14 39t35 15zM227 -144q22 0 35 -14.5t13 -39.5q0 -22 -13.5 -37t-35.5 -15t-36 15t-14 37q0 25 14 39.5t37 14.5z" />
    <glyph glyph-name="uni067E.f" unicode="&#x67e;" horiz-adv-x="916" arabic-form="final" 
d="M49 245q0 66 21 124l55 -10q-11 -47 -11 -85q0 -204 283 -204q116 0 204.5 24t133.5 53q-3 24 -3 42q0 29 11 67l59 6q-5 -28 -5 -54q0 -111 119 -117v-1q23 0 38.5 -11t15.5 -33q0 -46 -54 -46q-110 0 -156 75q-146 -97 -371 -97q-162 0 -250.5 66t-89.5 201zM457 -265
q21 0 35 -14.5t14 -38.5q0 -23 -14.5 -38t-35.5 -15q-22 0 -36.5 15t-14.5 38q0 24 14.5 38.5t37.5 14.5zM390 -144q22 0 36.5 -15t14.5 -39q0 -22 -14.5 -37t-36.5 -15q-21 0 -35 15t-14 37q0 24 14 39t35 15zM524 -144q22 0 35 -14.5t13 -39.5q0 -22 -13.5 -37t-35.5 -15
t-36 15t-14 37q0 25 14 39.5t37 14.5z" />
    <glyph glyph-name="uni0686.i" unicode="&#x686;" horiz-adv-x="653" arabic-form="initial" 
d="M1 0q-24 0 -37.5 12.5t-13.5 32.5q0 19 12.5 32.5t38.5 13.5h12q195 0 339 66q91 41 105 45q-20 7 -78 32.5t-105 40.5t-86 15q-81 0 -134 -23l14 82q45 22 121 22q14 0 28 -1.5t25.5 -3t27.5 -5.5t25 -6t26.5 -8.5t24 -9t26 -11t24 -10.5t26 -11.5t24.5 -10.5
q89 -39 140 -39h37l-14 -83h-16q-64 0 -174 -64q-107 -62 -197.5 -85t-209.5 -23h-11zM318 -226q21 0 35 -14.5t14 -38.5q0 -23 -14 -38t-35 -15q-23 0 -37.5 15t-14.5 38q0 24 15 38.5t37 14.5zM252 -105q22 0 36.5 -15t14.5 -39q0 -22 -14.5 -37t-36.5 -15q-21 0 -35.5 15
t-14.5 37q0 24 14.5 39t35.5 15zM385 -105q22 0 35.5 -14.5t13.5 -39.5q0 -22 -13.5 -37t-35.5 -15t-36 15t-14 37q0 25 13.5 39.5t36.5 14.5z" />
    <glyph glyph-name="uni0686.m" unicode="&#x686;" horiz-adv-x="682" arabic-form="medial" 
d="M603 181h-27q-8 0 -26 -2q5 -51 39.5 -69.5t92.5 -18.5q23 0 38 -11.5t15 -33.5q0 -46 -53 -46q-90 1 -137.5 39t-52.5 121q-40 -16 -82 -42q-104 -67 -189.5 -92.5t-208.5 -25.5h-11q-24 0 -37.5 12.5t-13.5 32.5q0 19 12.5 32.5t38.5 13.5h12q188 0 309 60
q25 12 53.5 26.5t44 21.5t29.5 11q-23 7 -77 29.5t-101.5 36.5t-91.5 14q-85 0 -132 -27l15 83q44 25 121 25q99 0 250 -70q83 -37 155 -37h29zM303 -159q0 -22 -14.5 -37t-36.5 -15q-21 0 -35.5 15t-14.5 37q0 24 14.5 39t35.5 15q22 0 36.5 -15t14.5 -39zM385 -105
q22 0 35.5 -14.5t13.5 -39.5q0 -22 -13.5 -37t-35.5 -15t-36 15t-14 37q0 25 13.5 39.5t36.5 14.5zM318 -226q21 0 35 -14.5t14 -38.5q0 -23 -14 -38t-35 -15q-23 0 -37.5 15t-14.5 38q0 24 15 38.5t37 14.5z" />
    <glyph glyph-name="uni0686.f" unicode="&#x686;" horiz-adv-x="672" arabic-form="final" 
d="M614 291l-21 -87q-16 2 -62 2q10 -117 141 -115q24 0 39 -11.5t15 -33.5q0 -46 -54 -46q-99 -1 -151 48.5t-52 154.5q-31 -5 -63 -12q-115 -28 -192 -94t-77 -163q0 -115 96 -175.5t249 -60.5q72 0 131 14l-33 -78q-49 -17 -131 -17q-174 0 -286 81.5t-112 227.5
q0 71 35.5 130.5t91.5 97.5t114.5 61.5t115.5 33.5q-7 2 -52.5 18t-87 26t-77.5 10q-83 0 -135 -25l17 85q51 22 122 22q33 0 73 -8t65 -16.5t71.5 -25t60.5 -21.5q57 -23 98 -23h51zM356 -20q0 -19 -12 -31.5t-31 -12.5q-17 0 -28.5 12.5t-11.5 31.5t11.5 32t28.5 13
q18 0 30.5 -13t12.5 -32zM471 -20q0 -20 -10.5 -32t-29.5 -12t-31 12.5t-12 31.5q0 20 12 32.5t31 12.5q18 0 29 -12.5t11 -32.5zM371 -171q-18 0 -30.5 12.5t-12.5 31.5q0 20 12.5 32t31.5 12q18 0 29 -11.5t11 -32.5q0 -19 -11.5 -31.5t-29.5 -12.5z" />
    <glyph glyph-name="uni0688.f" unicode="&#x688;" horiz-adv-x="577" arabic-form="final" 
d="M50 156l57 11q11 -39 36 -56.5t80 -17.5q93 0 140 42q26 25 24 42q-31 134 -82 303l73 25q79 -308 81 -314q16 -59 43 -79.5t75 -20.5q23 0 38 -11.5t15 -33.5q0 -46 -53 -46q-70 0 -105 24t-60 78q-12 -43 -67.5 -72.5t-127.5 -29.5q-83 0 -123 37t-44 119zM297 597h-68
l-28 54l57 -4q15 29 10 79l-12 164l46 4l7 -115q2 -35 -2 -57q43 63 101 63q31 0 49.5 -21t18.5 -51q0 -60 -51.5 -88t-127.5 -28zM300 648q132 0 132 57q0 13 -9 21.5t-26 8.5q-47 0 -97 -87z" />
    <glyph glyph-name="uni0691.f" unicode="&#x691;" horiz-adv-x="471" arabic-form="final" 
d="M111 440l58 -4q13 26 10 79l-12 164l45 4l7 -115q2 -39 -1 -57q42 63 100 63q31 0 49.5 -21t18.5 -51q0 -60 -51 -88t-127 -28h-69zM308 524q-48 0 -98 -87q132 0 132 57q0 13 -9 21.5t-25 8.5zM241 246l73 37q32 -63 55 -124q33 -68 102 -68q23 0 38 -11.5t15 -33.5
q0 -46 -53 -46q-46 0 -71 17q-2 -37 -4 -46q-12 -69 -52 -121t-88 -75.5t-97 -23.5q-94 0 -145 54l9 65q56 -34 135 -34q66 0 120 52.5t58 134.5q-6 60 -95 223z" />
    <glyph glyph-name="uni0698.f" unicode="&#x698;" horiz-adv-x="471" arabic-form="final" 
d="M245 516q-22 0 -35 14t-13 39q0 23 13 38t35 15q23 0 37 -15t14 -38q0 -25 -14 -39t-37 -14zM178 395q-22 0 -36 14.5t-14 39.5q0 22 14.5 37t35.5 15q22 0 36.5 -15t14.5 -37q0 -25 -14 -39.5t-37 -14.5zM261 449q0 22 14 37t36 15t35.5 -15t13.5 -37q0 -25 -13.5 -39.5
t-35.5 -14.5q-23 0 -36.5 14.5t-13.5 39.5zM241 246l73 37q32 -63 55 -124q33 -68 102 -68q23 0 38 -11.5t15 -33.5q0 -46 -53 -46q-46 0 -71 17q-2 -37 -4 -46q-12 -69 -52 -121t-88 -75.5t-97 -23.5q-94 0 -145 54l9 65q56 -34 135 -34q66 0 120 52.5t58 134.5
q-6 60 -95 223z" />
    <glyph glyph-name="uni06A1.f" unicode="&#x6a1;" horiz-adv-x="917" 
d="M894 91h23q23 0 38 -11.5t15 -33.5q0 -46 -53 -46h-23q-106 0 -199 37q-121 -57 -320 -57q-90 0 -155.5 21.5t-101 59t-52 81.5t-16.5 95q0 80 28 151l53 -11q-15 -53 -15 -112q0 -197 286 -197q120 0 206 18q-79 64 -79 152q0 76 56 133t115 57q52 0 98 -53.5t46 -130.5
q0 -85 -60 -146q50 -7 110 -7zM593 243q0 -87 106 -125q82 42 82 119q0 43 -27 77t-63 34q-41 0 -69.5 -33t-28.5 -72z" />
    <glyph glyph-name="uni06A4.i" unicode="&#x6a4;" horiz-adv-x="436" arabic-form="initial" 
d="M194 741q-22 0 -35.5 14t-13.5 39q0 23 13.5 38t35.5 15q23 0 36.5 -14.5t13.5 -38.5q0 -25 -13.5 -39t-36.5 -14zM127 620q-23 0 -36.5 14.5t-13.5 39.5q0 22 14.5 37t35.5 15q22 0 36 -15t14 -37q0 -24 -14 -39t-36 -15zM259 620q-22 0 -36 14.5t-14 39.5q0 22 14 37
t36 15t35.5 -15t13.5 -37q0 -25 -13.5 -39.5t-35.5 -14.5zM58 0h-58q-24 0 -37.5 14t-13.5 33q0 18 13.5 31t37.5 13h67q73 0 143.5 9.5t92.5 19.5q5 25 5 34q-67 -3 -118 10t-80 37t-43 53t-14 61q0 72 52 126q51 54 117 54q62 0 110.5 -69.5t48.5 -186.5q0 -110 -26 -174
q-90 -65 -297 -65zM117 325q0 -46 52 -71.5t144 -23.5q3 36 -6.5 78t-35.5 75t-61 33q-40 0 -66.5 -27t-26.5 -64z" />
    <glyph glyph-name="uni06A4.m" unicode="&#x6a4;" horiz-adv-x="458" arabic-form="medial" 
d="M210 672q-22 0 -35 14t-13 39q0 23 13 38t35 15q23 0 37 -15t14 -38q0 -25 -14 -39t-37 -14zM143 551q-22 0 -36 14.5t-14 39.5q0 22 14.5 37t35.5 15q22 0 36.5 -15t14.5 -37q0 -25 -14 -39.5t-37 -14.5zM226 605q0 22 14 37t36 15t35.5 -15t13.5 -37q0 -25 -13.5 -39.5
t-35.5 -14.5q-23 0 -36.5 14.5t-13.5 39.5zM431 91h27q24 0 39 -11.5t15 -33.5q0 -46 -54 -46h-34q-103 0 -195 39q-89 -39 -190 -39h-39q-51 0 -51 46q0 16 12 30.5t39 14.5h33q61 0 103 6q-66 60 -66 139q0 77 56 134.5t116 57.5q53 0 98.5 -53.5t45.5 -132.5
q0 -80 -65 -143q56 -8 110 -8zM134 240q0 -79 101 -119q87 36 87 115q0 44 -27.5 78t-61.5 34q-42 0 -70.5 -33.5t-28.5 -74.5z" />
    <glyph glyph-name="uni06A4.f" unicode="&#x6a4;" horiz-adv-x="917" arabic-form="final" 
d="M681 672q-22 0 -35 14t-13 39q0 23 13 38t35 15q23 0 37 -15t14 -38q0 -25 -14 -39t-37 -14zM614 551q-22 0 -36 14.5t-14 39.5q0 22 14.5 37t35.5 15q22 0 36.5 -15t14.5 -37q0 -25 -14 -39.5t-37 -14.5zM697 605q0 22 14 37t36 15t35.5 -15t13.5 -37q0 -25 -13.5 -39.5
t-35.5 -14.5q-23 0 -36.5 14.5t-13.5 39.5zM894 91h23q23 0 38 -11.5t15 -33.5q0 -46 -53 -46h-23q-106 0 -199 37q-121 -57 -320 -57q-90 0 -155.5 21.5t-101 59t-52 81.5t-16.5 95q0 80 28 151l53 -11q-15 -53 -15 -112q0 -197 286 -197q120 0 206 18q-79 64 -79 152
q0 76 56 133t115 57q52 0 98 -53.5t46 -130.5q0 -85 -60 -146q50 -7 110 -7zM593 243q0 -87 106 -125q82 42 82 119q0 43 -27 77t-63 34q-41 0 -69.5 -33t-28.5 -72z" />
    <glyph glyph-name="uni06A9.f" unicode="&#x6a9;" horiz-adv-x="962" arabic-form="final" 
d="M50 214q0 45 13 84l56 -10q-5 -30 -5 -55q0 -85 78 -126t206 -41q68 0 124 7.5t90.5 19t58.5 26t33.5 27t9.5 22.5q0 39 -59 119q-61 86 -132 157q5 68 12 85q5 10 49 32q147 80 389 162l-16 -89q-282 -100 -368 -152q89 -95 218 -285q44 -65 76.5 -85.5t78.5 -20.5
q23 0 38 -11.5t15 -33.5q0 -46 -53 -46h-9q-56 0 -99.5 26t-92.5 101q-20 -72 -117.5 -110t-255.5 -38q-96 0 -165 19.5t-105 54.5t-52 74.5t-16 86.5z" />
    <glyph glyph-name="uni0643.iz" unicode="&#x6aa;" horiz-adv-x="977" 
d="M0 0q-28 0 -39.5 14t-11.5 33q0 15 12 29t39 14h93q139 0 256.5 5t273.5 16t234 15q4 68 -43.5 99.5t-133.5 31.5t-213 -10q-185 -10 -235 -10q-36 0 -62 3.5t-53.5 13.5t-42.5 32.5t-15 57.5q0 80 117 174q92 74 254 150l-18 -96q-52 -19 -120 -57.5t-114 -80.5
q-49 -46 -49 -75q0 -43 107 -43q63 0 285 12q97 6 162 6q124 -1 181.5 -51.5t58.5 -158.5q0 -33 -12 -81q-51 -2 -352 -22.5t-453 -20.5h-106z" />
    <glyph glyph-name="uni0643.mz" unicode="&#x6aa;" horiz-adv-x="985" 
d="M430 668l-18 -96q-52 -19 -120 -57.5t-114 -80.5q-49 -46 -49 -75q0 -43 107 -43q63 0 285 12q97 6 162 6q124 -1 181.5 -51.5t58.5 -158.5q0 -11 -1 -16q22 -18 63 -18q53 0 53 -44q0 -46 -53 -46q-75 0 -114 41q-15 -1 -317 -21t-448 -20h-106q-28 0 -39.5 14t-11.5 33
q0 15 12 29t39 14h93q139 0 256.5 5t273.5 16t234 15q4 68 -43.5 99.5t-133.5 31.5t-213 -10q-185 -10 -235 -10q-36 0 -62 3.5t-53.5 13.5t-42.5 32.5t-15 57.5q0 80 117 174q92 74 254 150z" />
    <glyph glyph-name="uni0643.fz" unicode="&#x6aa;" horiz-adv-x="1089" 
d="M535 668l-18 -94q-52 -20 -120.5 -59t-113.5 -80q-49 -47 -49 -76q0 -43 107 -43q45 0 285 13q98 6 162 6q124 -1 181.5 -52t58.5 -159q0 -11 -1 -16q22 -18 62 -18q54 0 54 -44q0 -46 -54 -46q-72 0 -112 40q-485 -42 -692 -42q-173 0 -219 13l-36 102q86 -24 242 -24
q87 0 187.5 4t168.5 9t177 13t157 11q4 68 -44 99.5t-135 31.5q-84 0 -211 -10q-185 -10 -235 -10q-36 0 -62 3.5t-53.5 13.5t-42.5 32.5t-15 57.5q0 80 117 174q92 74 254 150z" />
    <glyph glyph-name="uni06AD.i" unicode="&#x6ad;" horiz-adv-x="395" arabic-form="initial" 
d="M0 0q-28 0 -39.5 14t-11.5 33q0 15 12 29.5t39 14.5h85q110 0 149.5 21.5t39.5 60.5q0 41 -63 111t-205 165q3 63 13 83q6 10 40 29q70 42 168.5 89t186.5 76l-17 -88q-71 -25 -168.5 -69.5t-149.5 -76.5q40 -31 56.5 -43.5t51 -41.5t50 -45t39.5 -43.5t34.5 -48.5
t19 -47.5t8.5 -52.5q0 -88 -71 -132q-63 -38 -198 -38h-69zM171 727q-21 0 -34 13t-13 37q0 22 13 36t34 14q22 0 35 -13.5t13 -36.5t-13 -36.5t-35 -13.5zM45 727q-21 0 -34.5 13.5t-13.5 36.5q0 22 13.5 36t34.5 14t35 -14t14 -36q0 -23 -14 -36.5t-35 -13.5zM109 843
q-21 0 -34 12.5t-13 36.5q0 22 13 36t34 14q22 0 35.5 -14t13.5 -36q0 -23 -13.5 -36t-35.5 -13z" />
    <glyph glyph-name="uni06AD.m" unicode="&#x6ad;" horiz-adv-x="446" arabic-form="medial" 
d="M0 0q-51 0 -51 47q0 16 12 30t39 14h30q97 0 139.5 19.5t42.5 61.5q0 25 -40 85q-58 82 -167 188q11 80 11 81q4 10 48 35q68 36 182 83.5t211 77.5l-17 -88q-77 -24 -198 -73t-171 -77q53 -52 95.5 -102.5t68.5 -86t86 -120.5q25 -38 49 -57t37 -22t39 -5q23 0 38 -11.5
t15 -33.5q0 -46 -53 -46q-60 1 -98 24.5t-88 100.5q-12 -63 -66.5 -94t-164.5 -31h-29zM171 727q-21 0 -34 13t-13 37q0 22 13 36t34 14q22 0 35 -13.5t13 -36.5t-13 -36.5t-35 -13.5zM45 727q-21 0 -34.5 13.5t-13.5 36.5q0 22 13.5 36t34.5 14t35 -14t14 -36
q0 -23 -14 -36.5t-35 -13.5zM109 843q-21 0 -34 12.5t-13 36.5q0 22 13 36t34 14q22 0 35.5 -14t13.5 -36q0 -23 -13.5 -36t-35.5 -13z" />
    <glyph glyph-name="uni06AD.f" unicode="&#x6ad;" horiz-adv-x="855" arabic-form="final" 
d="M50 214q0 42 14 84l55 -10q-5 -28 -5 -55q0 -85 64 -124.5t171 -39.5q111 0 199.5 28t113.5 66q7 9 6 61l-21 496l75 6l18 -485q5 -86 33 -117t82 -33q23 0 38 -11.5t15 -33.5q0 -46 -53 -46q-126 0 -158 109q-28 -51 -128.5 -89t-227.5 -38q-84 0 -144 21t-90.5 57
t-43.5 73.5t-13 80.5zM311 279l-17 44q45 1 82 10.5t54 20.5t17 20q0 12 -59 16q-38 2 -53 14.5t-15 35.5q0 46 41 87.5t105 50.5v-63q-49 -8 -73.5 -24t-24.5 -34q0 -11 49 -15q46 -4 61.5 -17t15.5 -37q0 -49 -48 -80.5t-101 -31.5q-25 0 -34 3zM430 682q-22 0 -35 13
t-13 37q0 22 13.5 36t34.5 14q22 0 35 -13.5t13 -36.5t-13 -36.5t-35 -13.5zM304 682q-22 0 -35 13t-13 37q0 22 13.5 36t34.5 14t35 -14t14 -36q0 -23 -14 -36.5t-35 -13.5zM368 798q-22 0 -34.5 13t-12.5 36q0 22 13 36t34 14q22 0 35.5 -14t13.5 -36q0 -23 -13.5 -36
t-35.5 -13z" />
    <glyph glyph-name="uni06AF.i" unicode="&#x6af;" horiz-adv-x="395" arabic-form="initial" 
d="M0 0q-28 0 -39.5 14t-11.5 33q0 15 12 29.5t39 14.5h85q110 0 149.5 21.5t39.5 60.5q0 41 -63 111t-205 165q3 63 13 83q6 10 40 29q70 42 168.5 89t186.5 76l-17 -88q-71 -25 -168.5 -69.5t-149.5 -76.5q40 -31 56.5 -43.5t51 -41.5t50 -45t39.5 -43.5t34.5 -48.5
t19 -47.5t8.5 -52.5q0 -88 -71 -132q-63 -38 -198 -38h-69zM39 715q159 88 376 160l-14 -67q-206 -68 -373 -158z" />
    <glyph glyph-name="uni06AF.m" unicode="&#x6af;" horiz-adv-x="446" arabic-form="medial" 
d="M0 0q-51 0 -51 47q0 16 12 30t39 14h30q97 0 139.5 19.5t42.5 61.5q0 25 -40 85q-58 82 -167 188q11 80 11 81q4 10 48 35q68 36 182 83.5t211 77.5l-17 -88q-77 -24 -198 -73t-171 -77q53 -52 95.5 -102.5t68.5 -86t86 -120.5q25 -38 49 -57t37 -22t39 -5q23 0 38 -11.5
t15 -33.5q0 -46 -53 -46q-60 1 -98 24.5t-88 100.5q-12 -63 -66.5 -94t-164.5 -31h-29zM53 715q159 88 376 160l-14 -67q-206 -68 -373 -158z" />
    <glyph glyph-name="uni06AF.f" unicode="&#x6af;" horiz-adv-x="962" arabic-form="final" 
d="M50 214q0 45 13 84l56 -10q-5 -30 -5 -55q0 -85 78 -126t206 -41q68 0 124 7.5t90.5 19t58.5 26t33.5 27t9.5 22.5q0 39 -59 119q-61 86 -132 157q5 68 12 85q5 10 49 32q147 80 389 162l-16 -89q-282 -100 -368 -152q89 -95 218 -285q44 -65 76.5 -85.5t78.5 -20.5
q23 0 38 -11.5t15 -33.5q0 -46 -53 -46h-9q-56 0 -99.5 26t-92.5 101q-20 -72 -117.5 -110t-255.5 -38q-96 0 -165 19.5t-105 54.5t-52 74.5t-16 86.5zM571 715q159 88 376 160l-14 -67q-204 -68 -374 -158z" />
    <glyph glyph-name="uni06BA.f" unicode="&#x6ba;" horiz-adv-x="639" arabic-form="final" 
d="M50 30q0 85 38 161l59 -9q-25 -80 -25 -135q0 -79 48.5 -126.5t131.5 -47.5q55 0 104.5 24t78.5 76q18 28 18 52q0 41 -6 67q-20 81 -67 175l73 31q49 -101 64 -194q25 -14 72 -14q53 0 53 -44q0 -46 -53 -46q-51 0 -72 11q-7 -51 -32 -93q-79 -134 -243 -134
q-113 0 -177.5 67.5t-64.5 178.5z" />
    <glyph glyph-name="uni06BE.f" unicode="&#x6be;" horiz-adv-x="519" arabic-form="final" 
d="M395 91h124q24 0 39 -11.5t15 -33.5q0 -46 -54 -46h-105q62 -43 62 -104q0 -62 -45 -101t-102 -39q-93 0 -146.5 65t-67.5 158q-39 -3 -81 -3l-22 90q39 -1 100 1q15 170 141 355h27q39 -44 60.5 -71t50.5 -81t29 -95q0 -47 -25 -84zM267 321q-79 -132 -89 -249
q177 18 179 89q0 68 -90 160zM331 -169q37 0 58 17.5t21 48.5q0 37 -41 69.5t-125 33.5q-39 -10 -62 -13q12 -67 52 -111.5t97 -44.5z" />
    <glyph glyph-name="uni06C0.f" unicode="&#x6c0;" horiz-adv-x="480" arabic-form="final" 
d="M402 629h-65q-91 0 -134 -17l6 47q18 10 46 12q-36 26 -36 62q0 40 29.5 62.5t72.5 22.5q59 0 86 -27l-16 -46q-30 23 -72 23q-23 0 -37 -11.5t-14 -24.5q0 -24 24.5 -38.5t63.5 -14.5h66zM358 528l12 -309q3 -74 32 -101t78 -27q23 0 38.5 -11.5t15.5 -33.5
q0 -46 -54 -46q-119 0 -157 91q-49 -31 -124 -31q-68 0 -110 34.5t-42 91.5q0 90 98 168q38 31 148 87l-3 80zM304 190l-8 177q-181 -76 -181 -158q0 -30 25.5 -45t69.5 -15q52 0 95 19q0 3 -0.5 10.5t-0.5 11.5z" />
    <glyph glyph-name="uni06C1.i" unicode="&#x6c1;" horiz-adv-x="460" arabic-form="initial" 
d="M0 0q-51 0 -51 45q0 20 12.5 33t38.5 13q58 0 94 27.5t49 99.5l63 3q-8 -37 -8 -55q-2 -78 68 -78q33 0 55 21.5t22 55.5q0 55 -34 123l73 21q24 -46 24 -130q0 -83 -42.5 -131t-106.5 -48q-80 0 -108 75q-19 -33 -60 -54t-89 -21zM262 -78l58 -23q-44 -59 -44 -110
q0 -55 44 -105l-62 -31q-21 20 -37.5 57t-16.5 76q0 68 58 136z" />
    <glyph glyph-name="uni06C1.m" unicode="&#x6c1;" horiz-adv-x="487" arabic-form="medial" 
d="M0 0q-51 0 -51 49q0 17 12.5 29t38.5 12h40q40 0 71.5 12.5t54.5 38t37.5 50t30.5 61.5l66 -12q-42 -87 -59 -139.5t-17 -106.5q0 -120 75 -194l4 3q-15 58 -15 119q0 87 39 128t113 40h47q54 0 54 -44q0 -46 -54 -46h-46q-48 0 -69 -22t-21 -77q0 -75 27 -171l-70 -49
q-72 53 -113.5 132t-41.5 164q0 32 5 62q-44 -39 -131 -39h-27z" />
    <glyph glyph-name="uni06C1.f" unicode="&#x6c1;" horiz-adv-x="480" arabic-form="final" 
d="M358 528l12 -309q3 -74 32 -101t78 -27q23 0 38.5 -11.5t15.5 -33.5q0 -46 -54 -46q-119 0 -157 91q-49 -31 -124 -31q-68 0 -110 34.5t-42 91.5q0 90 98 168q38 31 148 87l-3 80zM304 190l-8 177q-181 -76 -181 -158q0 -30 25.5 -45t69.5 -15q52 0 95 19q0 3 -0.5 10.5
t-0.5 11.5z" />
    <glyph glyph-name="uni06C2.f" unicode="&#x6c2;" horiz-adv-x="480" 
d="M402 629h-65q-91 0 -134 -17l6 47q18 10 46 12q-36 26 -36 62q0 40 29.5 62.5t72.5 22.5q59 0 86 -27l-16 -46q-30 23 -72 23q-23 0 -37 -11.5t-14 -24.5q0 -24 24.5 -38.5t63.5 -14.5h66zM358 528l12 -309q3 -74 32 -101t78 -27q23 0 38.5 -11.5t15.5 -33.5
q0 -46 -54 -46q-119 0 -157 91q-49 -31 -124 -31q-68 0 -110 34.5t-42 91.5q0 90 98 168q38 31 148 87l-3 80zM304 190l-8 177q-181 -76 -181 -158q0 -30 25.5 -45t69.5 -15q52 0 95 19q0 3 -0.5 10.5t-0.5 11.5z" />
    <glyph glyph-name="uni06C3.f" unicode="&#x6c3;" horiz-adv-x="480" 
d="M247 620q-22 0 -36.5 14t-14.5 38t14.5 38.5t36.5 14.5q23 0 37 -14.5t14 -38.5t-14 -38t-37 -14zM381 620q-22 0 -35.5 14t-13.5 38t13.5 38.5t35.5 14.5q23 0 37 -14.5t14 -38.5t-14 -38t-37 -14zM358 528l12 -309q3 -74 32 -101t78 -27q23 0 38.5 -11.5t15.5 -33.5
q0 -46 -54 -46q-119 0 -157 91q-49 -31 -124 -31q-68 0 -110 34.5t-42 91.5q0 90 98 168q38 31 148 87l-3 80zM304 190l-8 177q-181 -76 -181 -158q0 -30 25.5 -45t69.5 -15q52 0 95 19q0 3 -0.5 10.5t-0.5 11.5z" />
    <glyph glyph-name="uni06C5.f" unicode="&#x6c5;" horiz-adv-x="536" arabic-form="final" 
d="M461 90h75q53 0 53 -44q0 -46 -53 -46h-81q-20 -128 -101 -212.5t-188 -84.5q-98 0 -150 49l14 63q56 -29 129 -29q115 0 184 104h-224v50h251q14 37 18 60h-24q-231 0 -231 179q-1 73 45.5 121t114.5 48q27 0 53 -12t52.5 -39t43.5 -80.5t19 -126.5zM379 90h17
q-3 87 -36.5 134.5t-83.5 47.5q-35 0 -57.5 -23t-22.5 -57q0 -47 38.5 -74.5t144.5 -27.5z" />
    <glyph glyph-name="uni06C6.f" unicode="&#x6c6;" horiz-adv-x="532" arabic-form="final" 
d="M283 471h-52q-32 71 -104 160l44 34q47 -53 89 -126q36 63 91 129l40 -31q-72 -92 -108 -166zM456 90h76q53 0 53 -44q0 -46 -53 -46h-83q-23 -119 -102 -197.5t-182 -78.5q-98 0 -151 49l15 63q55 -29 128 -29q82 0 141.5 54.5t80.5 138.5h-20q-229 0 -229 179
q0 68 46 118.5t111 50.5q27 0 53.5 -12t53 -39t44 -80.5t18.5 -126.5zM374 90h15q-3 87 -35 134.5t-80 47.5q-35 0 -57.5 -25.5t-22.5 -57.5q0 -44 37.5 -71.5t142.5 -27.5z" />
    <glyph glyph-name="uni06C7.f" unicode="&#x6c7;" horiz-adv-x="532" arabic-form="final" 
d="M137 473v39q20 -6 53 -6q28 0 57 11.5t42 31.5q-49 -3 -81 19.5t-32 66.5q0 38 26 64.5t65 26.5q33 0 60.5 -27.5t28.5 -80.5q0 -73 -48 -116t-108 -43q-44 0 -63 14zM217 641q0 -23 23 -38t70 -12q5 37 -9 62.5t-44 25.5q-17 0 -28.5 -11t-11.5 -27zM456 90h76
q53 0 53 -44q0 -46 -53 -46h-83q-23 -119 -102 -197.5t-182 -78.5q-98 0 -151 49l15 63q55 -29 128 -29q82 0 141.5 54.5t80.5 138.5h-20q-229 0 -229 179q0 68 46 118.5t111 50.5q27 0 53.5 -12t53 -39t44 -80.5t18.5 -126.5zM374 90h15q-3 87 -35 134.5t-80 47.5
q-35 0 -57.5 -25.5t-22.5 -57.5q0 -44 37.5 -71.5t142.5 -27.5z" />
    <glyph glyph-name="uni06C8.f" unicode="&#x6c8;" horiz-adv-x="532" arabic-form="final" 
d="M289 477l-60 -4l-17 241l68 5zM456 90h76q53 0 53 -44q0 -46 -53 -46h-83q-23 -119 -102 -197.5t-182 -78.5q-98 0 -151 49l15 63q55 -29 128 -29q82 0 141.5 54.5t80.5 138.5h-20q-229 0 -229 179q0 68 46 118.5t111 50.5q27 0 53.5 -12t53 -39t44 -80.5t18.5 -126.5z
M374 90h15q-3 87 -35 134.5t-80 47.5q-35 0 -57.5 -25.5t-22.5 -57.5q0 -44 37.5 -71.5t142.5 -27.5z" />
    <glyph glyph-name="uni06C9.f" unicode="&#x6c9;" horiz-adv-x="532" arabic-form="final" 
d="M391 495l-44 -34q-45 50 -88 126q-41 -67 -92 -129l-40 31q70 89 109 166h51q32 -71 104 -160zM456 90h76q53 0 53 -44q0 -46 -53 -46h-83q-23 -119 -102 -197.5t-182 -78.5q-98 0 -151 49l15 63q55 -29 128 -29q82 0 141.5 54.5t80.5 138.5h-20q-229 0 -229 179
q0 68 46 118.5t111 50.5q27 0 53.5 -12t53 -39t44 -80.5t18.5 -126.5zM374 90h15q-3 87 -35 134.5t-80 47.5q-35 0 -57.5 -25.5t-22.5 -57.5q0 -44 37.5 -71.5t142.5 -27.5z" />
    <glyph glyph-name="uni06CB.f" unicode="&#x6cb;" horiz-adv-x="532" arabic-form="final" 
d="M260 597q-22 0 -35.5 14t-13.5 39q0 23 13.5 38t35.5 15q23 0 36.5 -14.5t13.5 -38.5q0 -25 -13.5 -39t-36.5 -14zM193 476q-23 0 -36.5 14.5t-13.5 39.5q0 22 14.5 37t35.5 15q22 0 36 -15t14 -37q0 -24 -14 -39t-36 -15zM275 530q0 22 14 37t36 15t35.5 -15t13.5 -37
q0 -25 -13.5 -39.5t-35.5 -14.5t-36 14.5t-14 39.5zM456 90h76q53 0 53 -44q0 -46 -53 -46h-83q-23 -119 -102 -197.5t-182 -78.5q-98 0 -151 49l15 63q55 -29 128 -29q82 0 141.5 54.5t80.5 138.5h-20q-229 0 -229 179q0 68 46 118.5t111 50.5q27 0 53.5 -12t53 -39
t44 -80.5t18.5 -126.5zM374 90h15q-3 87 -35 134.5t-80 47.5q-35 0 -57.5 -25.5t-22.5 -57.5q0 -44 37.5 -71.5t142.5 -27.5z" />
    <glyph glyph-name="uni06D0.i" unicode="&#x6d0;" horiz-adv-x="286" arabic-form="initial" 
d="M0 0q-50 0 -50 47q0 17 12 30.5t38 13.5h20q106 0 141 23q1 6 1 19q-4 105 -77 232l73 29q27 -49 49 -125.5t22 -142.5q0 -47 -11 -77q-17 -15 -35.5 -24t-61.5 -17t-106 -8h-15zM127 -269q22 0 36 -15t14 -39q0 -23 -14 -37.5t-36 -14.5t-36.5 14t-14.5 38t14 39t37 15z
M126 -133q23 0 37 -15t14 -39t-14.5 -38.5t-37.5 -14.5q-21 0 -35 14.5t-14 38.5t14 39t36 15z" />
    <glyph glyph-name="uni06D0.m" unicode="&#x6d0;" horiz-adv-x="314" arabic-form="medial" 
d="M-3 0q-51 0 -51 46q0 17 13 30.5t39 13.5q76 0 104.5 38.5t37.5 114.5l59 5q-2 -16 -2 -34q0 -123 117 -124q53 0 53 -44q0 -46 -53 -46q-124 0 -154 100q-37 -100 -163 -100zM160 -269q22 0 36 -15t14 -39q0 -23 -14 -37.5t-36 -14.5t-36.5 14t-14.5 38t14 39t37 15z
M159 -133q23 0 37 -15t14 -39t-14.5 -38.5t-37.5 -14.5q-21 0 -35 14.5t-14 38.5t14 39t36 15z" />
    <glyph glyph-name="uni06D0.f" unicode="&#x6d0;" horiz-adv-x="660" arabic-form="final" 
d="M50 -3q0 91 41 173l56 -8q-26 -75 -26 -148q0 -99 63 -147t161 -48q81 0 147 24.5t102 62.5q24 24 24 41q0 23 -33.5 38t-84.5 15h-6l26 90h140q53 0 53 -44q0 -46 -53 -46h-4q23 -22 23 -56q0 -41 -28 -77q-44 -60 -131 -98t-188 -38q-142 0 -212 72t-70 194zM363 -489
q23 0 37 -15t14 -39q0 -23 -14 -37.5t-37 -14.5q-22 0 -36.5 14t-14.5 38t14.5 39t36.5 15zM363 -353q23 0 37 -15t14 -39t-15 -38.5t-38 -14.5q-21 0 -35 14.5t-14 38.5t14.5 39t36.5 15z" />
    <glyph glyph-name="uni06D2.f" unicode="&#x6d2;" horiz-adv-x="273" arabic-form="final" 
d="M273 0h-16q-83 0 -126.5 -25.5t-43.5 -66.5q0 -35 36.5 -52.5t126.5 -17.5q95 0 268 7.5t253 16.5l-24 -81q-199 -27 -495 -27q-119 0 -174 35.5t-55 107.5q0 57 31 101q29 41 87 67t125 26h7q23 0 38 -11.5t15 -33.5q0 -46 -53 -46z" />
    <glyph glyph-name="uni06D3.f" unicode="&#x6d3;" horiz-adv-x="273" arabic-form="final" 
d="M276 234h-65q-94 0 -134 -17l6 47q22 12 46 12q-36 26 -36 62q0 40 29.5 62.5t72.5 22.5q58 0 86 -26l-16 -46q-29 22 -72 22q-23 0 -37 -11t-14 -25q0 -24 24.5 -38t63.5 -14h66zM273 0h-16q-83 0 -126.5 -25.5t-43.5 -66.5q0 -35 36.5 -52.5t126.5 -17.5q95 0 268 7.5
t253 16.5l-24 -81q-199 -27 -495 -27q-119 0 -174 35.5t-55 107.5q0 57 31 101q29 41 87 67t125 26h7q23 0 38 -11.5t15 -33.5q0 -46 -53 -46z" />
    <glyph glyph-name="uni06D5.f" unicode="&#x6d5;" horiz-adv-x="480" 
d="M358 528l12 -309q3 -74 32 -101t78 -27q23 0 38.5 -11.5t15.5 -33.5q0 -46 -54 -46q-119 0 -157 91q-49 -31 -124 -31q-68 0 -110 34.5t-42 91.5q0 90 98 168q38 31 148 87l-3 80zM304 190l-8 177q-181 -76 -181 -158q0 -30 25.5 -45t69.5 -15q52 0 95 19q0 3 -0.5 10.5
t-0.5 11.5z" />
    <glyph glyph-name=".notdef" horiz-adv-x="500" 
d="M0 0v700h500v-700h-500zM250 395l170 255h-340zM280 350l170 -255v510zM80 50h340l-170 255zM50 95l170 255l-170 255v-510z" />
    <glyph glyph-name=".null" 
 />
    <glyph glyph-name="nonmarkingreturn" horiz-adv-x="466" 
 />
    <glyph glyph-name="space" unicode=" " horiz-adv-x="266" 
 />
    <glyph glyph-name="exclam" unicode="!" horiz-adv-x="294" 
d="M93 194l-14 480h96l-14 -480h-68zM68 51q0 27 16.5 44.5t42.5 17.5t42.5 -17.5t16.5 -44.5t-16 -44.5t-43 -17.5q-26 0 -42.5 17.5t-16.5 44.5z" />
    <glyph glyph-name="quotedbl" unicode="&#x22;" horiz-adv-x="337" 
d="M67 452l-16 240h86l-16 -240h-54zM217 452l-17 240h87l-17 -240h-53z" />
    <glyph glyph-name="numbersign" unicode="#" horiz-adv-x="497" 
d="M188 255h104l19 145h-104zM93 0l26 195h-82v60h91l20 145h-87v59h95l26 191h58l-25 -191h104l26 191h59l-25 -191h81v-59h-90l-18 -145h85v-59h-94l-26 -196h-60l26 196h-104l-26 -196h-60z" />
    <glyph glyph-name="dollar" unicode="$" horiz-adv-x="513" 
d="M65 59l24 68q63 -44 143 -44q54 0 87 27.5t33 69.5q0 40 -27.5 67.5t-85.5 51.5q-83 34 -124.5 73.5t-41.5 100.5q0 62 41 106t110 56v99h63v-96q74 -3 129 -36l-23 -66q-59 35 -127 35q-53 0 -79.5 -26t-26.5 -60q0 -37 27.5 -61.5t96.5 -53.5q80 -32 117.5 -74.5
t37.5 -107.5q0 -63 -42 -110.5t-117 -59.5v-104h-62v101q-94 2 -153 44z" />
    <glyph glyph-name="percent" unicode="%" horiz-adv-x="791" 
d="M182 262q-64 0 -107.5 51t-44.5 144q0 95 45 149.5t112 54.5q69 0 110 -51t41 -143q0 -98 -44.5 -151.5t-111.5 -53.5zM184 315q42 0 63 40t21 108q0 65 -20 105t-63 40q-41 0 -63.5 -42t-22.5 -105q-1 -64 22 -105t63 -41zM175 -12l383 674h55l-382 -674h-56zM454 188
q0 94 45 149t112 55q69 0 109.5 -51t40.5 -143q0 -98 -44.5 -151.5t-111.5 -53.5q-64 0 -107.5 51t-43.5 144zM523 192q-2 -64 21.5 -105.5t63.5 -41.5q42 0 62.5 40.5t20.5 107.5q0 65 -20 105.5t-63 40.5q-40 0 -62.5 -42t-22.5 -105z" />
    <glyph glyph-name="ampersand" unicode="&#x26;" horiz-adv-x="604" 
d="M31 178q0 123 131 197l1 3q-56 69 -56 140q0 67 45.5 117t125.5 50q64 0 106.5 -39.5t42.5 -103.5q0 -54 -35 -97.5t-113 -82.5v-3q118 -137 164 -188q45 69 65 197h79q-29 -170 -97 -249q17 -18 54 -57.5t59 -61.5h-105q-11 10 -31 31.5t-32 33.5q-83 -76 -197 -76
q-95 0 -151 55t-56 134zM115 191q0 -58 38.5 -97t98.5 -39q83 0 139 61q-128 141 -189 212q-87 -54 -87 -137zM238 405q57 33 84 62.5t27 70.5q0 35 -19.5 61t-57.5 26q-40 0 -63 -28.5t-23 -69.5q0 -56 52 -122z" />
    <glyph glyph-name="quotesingle" unicode="'" horiz-adv-x="188" 
d="M67 452l-16 240h86l-16 -240h-54z" />
    <glyph glyph-name="parenleft" unicode="(" horiz-adv-x="327" 
d="M206 -141q-139 181 -139 426q1 249 139 433h70q-136 -184 -136 -433q0 -235 136 -426h-70z" />
    <glyph glyph-name="parenright" unicode=")" horiz-adv-x="326" 
d="M51 -141q135 181 135 433q0 236 -135 426h70q139 -183 139 -426q-1 -251 -139 -433h-70z" />
    <glyph glyph-name="asterisk" unicode="*" horiz-adv-x="415" 
d="M140 335l-57 36l95 122v2l-148 -19v68l146 -19l1 2l-94 123l61 34l62 -139h2l61 140l60 -35l-95 -124v-2l151 20v-68l-151 18v-2l96 -121l-62 -35l-61 140h-2z" />
    <glyph glyph-name="plus" unicode="+" horiz-adv-x="596" 
d="M40 237v60h226v235h64v-235h226v-60h-226v-237h-64v237h-226z" />
    <glyph glyph-name="comma" unicode="," horiz-adv-x="207" 
d="M76 116l98 10q-18 -64 -46.5 -136t-49.5 -107l-61 -7q42 114 59 240z" />
    <glyph glyph-name="hyphen" unicode="-" horiz-adv-x="304" 
d="M30 238v65h244v-65h-244z" />
    <glyph glyph-name="period" unicode="." horiz-adv-x="207" 
d="M52 51q0 28 17 46t43 18t42.5 -18t16.5 -46q0 -27 -16.5 -44.5t-43.5 -17.5q-26 0 -42.5 17.5t-16.5 44.5z" />
    <glyph glyph-name="slash" unicode="/" horiz-adv-x="343" 
d="M-1 -40l279 725h68l-280 -725h-67z" />
    <glyph glyph-name="zero" unicode="0" horiz-adv-x="513" 
d="M251 -11q-97 0 -155.5 87.5t-59.5 246.5q0 160 62 249t164 89t158.5 -86.5t56.5 -242.5q0 -165 -59 -254t-167 -89zM256 57q66 0 99.5 71.5t33.5 199.5q0 124 -33 194t-99 70q-60 0 -96.5 -70.5t-36.5 -199.5q0 -125 35.5 -195t96.5 -70z" />
    <glyph glyph-name="one" unicode="1" horiz-adv-x="513" 
d="M236 0v568h-2l-113 -61l-17 67l142 76h74v-650h-84z" />
    <glyph glyph-name="two" unicode="2" horiz-adv-x="513" 
d="M44 0v54l70 66q135 129 188 200.5t53 140.5q0 56 -30 91.5t-98 35.5q-72 0 -138 -55l-28 61q77 67 184 67q98 0 148 -55.5t50 -132.5q0 -84 -53.5 -161t-170.5 -189l-51 -49v-2h291v-72h-415z" />
    <glyph glyph-name="three" unicode="3" horiz-adv-x="513" 
d="M42 34l24 67q64 -41 144 -41q77 0 112.5 38.5t34.5 87.5q-1 64 -49.5 97t-118.5 33h-49v66h49q55 0 100 28.5t45 81.5q0 42 -28.5 70t-85.5 28q-70 0 -130 -43l-23 64q28 21 74.5 35.5t95.5 14.5q91 0 139 -45.5t48 -109.5q0 -52 -31 -92.5t-90 -61.5v-2q63 -12 104 -56
t41 -110q0 -82 -63 -138.5t-174 -56.5q-106 0 -169 45z" />
    <glyph glyph-name="four" unicode="4" horiz-adv-x="513" 
d="M15 177v58l290 415h95v-405h91v-68h-91v-177h-83v177h-302zM104 245h213v218q0 51 3 102h-3q-25 -48 -55 -96l-158 -222v-2z" />
    <glyph glyph-name="five" unicode="5" horiz-adv-x="513" 
d="M42 29l22 67q62 -37 140 -37q64 0 108.5 39.5t43.5 102.5q0 66 -46 105t-140 39q-34 0 -90 -7l42 312h310v-74h-247l-25 -167q30 4 53 4q82 0 140 -35q41 -24 67 -67t26 -100q0 -96 -68.5 -159t-173.5 -63q-100 0 -162 40z" />
    <glyph glyph-name="six" unicode="6" horiz-adv-x="513" 
d="M263 -11q-104 0 -166.5 75t-62.5 201q0 186 110 294q82 81 208 96q26 5 64 5v-72q-40 0 -66 -5q-98 -16 -156 -80t-70 -150h2q56 76 157 76q87 0 142 -58t55 -153q0 -94 -59.5 -161.5t-157.5 -67.5zM264 56q57 0 91.5 43t34.5 114q0 69 -36 109t-97 40q-39 0 -74 -22
t-53 -58q-9 -18 -9 -39q2 -83 39 -135t104 -52z" />
    <glyph glyph-name="seven" unicode="7" horiz-adv-x="513" 
d="M93 0l282 575v2h-318v73h410v-58l-283 -592h-91z" />
    <glyph glyph-name="eight" unicode="8" horiz-adv-x="513" 
d="M37 165q0 117 128 174v3q-52 25 -78 63.5t-26 82.5q0 76 57.5 124.5t144.5 48.5q89 0 139 -47t50 -113q0 -101 -107 -152v-3q62 -24 96.5 -67t34.5 -101q0 -84 -63 -136.5t-159 -52.5q-98 0 -157.5 51t-59.5 125zM127 176q-2 -51 34 -87t96 -36q59 0 94.5 32.5t35.5 83.5
q0 56 -36.5 89t-106.5 52q-56 -16 -86.5 -51.5t-30.5 -82.5zM269 374q44 15 71 45.5t27 72.5q0 44 -27 75t-83 31q-52 0 -82 -30t-30 -74q-1 -46 31.5 -75t92.5 -45z" />
    <glyph glyph-name="nine" unicode="9" horiz-adv-x="513" 
d="M96 -10v72q20 -2 71 3q81 10 136 63q69 62 86 173h-3q-59 -70 -154 -70q-86 0 -138.5 57t-52.5 142q0 95 62.5 163t159.5 68q99 0 157 -74.5t58 -199.5q0 -197 -112 -305q-76 -74 -189 -87q-44 -7 -81 -5zM253 297q42 0 76 19t52 49q8 18 8 33q1 88 -33 142t-100 54
q-57 0 -92.5 -44.5t-35.5 -113.5q0 -61 34.5 -100t90.5 -39z" />
    <glyph glyph-name="colon" unicode=":" horiz-adv-x="287" 
d="M151 342q-26 0 -42.5 18t-16.5 44q0 28 17 45.5t43 17.5t42 -17.5t17 -45.5q0 -26 -17 -44t-43 -18zM92 51q0 28 17 45.5t43 17.5t42 -17.5t17 -45.5q0 -27 -16.5 -44.5t-43.5 -17.5q-26 0 -42.5 17.5t-16.5 44.5z" />
    <glyph glyph-name="semicolon" unicode=";" horiz-adv-x="271" 
d="M48 -124q40 110 60 240l97 10q-18 -64 -46.5 -136t-49.5 -107zM150 342q-26 0 -42.5 18t-16.5 44q0 28 17 45.5t43 17.5t42 -17.5t16 -45.5q0 -26 -16.5 -44t-42.5 -18z" />
    <glyph glyph-name="less" unicode="&#x3c;" horiz-adv-x="596" 
d="M66 238v55l464 239v-70l-391 -195v-2l391 -196v-69z" />
    <glyph glyph-name="equal" unicode="=" horiz-adv-x="596" 
d="M40 141v60h516v-60h-516zM40 337v60h516v-60h-516z" />
    <glyph glyph-name="greater" unicode="&#x3e;" horiz-adv-x="596" 
d="M66 0v69l394 196v2l-394 195v70l464 -238v-57z" />
    <glyph glyph-name="question" unicode="?" horiz-adv-x="422" 
d="M158 192l-3 26q-10 86 63 173q36 44 53 74.5t17 62.5q0 39 -25 62t-71 24q-61 0 -101 -32l-24 63q56 41 143 41q82 0 125 -42.5t43 -104.5q0 -46 -21.5 -85t-65.5 -89q-62 -74 -56 -148l1 -25h-78zM136 51q0 28 16.5 45.5t42.5 17.5q27 0 43 -17.5t17 -45.5
q0 -27 -16.5 -44.5t-43.5 -17.5q-26 0 -42.5 17.5t-16.5 44.5z" />
    <glyph glyph-name="at" unicode="@" horiz-adv-x="737" 
d="M260 195q0 -35 17 -55.5t49 -20.5q41 0 77 43t45 93l21 113q-23 7 -50 7q-66 0 -112.5 -53.5t-46.5 -126.5zM43 208q0 104 44 191t128.5 140.5t192.5 53.5q129 0 209.5 -81.5t80.5 -208.5q0 -108 -51.5 -173t-125.5 -65q-33 0 -54.5 22t-20.5 66h-3q-52 -88 -142 -88
q-45 0 -76.5 34.5t-31.5 91.5q0 96 68 166.5t170 70.5q60 0 107 -20l-34 -182q-21 -112 30 -112q41 -1 74.5 49.5t33.5 132.5q0 112 -64 181t-179 69q-125 0 -212 -92t-87 -240q0 -123 72 -197.5t184 -74.5q88 0 152 36l16 -43q-76 -40 -178 -40q-128 0 -215.5 86t-87.5 227
z" />
    <glyph glyph-name="A" unicode="A" horiz-adv-x="612" 
d="M25 0l229 674h105l230 -674h-93l-72 212h-239l-69 -212h-91zM203 280h203l-66 194q-14 41 -35 123h-3q-14 -62 -33 -122z" />
    <glyph glyph-name="B" unicode="B" horiz-adv-x="542" 
d="M75 2v663q68 14 159 14q126 0 185 -49q57 -41 57 -120q0 -48 -31 -88t-83 -59v-3q56 -13 97.5 -56t41.5 -112q0 -80 -58 -135q-67 -63 -232 -63q-76 0 -136 8zM163 388h79q67 0 106 32t39 82q0 110 -147 110q-56 0 -77 -6v-218zM163 66q24 -4 73 -4q76 0 125 31.5
t49 99.5q0 65 -49 97.5t-126 32.5h-72v-257z" />
    <glyph glyph-name="C" unicode="C" horiz-adv-x="580" 
d="M36 331q0 158 97.5 255.5t254.5 97.5q107 0 160 -29l-21 -71q-58 28 -136 28q-120 0 -191.5 -73.5t-71.5 -204.5q0 -125 68.5 -198t190.5 -73q84 0 142 28l18 -70q-68 -32 -179 -32q-146 0 -239 90.5t-93 251.5z" />
    <glyph glyph-name="D" unicode="D" horiz-adv-x="666" 
d="M75 2v663q95 14 186 14q183 0 273 -84q95 -87 95 -242q0 -165 -97 -262t-298 -97q-87 0 -159 8zM163 69q27 -5 88 -5q139 0 213 74.5t74 211.5q1 122 -68.5 191t-204.5 69q-50 0 -102 -9v-532z" />
    <glyph glyph-name="E" unicode="E" horiz-adv-x="491" 
d="M75 0v674h365v-72h-277v-214h261v-72h-261v-244h292v-72h-380z" />
    <glyph glyph-name="F" unicode="F" horiz-adv-x="486" 
d="M75 0v674h363v-72h-275v-225h255v-72h-255v-305h-88z" />
    <glyph glyph-name="G" unicode="G" horiz-adv-x="646" 
d="M130 82q-94 91 -94 251q0 153 99 250.5t266 97.5q99 0 168 -31l-21 -71q-65 29 -149 29q-124 0 -197.5 -72.5t-73.5 -198.5q0 -127 70.5 -199.5t189.5 -72.5q79 0 115 18v201h-136v70h222v-324q-96 -37 -207 -37q-159 0 -252 89z" />
    <glyph glyph-name="H" unicode="H" horiz-adv-x="652" 
d="M75 0v674h88v-283h326v283h87v-674h-87v316h-326v-316h-88z" />
    <glyph glyph-name="I" unicode="I" horiz-adv-x="239" 
d="M75 0v674h88v-674h-88z" />
    <glyph glyph-name="J" unicode="J" horiz-adv-x="370" 
d="M4 4l12 72q31 -13 74 -13q62 0 92.5 37t30.5 131v443h88v-451q0 -234 -204 -234q-52 0 -93 15z" />
    <glyph glyph-name="K" unicode="K" horiz-adv-x="542" 
d="M75 0v674h88v-325h2q29 39 54 72l206 253h107l-243 -286l263 -388h-103l-222 330l-64 -74v-256h-88z" />
    <glyph glyph-name="L" unicode="L" horiz-adv-x="472" 
d="M75 0v674h88v-601h288v-73h-376z" />
    <glyph glyph-name="M" unicode="M" horiz-adv-x="804" 
d="M58 0l47 674h111l115 -327q38 -111 67 -231h4q25 105 71 232l120 326h111l42 -674h-86l-15 296q-12 189 -11 290h-3q-30 -100 -86 -259l-117 -323h-69l-107 321q-50 143 -78 261h-2q-7 -197 -13 -297l-18 -289h-83z" />
    <glyph glyph-name="N" unicode="N" horiz-adv-x="658" 
d="M75 0v674h96l216 -341q72 -116 121 -220l2 2q-10 113 -10 276v283h82v-674h-88l-214 342q-87 139 -126 225l-3 -1q7 -119 7 -278v-288h-83z" />
    <glyph glyph-name="O" unicode="O" horiz-adv-x="689" 
d="M339 -11q-136 0 -219.5 96t-83.5 248q0 155 88 253.5t227 98.5q140 0 220.5 -98t80.5 -249q0 -162 -90 -255.5t-223 -93.5zM344 60q102 0 159 79.5t57 196.5q0 114 -55.5 196t-159.5 82q-101 0 -159 -80t-58 -198q0 -119 58 -197.5t158 -78.5z" />
    <glyph glyph-name="P" unicode="P" horiz-adv-x="532" 
d="M75 0v666q78 13 168 13q127 0 189 -56q59 -52 59 -142q0 -91 -52 -145q-68 -74 -204 -74q-42 0 -72 5v-267h-88zM163 338q21 -6 71 -6q80 0 125 37.5t45 106.5q0 66 -42.5 100t-116.5 34q-52 0 -82 -6v-266z" />
    <glyph glyph-name="Q" unicode="Q" horiz-adv-x="689" 
d="M36 333q0 155 87.5 253.5t227.5 98.5t220.5 -98t80.5 -248q0 -121 -53 -204.5t-139 -114.5v-4q109 -26 197 -43l-25 -72q-98 26 -258 78q-25 8 -41 10q-138 7 -217.5 100.5t-79.5 243.5zM343 60q102 0 159.5 79.5t57.5 197.5q0 115 -56 196t-159 81q-102 0 -159.5 -81
t-57.5 -198q0 -116 57 -195.5t158 -79.5z" />
    <glyph glyph-name="R" unicode="R" horiz-adv-x="538" 
d="M75 0v665q70 14 168 14q134 0 195 -55q53 -48 53 -129q0 -63 -35.5 -107.5t-91.5 -63.5v-3q73 -25 99 -136q36 -155 52 -185h-91q-16 30 -44 161q-15 69 -45.5 99t-89.5 32h-82v-292h-88zM163 358h89q69 0 110 35t41 93q0 63 -41.5 94t-112.5 32q-58 0 -86 -8v-246z" />
    <glyph glyph-name="S" unicode="S" horiz-adv-x="493" 
d="M41 33l23 73q69 -44 156 -44q66 0 103.5 31.5t37.5 83.5q0 47 -29 77.5t-98 56.5q-179 62 -179 191q0 79 61 130.5t158 51.5q90 0 148 -32l-23 -71q-59 32 -128 32q-63 0 -95 -30.5t-32 -70.5q0 -46 30.5 -74t103.5 -56q89 -35 130 -80.5t41 -117.5q0 -83 -60.5 -139
t-174.5 -56q-48 0 -96.5 13t-76.5 31z" />
    <glyph glyph-name="T" unicode="T" horiz-adv-x="497" 
d="M204 0v600h-205v74h499v-74h-206v-600h-88z" />
    <glyph glyph-name="U" unicode="U" horiz-adv-x="647" 
d="M75 276v398h88v-400q0 -108 42.5 -161t114.5 -53q77 0 120.5 53t43.5 161v400h87v-394q0 -148 -69 -219.5t-185 -71.5q-111 0 -176.5 69t-65.5 218z" />
    <glyph glyph-name="V" unicode="V" horiz-adv-x="557" 
d="M225 0l-222 674h95l105 -332q57 -188 72 -252h2q22 91 77 250l114 334h93l-241 -674h-95z" />
    <glyph glyph-name="W" unicode="W" horiz-adv-x="846" 
d="M185 0l-171 674h93l80 -341q20 -83 50 -233h2q12 70 55 234l90 340h91l82 -342q36 -153 47 -231h2q13 70 54 233l88 340h90l-191 -674h-92l-84 351q-32 130 -45 220h-2q-14 -85 -51 -221l-95 -350h-93z" />
    <glyph glyph-name="X" unicode="X" horiz-adv-x="571" 
d="M25 0l206 341l-198 333h100l90 -158q17 -30 63 -115h2q19 41 61 115l92 158h100l-205 -328l210 -346h-101l-86 148q-40 63 -78 134h-2q-26 -55 -73 -134l-81 -148h-100z" />
    <glyph glyph-name="Y" unicode="Y" horiz-adv-x="541" 
d="M226 0v285l-213 389h100l94 -186q40 -78 67 -139h2q12 28 68 139l97 186h98l-225 -387v-287h-88z" />
    <glyph glyph-name="Z" unicode="Z" horiz-adv-x="553" 
d="M30 0v51l374 547v3h-342v73h455v-53l-372 -545v-3h377v-73h-492z" />
    <glyph glyph-name="bracketleft" unicode="[" horiz-adv-x="321" 
d="M82 -135v843h183v-55h-115v-733h115v-55h-183z" />
    <glyph glyph-name="backslash" unicode="\" horiz-adv-x="341" 
d="M274 -40l-273 725h68l273 -725h-68z" />
    <glyph glyph-name="bracketright" unicode="]" horiz-adv-x="321" 
d="M57 -80h114v733h-114v55h183v-843h-183v55z" />
    <glyph glyph-name="asciicircum" unicode="^" horiz-adv-x="596" 
d="M60 189l207 461h62l206 -461h-70l-166 388h-3l-167 -388h-69z" />
    <glyph glyph-name="underscore" unicode="_" horiz-adv-x="500" 
d="M0 -75h500v-50h-500v50z" />
    <glyph glyph-name="grave" unicode="`" horiz-adv-x="300" 
d="M139 550l-120 143h96l95 -143h-71z" />
    <glyph glyph-name="a" unicode="a" horiz-adv-x="482" 
d="M35 128q0 88 75.5 134t215.5 45v11q0 112 -110 112q-70 0 -126 -36l-21 58q68 43 160 43q184 0 184 -199v-180q0 -70 7 -116h-79l-8 61h-2q-53 -72 -148 -72q-69 0 -108.5 41.5t-39.5 97.5zM123 138q0 -41 23.5 -62.5t59.5 -21.5q45 0 75 23.5t43 57.5q4 18 4 27v85
q-205 2 -205 -109z" />
    <glyph glyph-name="b" unicode="b" horiz-adv-x="569" 
d="M68 0q4 44 4 124v586h88v-304h2q51 89 165 89q90 0 147.5 -69t56.5 -178q0 -122 -65 -190.5t-152 -68.5q-110 0 -163 90h-2l-4 -79h-77zM164 162q13 -47 48.5 -75t83.5 -28q69 0 108 51t39 135q0 77 -38.5 128.5t-106.5 51.5q-45 0 -82.5 -29.5t-50.5 -78.5
q-5 -27 -5 -37v-86q0 -19 4 -32z" />
    <glyph glyph-name="c" unicode="c" horiz-adv-x="448" 
d="M38 236q0 113 71.5 185.5t187.5 72.5q73 0 123 -25l-20 -68q-44 23 -102 23q-80 0 -125.5 -52.5t-45.5 -130.5q0 -83 47.5 -132t121.5 -49q50 0 107 23l15 -65q-56 -29 -139 -29q-109 0 -175 68t-66 179z" />
    <glyph glyph-name="d" unicode="d" horiz-adv-x="564" 
d="M38 235q-1 117 62 188.5t155 71.5q52 0 90 -21t56 -53h2v289h87v-586q0 -58 4 -124h-78l-4 83h-3q-20 -42 -63 -68t-100 -26q-90 0 -149 68.5t-59 177.5zM127 239q0 -78 37.5 -129t105.5 -51q45 0 80.5 28.5t48.5 77.5q4 16 4 38v84q0 21 -4 38q-10 43 -44.5 71.5
t-82.5 28.5q-67 0 -106 -52.5t-39 -133.5z" />
    <glyph glyph-name="e" unicode="e" horiz-adv-x="501" 
d="M38 233q0 113 62 187.5t166 74.5q56 0 97 -22.5t62 -59t30.5 -73t9.5 -73.5q0 -28 -4 -41h-339q1 -84 47.5 -126t117.5 -42q76 0 135 25l15 -63q-66 -31 -161 -31q-110 0 -174 67t-64 177zM123 289h257q1 53 -27.5 97.5t-94.5 44.5q-61 0 -95 -43.5t-40 -98.5z" />
    <glyph glyph-name="f" unicode="f" horiz-adv-x="292" 
d="M82 0v417h-68v67h68v23q0 116 56 169q46 45 117 45q47 0 77 -15l-16 -67q-26 11 -54 11q-93 0 -93 -140v-26h117v-67h-117v-417h-87z" />
    <glyph glyph-name="g" unicode="g" horiz-adv-x="559" 
d="M101 -102q64 -39 143 -39q72 0 114 41.5t42 128.5v54h-2q-21 -36 -61 -58.5t-93 -22.5q-90 0 -148 67.5t-58 168.5q0 117 65 187t153 70q107 0 151 -84h2l4 73h77q-4 -70 -4 -133v-281q0 -159 -69 -221q-62 -58 -176 -58q-100 0 -162 39zM127 243q0 -75 37.5 -125
t105.5 -50q41 0 74.5 24.5t47.5 66.5q7 21 7 47v87q0 20 -5 40q-13 41 -45 67t-79 26q-63 0 -103 -50t-40 -133z" />
    <glyph glyph-name="h" unicode="h" horiz-adv-x="555" 
d="M73 0v710h87v-302h2q24 40 64 62q43 25 89 25q28 0 55 -9.5t54 -31t43.5 -64.5t16.5 -103v-287h-87v278q0 65 -26.5 104.5t-85.5 39.5q-42 0 -73.5 -25.5t-44.5 -62.5q-7 -18 -7 -42v-292h-87z" />
    <glyph glyph-name="i" unicode="i" horiz-adv-x="234" 
d="M73 0v484h87v-484h-87zM115 566q-24 0 -38.5 15.5t-14.5 38.5t15.5 39t39.5 16t39 -15.5t15 -39.5q1 -23 -14.5 -38.5t-41.5 -15.5z" />
    <glyph glyph-name="j" unicode="j" horiz-adv-x="243" 
d="M85 76v408h87v-441q0 -138 -58 -199q-54 -55 -150 -55l-9 69q68 5 96 37q18 21 26 59.5t8 121.5zM126 566q-23 0 -38 16t-14 38q-1 23 15 39t40 16q23 0 38 -16t15 -39t-15 -38.5t-41 -15.5z" />
    <glyph glyph-name="k" unicode="k" horiz-adv-x="468" 
d="M72 0v710h88v-448h2q20 28 42 55l143 167h106l-187 -199l213 -285h-107l-167 232l-45 -50v-182h-88z" />
    <glyph glyph-name="l" unicode="l" horiz-adv-x="235" 
d="M73 0v710h87v-710h-87z" />
    <glyph glyph-name="m" unicode="m" horiz-adv-x="834" 
d="M73 0v353q0 49 -4 131h77l4 -78h2q52 89 153 89q48 0 84.5 -27t52.5 -70h2q21 39 54 63q46 34 107 34q27 0 52.5 -10t50.5 -31.5t40.5 -65t15.5 -103.5v-285h-86v273q0 149 -105 149q-36 0 -64 -22.5t-40 -55.5q-8 -28 -8 -45v-299h-85v290q0 59 -26.5 95.5t-74.5 36.5
q-39 0 -68.5 -25.5t-41.5 -61.5q-6 -19 -6 -43v-292h-86z" />
    <glyph glyph-name="n" unicode="n" horiz-adv-x="555" 
d="M73 0v353q0 49 -4 131h78l4 -80h3q20 38 62 64.5t98 26.5q28 0 55 -9.5t54 -31t44 -64.5t17 -101v-289h-87v278q0 64 -27 104t-85 40q-42 0 -73.5 -25.5t-44.5 -64.5q-7 -19 -7 -41v-291h-87z" />
    <glyph glyph-name="o" unicode="o" horiz-adv-x="549" 
d="M38 240q0 117 69.5 186t171.5 69q103 0 167.5 -69t64.5 -184q0 -64 -22 -114.5t-58 -79.5t-77.5 -44t-85.5 -15q-99 0 -164.5 68.5t-65.5 182.5zM127 240q0 -77 39 -131.5t108 -54.5t108.5 54.5t39.5 132.5q0 73 -37 130t-111 57t-110.5 -56.5t-36.5 -131.5z" />
    <glyph glyph-name="p" unicode="p" horiz-adv-x="569" 
d="M160 65v-263h-88v524q0 97 -4 158h80l4 -83h2q57 94 172 94q89 0 147 -68.5t58 -177.5q0 -124 -64 -192t-155 -68q-49 0 -88.5 20t-61.5 56h-2zM164 161q12 -47 48.5 -75.5t83.5 -28.5q69 0 108 51.5t39 136.5q0 76 -38.5 127.5t-105.5 51.5q-46 0 -83.5 -29.5
t-49.5 -78.5q-6 -22 -6 -36v-83q0 -21 4 -36z" />
    <glyph glyph-name="q" unicode="q" horiz-adv-x="562" 
d="M38 234q0 126 66.5 193.5t152.5 67.5q107 0 148 -84h2l4 73h83q-4 -82 -4 -133v-549h-87v273h-2q-47 -86 -159 -86q-86 0 -145 68.5t-59 176.5zM127 239q0 -77 37 -128.5t106 -51.5q43 0 77 25t49 70q7 23 7 43v91q0 21 -4 36q-10 43 -44.5 72t-82.5 29q-67 0 -106 -51.5
t-39 -134.5z" />
    <glyph glyph-name="r" unicode="r" horiz-adv-x="327" 
d="M72 0v333q0 90 -4 151h78l3 -96h3q17 49 54 78t81 29q13 0 25 -3v-83q-14 3 -30 3q-46 0 -77.5 -31t-40.5 -82q-4 -16 -4 -41v-258h-88z" />
    <glyph glyph-name="s" unicode="s" horiz-adv-x="396" 
d="M39 23l22 66q55 -34 116 -34q46 0 70 20t24 52q0 31 -20 50.5t-70 37.5q-128 47 -128 138q0 60 45.5 101t121.5 41q69 0 118 -30l-21 -64q-50 29 -99 29q-38 0 -59.5 -19.5t-21.5 -47.5q0 -29 20.5 -46t71.5 -37q65 -24 96 -58t31 -87q0 -65 -48 -105.5t-133 -40.5
q-78 0 -136 34z" />
    <glyph glyph-name="t" unicode="t" horiz-adv-x="331" 
d="M126 26q-34 40 -34 127v264h-75v67h75v116l87 23v-139h126v-67h-126v-261q0 -94 66 -94q30 0 51 7l4 -67q-32 -13 -78 -13q-64 0 -96 37z" />
    <glyph glyph-name="u" unicode="u" horiz-adv-x="550" 
d="M70 201v283h87v-268q0 -155 107 -155q44 0 75.5 24.5t42.5 55.5q8 22 8 46v297h87v-352q0 -54 4 -132h-77l-5 79h-2q-54 -90 -161 -90q-76 0 -121 51t-45 161z" />
    <glyph glyph-name="v" unicode="v" horiz-adv-x="481" 
d="M197 0l-184 484h93l96 -272q16 -45 40 -125h2q11 40 40 125l95 272h92l-190 -484h-84z" />
    <glyph glyph-name="w" unicode="w" horiz-adv-x="736" 
d="M164 0l-146 484h89l65 -246q22 -84 36 -155h3q8 41 43 154l79 247h74l75 -243q27 -86 43 -158h3q10 61 37 158l69 243h87l-157 -484h-79l-74 231q-26 78 -43 159h-2q-14 -69 -44 -160l-78 -230h-80z" />
    <glyph glyph-name="x" unicode="x" horiz-adv-x="464" 
d="M8 0l172 247l-164 237h98l69 -104q28 -43 49 -79h2q2 4 49 80l67 103h96l-164 -234l169 -250h-99l-72 108q-21 31 -52 85h-2q-10 -18 -52 -85l-69 -108h-97z" />
    <glyph glyph-name="y" unicode="y" horiz-adv-x="471" 
d="M114 -105q47 41 73 99q7 16 7 21q0 8 -7 22l-178 447h96l106 -286q19 -54 31 -99h2q2 8 13 44t18 56l96 285h93l-132 -345q-49 -129 -85.5 -197t-80.5 -106q-54 -47 -108 -57l-22 74q39 12 78 42z" />
    <glyph glyph-name="z" unicode="z" horiz-adv-x="427" 
d="M18 0v51l219 285q10 12 63 75v2h-262v71h369l-1 -55l-216 -282q-46 -58 -62 -75v-2h283v-70h-393z" />
    <glyph glyph-name="braceleft" unicode="{" horiz-adv-x="316" 
d="M93 2q0 45 8 99q8 56 8 87q0 74 -84 74v51q84 0 84 75q0 32 -8 88t-8 101q0 66 39 98.5t106 32.5h21v-55h-18q-79 -1 -79 -86q0 -47 7 -89q8 -64 8 -80q0 -90 -73 -109v-2q73 -18 73 -109q0 -17 -8 -81q-7 -44 -7 -89q0 -43 19 -65t60 -23h18v-55h-21q-66 0 -105.5 33
t-39.5 104z" />
    <glyph glyph-name="bar" unicode="|" horiz-adv-x="239" 
d="M86 -250v1000h67v-1000h-67z" />
    <glyph glyph-name="braceright" unicode="}" horiz-adv-x="315" 
d="M57 -80h18q79 1 79 86q0 47 -7 89q-8 48 -8 80q0 89 72 109v2q-72 18 -72 109q0 33 8 81q7 44 7 89q0 85 -79 88h-18v55h21q66 0 105.5 -33t39.5 -104q0 -50 -9 -99q-7 -65 -7 -87q0 -74 83 -74v-51q-83 0 -83 -75q0 -23 7 -88q9 -50 9 -101q0 -66 -39.5 -98.5
t-105.5 -32.5h-21v55z" />
    <glyph glyph-name="asciitilde" unicode="~" horiz-adv-x="596" 
d="M48 211q-2 72 32 111t88 39q30 0 57.5 -9.5t84.5 -35.5q86 -42 124 -42q52 0 54 84h60q3 -78 -30 -115t-86 -37q-50 0 -144 45q-7 3 -23 11t-22.5 11t-19 8.5t-20 7.5t-17.5 4t-18 2q-57 0 -60 -84h-60z" />
    <glyph glyph-name="uni00A0" unicode="&#xa0;" horiz-adv-x="212" 
 />
    <glyph glyph-name="exclamdown" unicode="&#xa1;" horiz-adv-x="248" 
d="M67 -195l14 477h68l15 -477h-97zM115 363q-26 0 -42.5 18t-16.5 44q0 27 17 45t42 18q27 0 43 -18t16 -45q0 -26 -16.5 -44t-42.5 -18z" />
    <glyph glyph-name="cent" unicode="&#xa2;" horiz-adv-x="513" 
d="M124 157q-58 63 -58 169q0 97 55 164.5t146 82.5v100h63v-98q59 0 109 -25l-20 -67q-44 25 -104 25q-72 0 -116 -51.5t-44 -127.5q0 -81 44 -128t112 -47q59 0 114 25l15 -63q-41 -26 -110 -30v-100h-63v101q-89 11 -143 70z" />
    <glyph glyph-name="sterling" unicode="&#xa3;" horiz-adv-x="513" 
d="M55 0v49q52 27 83 73.5t31 101.5q0 35 -4 70h-103v64h93q-11 66 -11 108q0 88 54 141.5t137 53.5q71 0 109 -25l-19 -66q-36 20 -89 20q-56 0 -83 -34.5t-27 -90.5q0 -52 12 -107h144v-64h-136q6 -72 -4 -111q-16 -63 -69 -108v-2h298v-73h-416z" />
    <glyph glyph-name="currency" unicode="&#xa4;" horiz-adv-x="513" 
d="M73 94l-43 44l72 71q-37 48 -37 119q0 74 39 124l-75 70l44 46l68 -75q48 41 115 41q70 0 115 -40l72 74l44 -45l-78 -71q35 -50 35 -117q0 -73 -35 -124l74 -73l-43 -44l-69 76q-45 -42 -117 -42q-71 0 -114 40zM254 191q48 0 83.5 35.5t35.5 107.5q0 55 -32 96t-86 41
t-86.5 -40.5t-32.5 -100.5q0 -67 36.5 -103t81.5 -36z" />
    <glyph glyph-name="yen" unicode="&#xa5;" horiz-adv-x="513" 
d="M54 175v50h155v72h-155v50h130l-168 303h94l103 -206q25 -52 40 -91h4q19 50 40 93l108 204h92l-179 -303h129v-50h-156v-72h156v-50h-156v-175h-82v175h-155z" />
    <glyph glyph-name="brokenbar" unicode="&#xa6;" horiz-adv-x="239" 
d="M86 324v350h67v-350h-67zM86 174h67v-350h-67v350z" />
    <glyph glyph-name="section" unicode="&#xa7;" horiz-adv-x="519" 
d="M236 256q85 -30 115 -48q37 28 37 77q0 60 -89 93q-99 35 -124 50q-45 -32 -45 -76q0 -29 24 -52t82 -44zM87 -21l23 58q60 -41 133 -41q50 0 81 21.5t31 60.5q0 34 -26.5 56.5t-95.5 47.5q-88 30 -131.5 64.5t-43.5 93.5q0 68 74 117q-37 30 -37 84q0 64 53 103t132 39
t138 -33l-22 -57q-50 32 -119 32q-45 0 -74.5 -20.5t-29.5 -53.5q0 -35 29 -54.5t95 -41.5q80 -26 121.5 -60.5t41.5 -97.5q0 -72 -65 -121q39 -32 39 -89q0 -73 -56.5 -111t-133.5 -38q-99 0 -157 41z" />
    <glyph glyph-name="dieresis" unicode="&#xa8;" horiz-adv-x="300" 
d="M58 570q-22 0 -36 15t-14 36t14.5 36t35.5 15t35 -15t14 -36t-14 -36t-35 -15zM242 570q-21 0 -35.5 15t-14.5 36t15 36t36 15t35 -15t14 -36t-14 -36t-36 -15z" />
    <glyph glyph-name="copyright" unicode="&#xa9;" horiz-adv-x="677" 
d="M340 30q-128 0 -216 90.5t-88 219.5q0 128 88 218t216 90q127 0 214 -90t87 -218q0 -130 -87 -220t-214 -90zM86 337q0 -112 73 -189t181 -77q106 0 178.5 77.5t72.5 191.5q0 112 -72.5 189t-178.5 77q-108 0 -181 -77.5t-73 -191.5zM173 334q0 83 56 134.5t135 51.5
q36 0 67.5 -8.5t42.5 -18.5l-12 -39q-43 23 -97 23q-68 0 -104 -38.5t-36 -101.5q0 -61 37 -101t103 -40q62 0 102 26l12 -38q-47 -31 -123 -31q-85 0 -134 51.5t-49 129.5z" />
    <glyph glyph-name="ordfeminine" unicode="&#xaa;" horiz-adv-x="346" 
d="M137 261q-49 0 -76.5 27.5t-27.5 68.5q0 54 53 84.5t148 28.5v10q0 11 -4.5 23.5t-22.5 25.5t-48 13q-51 0 -85 -27l-16 43q46 33 114 33q127 0 127 -141v-107q0 -43 6 -77h-60l-6 42h-2q-37 -47 -100 -47zM157 309q44 0 67 36q11 14 11 27v54q-136 4 -136 -66
q0 -24 17 -37.5t41 -13.5z" />
    <glyph glyph-name="guillemotleft" unicode="&#xab;" horiz-adv-x="467" 
d="M189 68l-141 184l141 184h71l-141 -184l142 -184h-72zM212 252l141 184h71l-141 -184l141 -184h-71z" />
    <glyph glyph-name="logicalnot" unicode="&#xac;" horiz-adv-x="596" 
d="M40 339v60h516v-278h-64v218h-452z" />
    <glyph glyph-name="uni00AD" unicode="&#xad;" horiz-adv-x="304" 
d="M30 238v65h244v-65h-244z" />
    <glyph glyph-name="registered" unicode="&#xae;" horiz-adv-x="419" 
d="M146 433v164q23 5 63 5q38 0 57 -12q16 -12 16 -36q0 -27 -34 -38v-2q22 -7 29 -41q6 -30 13 -40h-41q-6 7 -13 40q-6 26 -34 26h-18v-66h-38zM185 526h18q38 0 38 24q0 25 -35 25q-13 0 -21 -2v-47zM210 354q-71 0 -120 47.5t-49 117.5q0 68 49.5 116t119.5 48
t118.5 -48t48.5 -116q0 -70 -48 -117.5t-119 -47.5zM211 388q54 0 89.5 37.5t35.5 92.5t-36 93t-90 38t-90.5 -38t-36.5 -92q0 -55 37 -93t91 -38z" />
    <glyph glyph-name="macron" unicode="&#xaf;" horiz-adv-x="300" 
d="M28 587v61h245v-61h-245z" />
    <glyph glyph-name="degree" unicode="&#xb0;" horiz-adv-x="317" 
d="M160 421q-57 0 -94 38t-37 91q0 58 38.5 97t94.5 39q59 0 95.5 -38.5t36.5 -91.5q0 -59 -40 -97t-94 -38zM161 468q34 0 56.5 24.5t22.5 61.5q0 33 -20 59t-59 26q-37 0 -57.5 -26.5t-20.5 -61.5t22.5 -59t55.5 -24z" />
    <glyph glyph-name="plusminus" unicode="&#xb1;" horiz-adv-x="596" 
d="M266 117v200h-226v60h226v195h64v-195h226v-60h-226v-200h-64zM40 0v59h516v-59h-516z" />
    <glyph glyph-name="twosuperior" unicode="&#xb2;" horiz-adv-x="310" 
d="M12 442v37l63 58q68 63 96.5 100.5t28.5 73.5q0 31 -19 50.5t-56 19.5q-41 0 -84 -31l-21 45q47 42 122 42q65 0 98.5 -34t33.5 -79q0 -51 -32.5 -94.5t-99.5 -102.5l-31 -28v-2h171v-55h-270z" />
    <glyph glyph-name="threesuperior" unicode="&#xb3;" horiz-adv-x="304" 
d="M124 437q-75 0 -115 27l17 50q44 -26 93 -26q43 0 66 21t22 47q0 35 -31 52.5t-75 17.5h-27v46h28q33 0 61.5 16t29.5 47q0 22 -15.5 36.5t-47.5 14.5q-48 0 -85 -27l-18 47q52 31 116 31q61 0 91.5 -27t30.5 -67q0 -30 -20.5 -54t-56.5 -36v-2q41 -6 67 -33t26 -64
q0 -49 -42 -83t-115 -34z" />
    <glyph glyph-name="acute" unicode="&#xb4;" horiz-adv-x="300" 
d="M97 550l96 143h97l-121 -143h-72z" />
    <glyph glyph-name="uni00B5" unicode="&#xb5;" horiz-adv-x="553" 
d="M72 -20v504h88v-287q0 -60 27 -98t82 -38q41 0 72 24t44 57q7 18 7 45v297h88v-351q0 -41 10 -58t36 -18l-7 -64q-13 -4 -30 -4q-76 0 -86 86h-4q-18 -34 -53.5 -59t-84.5 -25q-76 0 -106 53v-60q0 -138 10 -182h-78q-15 45 -15 178z" />
    <glyph glyph-name="paragraph" unicode="&#xb6;" horiz-adv-x="512" 
d="M231 -49v313h-8q-68 0 -128.5 50.5t-61.5 139.5q0 43 13 79.5t42 70t85.5 53t135.5 19.5q70 0 117 -9v-716h-62v664h-71v-664h-62z" />
    <glyph glyph-name="periodcentered" unicode="&#xb7;" horiz-adv-x="207" 
d="M103 200q-26 0 -42.5 18t-16.5 45t16.5 45t43.5 18q26 0 42 -17.5t16 -45.5q0 -27 -16 -45t-43 -18z" />
    <glyph glyph-name="cedilla" unicode="&#xb8;" horiz-adv-x="300" 
d="M90 -84l46 86h54l-31 -52q29 -6 49.5 -25t20.5 -48q0 -43 -29.5 -63t-74.5 -20q-41 0 -69 17l14 45q22 -13 55 -13q43 0 43 31q-1 34 -78 42z" />
    <glyph glyph-name="onesuperior" unicode="&#xb9;" horiz-adv-x="244" 
d="M107 442v329h-1l-73 -35l-11 52l94 44h60v-390h-69z" />
    <glyph glyph-name="ordmasculine" unicode="&#xba;" horiz-adv-x="355" 
d="M177 261q-68 0 -113.5 45t-45.5 117q0 76 47 122t114 46q72 0 115 -45.5t43 -117.5q-1 -81 -48.5 -124t-111.5 -43zM177 311q41 0 67 32t26 83q0 44 -24 79.5t-69 35.5t-68.5 -35.5t-23.5 -81.5q0 -48 27.5 -80.5t64.5 -32.5z" />
    <glyph glyph-name="guillemotright" unicode="&#xbb;" horiz-adv-x="467" 
d="M43 68l141 184l-141 184h71l141 -184l-141 -184h-71zM206 68l142 184l-142 184h70l142 -184l-141 -184h-71z" />
    <glyph glyph-name="onequarter" unicode="&#xbc;" horiz-adv-x="759" 
d="M128 266v329h-2l-72 -35l-11 52l93 44h61v-390h-69zM406 102v41l178 247h79v-238h56v-50h-56v-102h-67v102h-190zM477 152h119v116q0 3 3 63h-2q-30 -53 -34 -59l-87 -118zM138 -11l379 672h57l-380 -672h-56z" />
    <glyph glyph-name="onehalf" unicode="&#xbd;" horiz-adv-x="759" 
d="M114 266v329h-2l-73 -35l-11 52l94 44h61v-390h-69zM440 0v37l63 58q68 63 96.5 100.5t28.5 73.5q0 31 -19 50.5t-56 19.5q-40 0 -85 -31l-20 45q47 42 122 42q65 0 98.5 -34t33.5 -79q0 -51 -32.5 -94.5t-100.5 -102.5l-30 -28v-2h170v-55h-269zM118 -11l380 672h56
l-380 -672h-56z" />
    <glyph glyph-name="threequarters" unicode="&#xbe;" horiz-adv-x="759" 
d="M29 288l18 50q44 -26 93 -26q43 0 65.5 20.5t22.5 47.5q0 35 -31 52.5t-75 17.5h-27v46h28q33 0 61.5 16t29.5 47q0 22 -15.5 36.5t-47.5 14.5q-48 0 -85 -27l-18 47q50 31 116 31q61 0 91.5 -27t30.5 -67q0 -30 -20.5 -54t-56.5 -36v-2q41 -6 67 -33t26 -64
q0 -49 -42 -83t-115 -34q-75 0 -116 27zM417 102v41l178 247h79v-238h56v-50h-56v-102h-67v102h-190zM488 152h119v116q0 33 3 63h-3q-18 -34 -33 -59l-87 -118zM174 -11l380 672h56l-379 -672h-57z" />
    <glyph glyph-name="questiondown" unicode="&#xbf;" horiz-adv-x="411" 
d="M232 363q-27 0 -43.5 17.5t-16.5 44.5t17 45t43 18t42.5 -18t16.5 -45t-16.5 -44.5t-42.5 -17.5zM50 -62q0 46 21.5 85t64.5 89q61 74 57 148l-1 25h78l2 -26q10 -87 -62 -173q-70 -82 -70 -137q0 -39 24.5 -62t70.5 -24q60 0 102 31l23 -63q-57 -40 -143 -40
q-81 0 -124 42.5t-43 104.5z" />
    <glyph glyph-name="Agrave" unicode="&#xc0;" horiz-adv-x="612" 
d="M25 0l229 674h105l230 -674h-93l-72 212h-239l-69 -212h-91zM203 280h203l-66 194q-14 41 -35 123h-3q-14 -62 -33 -122zM284 711l-122 115h106l95 -115h-79z" />
    <glyph glyph-name="Aacute" unicode="&#xc1;" horiz-adv-x="612" 
d="M25 0l229 674h105l230 -674h-93l-72 212h-239l-69 -212h-91zM203 280h203l-66 194q-14 41 -35 123h-3q-14 -62 -33 -122zM252 710l94 116h105l-120 -116h-79z" />
    <glyph glyph-name="Acircumflex" unicode="&#xc2;" horiz-adv-x="612" 
d="M25 0l229 674h105l230 -674h-93l-72 212h-239l-69 -212h-91zM203 280h203l-66 194q-14 41 -35 123h-3q-14 -62 -33 -122zM171 710l104 114h69l106 -114h-76l-64 69h-2l-63 -69h-74z" />
    <glyph glyph-name="Atilde" unicode="&#xc3;" horiz-adv-x="612" 
d="M25 0l229 674h105l230 -674h-93l-72 212h-239l-69 -212h-91zM203 280h203l-66 194q-14 41 -35 123h-3q-14 -62 -33 -122zM172 717q-1 51 19.5 79.5t55.5 28.5q27 0 71 -23q32 -18 48 -18q13 0 20 9.5t9 34.5h53q1 -106 -77 -106q-26 0 -68 22q-35 18 -49 18
q-26 0 -28 -45h-54z" />
    <glyph glyph-name="Adieresis" unicode="&#xc4;" horiz-adv-x="612" 
d="M25 0l229 674h105l230 -674h-93l-72 212h-239l-69 -212h-91zM203 280h203l-66 194q-14 41 -35 123h-3q-14 -62 -33 -122zM217 720q-22 0 -36.5 15t-14.5 36t15 36t36 15t34.5 -15t13.5 -36q0 -22 -13.5 -36.5t-34.5 -14.5zM402 720q-22 0 -36 15t-14 36t14.5 36t35.5 15
t35.5 -15t14.5 -36t-14 -36t-36 -15z" />
    <glyph glyph-name="Aring" unicode="&#xc5;" horiz-adv-x="612" 
d="M25 0l229 674h105l230 -674h-93l-72 212h-239l-69 -212h-91zM203 280h203l-66 194q-14 41 -35 123h-3q-14 -62 -33 -122zM307 700q-47 0 -75.5 25.5t-28.5 63.5q0 37 28 63t75 26q46 0 74 -25t28 -63q0 -39 -28 -64.5t-73 -25.5zM306 738q23 0 36.5 15t13.5 36
q0 20 -13.5 35.5t-36.5 15.5t-36.5 -15.5t-13.5 -34.5q0 -20 13.5 -36t36.5 -16z" />
    <glyph glyph-name="AE" unicode="&#xc6;" horiz-adv-x="787" 
d="M-1 0l308 674h422v-72h-286l25 -216h251v-72h-241l31 -242h247l-1 -72h-322l-29 237h-207l-108 -237h-90zM225 308h169l-22 194q-11 84 -12 109h-4q-17 -45 -43 -106z" />
    <glyph glyph-name="Ccedilla" unicode="&#xc7;" horiz-adv-x="580" 
d="M529 91l18 -70q-68 -32 -178 -32l-23 -39q30 -6 50 -26t20 -49q0 -41 -30 -61t-73 -20q-40 0 -71 17l14 45q24 -13 56 -13q42 0 42 30q0 35 -77 43l41 76q-127 16 -204.5 104t-77.5 235q0 158 97.5 255.5t254.5 97.5q107 0 160 -29l-21 -71q-58 28 -136 28
q-120 0 -191.5 -73.5t-71.5 -204.5q0 -125 68.5 -198t190.5 -73q84 0 142 28z" />
    <glyph glyph-name="Egrave" unicode="&#xc8;" horiz-adv-x="491" 
d="M75 0v674h365v-72h-277v-214h261v-72h-261v-244h292v-72h-380zM242 711l-121 115h106l95 -115h-80z" />
    <glyph glyph-name="Eacute" unicode="&#xc9;" horiz-adv-x="491" 
d="M75 0v674h365v-72h-277v-214h261v-72h-261v-244h292v-72h-380zM206 710l94 116h105l-120 -116h-79z" />
    <glyph glyph-name="Ecircumflex" unicode="&#xca;" horiz-adv-x="491" 
d="M75 0v674h365v-72h-277v-214h261v-72h-261v-244h292v-72h-380zM118 710l104 114h69l106 -114h-77l-63 69h-2l-64 -69h-73z" />
    <glyph glyph-name="Edieresis" unicode="&#xcb;" horiz-adv-x="491" 
d="M75 0v674h365v-72h-277v-214h261v-72h-261v-244h292v-72h-380zM162 722q-22 0 -36 15t-14 36t15 36t36 15q20 0 34 -15t14 -36t-14 -36t-35 -15zM347 722q-22 0 -36 15t-14 36q0 20 15 35.5t36 15.5t35 -15t14 -36t-14 -36t-36 -15z" />
    <glyph glyph-name="Igrave" unicode="&#xcc;" horiz-adv-x="239" 
d="M75 0v674h88v-674h-88zM98 711l-122 115h107l94 -115h-79z" />
    <glyph glyph-name="Iacute" unicode="&#xcd;" horiz-adv-x="239" 
d="M75 0v674h88v-674h-88zM64 710l94 116h105l-120 -116h-79z" />
    <glyph glyph-name="Icircumflex" unicode="&#xce;" horiz-adv-x="239" 
d="M75 0v674h88v-674h-88zM-20 710l104 114h69l106 -114h-76l-64 69h-2l-63 -69h-74z" />
    <glyph glyph-name="Idieresis" unicode="&#xcf;" horiz-adv-x="239" 
d="M75 0v674h88v-674h-88zM27 722q-22 0 -36 15t-14 36t15 36t36 15q20 0 34 -15t14 -36t-14 -36t-35 -15zM212 722q-22 0 -36 15t-14 36t15 36t36 15t35 -15t14 -36t-14 -36t-36 -15z" />
    <glyph glyph-name="Eth" unicode="&#xd0;" horiz-adv-x="671" 
d="M80 0v307h-82v70h82v290q94 14 185 14q185 0 274 -84q95 -85 95 -244q0 -166 -97 -263q-100 -98 -298 -98q-87 0 -159 8zM168 67q29 -4 88 -4q140 0 213.5 74.5t73.5 213.5q0 124 -69 192.5t-204 68.5q-50 0 -102 -9v-226h180v-70h-180v-240z" />
    <glyph glyph-name="Ntilde" unicode="&#xd1;" horiz-adv-x="658" 
d="M75 0v674h96l216 -341q72 -116 121 -220l2 2q-10 113 -10 276v283h82v-674h-88l-214 342q-87 139 -126 225l-3 -1q7 -119 7 -278v-288h-83zM197 717q-1 51 19.5 79.5t55.5 28.5q27 0 71 -23q32 -18 48 -18q13 0 20 9.5t9 34.5h52q3 -106 -76 -106q-26 0 -68 22
q-34 18 -49 18q-26 0 -28 -45h-54z" />
    <glyph glyph-name="Ograve" unicode="&#xd2;" horiz-adv-x="689" 
d="M339 -11q-136 0 -219.5 96t-83.5 248q0 155 88 253.5t227 98.5q140 0 220.5 -98t80.5 -249q0 -162 -90 -255.5t-223 -93.5zM344 60q102 0 159 79.5t57 196.5q0 114 -55.5 196t-159.5 82q-101 0 -159 -80t-58 -198q0 -119 58 -197.5t158 -78.5zM323 713l-122 116h106
l95 -116h-79z" />
    <glyph glyph-name="Oacute" unicode="&#xd3;" horiz-adv-x="689" 
d="M339 -11q-136 0 -219.5 96t-83.5 248q0 155 88 253.5t227 98.5q140 0 220.5 -98t80.5 -249q0 -162 -90 -255.5t-223 -93.5zM344 60q102 0 159 79.5t57 196.5q0 114 -55.5 196t-159.5 82q-101 0 -159 -80t-58 -198q0 -119 58 -197.5t158 -78.5zM289 713l94 116h104
l-120 -116h-78z" />
    <glyph glyph-name="Ocircumflex" unicode="&#xd4;" horiz-adv-x="689" 
d="M339 -11q-136 0 -219.5 96t-83.5 248q0 155 88 253.5t227 98.5q140 0 220.5 -98t80.5 -249q0 -162 -90 -255.5t-223 -93.5zM344 60q102 0 159 79.5t57 196.5q0 114 -55.5 196t-159.5 82q-101 0 -159 -80t-58 -198q0 -119 58 -197.5t158 -78.5zM205 713l104 114h68
l107 -114h-77l-63 69h-2l-64 -69h-73z" />
    <glyph glyph-name="Otilde" unicode="&#xd5;" horiz-adv-x="689" 
d="M339 -11q-136 0 -219.5 96t-83.5 248q0 155 88 253.5t227 98.5q140 0 220.5 -98t80.5 -249q0 -162 -90 -255.5t-223 -93.5zM344 60q102 0 159 79.5t57 196.5q0 114 -55.5 196t-159.5 82q-101 0 -159 -80t-58 -198q0 -119 58 -197.5t158 -78.5zM207 719q-1 51 19.5 79.5
t55.5 28.5q27 0 71 -23q36 -18 48 -18q25 0 29 44h52q3 -106 -76 -106q-26 0 -68 22q-34 18 -49 18q-26 0 -29 -45h-53z" />
    <glyph glyph-name="Odieresis" unicode="&#xd6;" horiz-adv-x="689" 
d="M339 -11q-136 0 -219.5 96t-83.5 248q0 155 88 253.5t227 98.5q140 0 220.5 -98t80.5 -249q0 -162 -90 -255.5t-223 -93.5zM344 60q102 0 159 79.5t57 196.5q0 114 -55.5 196t-159.5 82q-101 0 -159 -80t-58 -198q0 -119 58 -197.5t158 -78.5zM252 722q-22 0 -36.5 15
t-14.5 36t15 36t36 15t34.5 -15t13.5 -36q0 -22 -13.5 -36.5t-34.5 -14.5zM436 722q-21 0 -35 15t-14 36t14.5 36t35.5 15t35 -15t14 -36t-14 -36t-36 -15z" />
    <glyph glyph-name="multiply" unicode="&#xd7;" horiz-adv-x="596" 
d="M40 44l214 219l-214 219l43 44l215 -219l214 219l44 -44l-214 -219l213 -219l-43 -44l-214 218l-214 -218z" />
    <glyph glyph-name="Oslash" unicode="&#xd8;" horiz-adv-x="689" 
d="M66 4l59 80q-89 95 -89 250q0 157 88 254t223 97q94 0 168 -53l53 71l52 -37l-55 -76q87 -93 87 -247q0 -168 -89 -261t-218 -93q-96 0 -170 54l-60 -78zM174 158h2l296 410q-55 47 -127 47q-104 0 -162 -81.5t-58 -195.5q0 -94 49 -180zM218 107q51 -48 126 -48
q101 0 160 81t59 200q0 99 -47 174l-3 1z" />
    <glyph glyph-name="Ugrave" unicode="&#xd9;" horiz-adv-x="647" 
d="M75 276v398h88v-400q0 -108 42.5 -161t114.5 -53q77 0 120.5 53t43.5 161v400h87v-394q0 -148 -69 -219.5t-185 -71.5q-111 0 -176.5 69t-65.5 218zM306 711l-122 115h106l95 -115h-79z" />
    <glyph glyph-name="Uacute" unicode="&#xda;" horiz-adv-x="647" 
d="M75 276v398h88v-400q0 -108 42.5 -161t114.5 -53q77 0 120.5 53t43.5 161v400h87v-394q0 -148 -69 -219.5t-185 -71.5q-111 0 -176.5 69t-65.5 218zM271 710l94 116h105l-120 -116h-79z" />
    <glyph glyph-name="Ucircumflex" unicode="&#xdb;" horiz-adv-x="647" 
d="M75 276v398h88v-400q0 -108 42.5 -161t114.5 -53q77 0 120.5 53t43.5 161v400h87v-394q0 -148 -69 -219.5t-185 -71.5q-111 0 -176.5 69t-65.5 218zM190 710l104 114h69l106 -114h-76l-64 69h-2l-63 -69h-74z" />
    <glyph glyph-name="Udieresis" unicode="&#xdc;" horiz-adv-x="647" 
d="M75 276v398h88v-400q0 -108 42.5 -161t114.5 -53q77 0 120.5 53t43.5 161v400h87v-394q0 -148 -69 -219.5t-185 -71.5q-111 0 -176.5 69t-65.5 218zM233 722q-22 0 -36.5 15t-14.5 36t15 36t36 15t34.5 -15t13.5 -36q0 -22 -13.5 -36.5t-34.5 -14.5zM418 722
q-22 0 -36 15t-14 36t14.5 36t35.5 15t35.5 -15t14.5 -36t-14 -36t-36 -15z" />
    <glyph glyph-name="Yacute" unicode="&#xdd;" horiz-adv-x="541" 
d="M226 0v285l-213 389h100l94 -186q40 -78 67 -139h2q12 28 68 139l97 186h98l-225 -387v-287h-88zM224 704l94 117h105l-120 -117h-79z" />
    <glyph glyph-name="Thorn" unicode="&#xde;" horiz-adv-x="531" 
d="M75 0v674h87v-142q45 5 96 5q115 0 178 -55q55 -50 55 -131q0 -103 -70 -158t-183 -55q-51 0 -76 5v-143h-87zM162 214q26 -6 75 -6q80 0 123.5 36t43.5 98q0 63 -41.5 94.5t-112.5 31.5q-48 0 -88 -5v-249z" />
    <glyph glyph-name="germandbls" unicode="&#xdf;" horiz-adv-x="548" 
d="M73 0v452q0 152 71 217q56 52 147 52q75 0 126.5 -45t51.5 -124q0 -50 -24 -82q-72 -28 -72 -81q0 -17 8 -32.5t15.5 -24t28.5 -30.5q26 -26 40 -42.5t27.5 -47t13.5 -64.5q0 -71 -48.5 -115t-130.5 -44q-65 0 -106 20l16 68q40 -20 84 -20q46 0 72 24t26 60
q0 52 -54 103q-26 24 -40.5 40t-27 41.5t-12.5 51.5q0 76 91 123q9 18 9 43q0 51 -28.5 80t-75.5 29q-121 0 -121 -194v-458h-87z" />
    <glyph glyph-name="agrave" unicode="&#xe0;" horiz-adv-x="482" 
d="M35 128q0 88 75.5 134t215.5 45v11q0 112 -110 112q-70 0 -126 -36l-21 58q68 43 160 43q184 0 184 -199v-180q0 -70 7 -116h-79l-8 61h-2q-53 -72 -148 -72q-69 0 -108.5 41.5t-39.5 97.5zM123 138q0 -41 23.5 -62.5t59.5 -21.5q45 0 75 23.5t43 57.5q4 18 4 27v85
q-205 2 -205 -109zM211 550l-120 143h96l95 -143h-71z" />
    <glyph glyph-name="aacute" unicode="&#xe1;" horiz-adv-x="482" 
d="M35 128q0 88 75.5 134t215.5 45v11q0 112 -110 112q-70 0 -126 -36l-21 58q68 43 160 43q184 0 184 -199v-180q0 -70 7 -116h-79l-8 61h-2q-53 -72 -148 -72q-69 0 -108.5 41.5t-39.5 97.5zM123 138q0 -41 23.5 -62.5t59.5 -21.5q45 0 75 23.5t43 57.5q4 18 4 27v85
q-205 2 -205 -109zM184 550l96 143h96l-121 -143h-71z" />
    <glyph glyph-name="acircumflex" unicode="&#xe2;" horiz-adv-x="482" 
d="M35 128q0 88 75.5 134t215.5 45v11q0 112 -110 112q-70 0 -126 -36l-21 58q68 43 160 43q184 0 184 -199v-180q0 -70 7 -116h-79l-8 61h-2q-53 -72 -148 -72q-69 0 -108.5 41.5t-39.5 97.5zM123 138q0 -41 23.5 -62.5t59.5 -21.5q45 0 75 23.5t43 57.5q4 18 4 27v85
q-205 2 -205 -109zM97 552l105 139h66l107 -139h-70l-69 90h-2l-68 -90h-69z" />
    <glyph glyph-name="atilde" unicode="&#xe3;" horiz-adv-x="482" 
d="M35 128q0 88 75.5 134t215.5 45v11q0 112 -110 112q-70 0 -126 -36l-21 58q68 43 160 43q184 0 184 -199v-180q0 -70 7 -116h-79l-8 61h-2q-53 -72 -148 -72q-69 0 -108.5 41.5t-39.5 97.5zM123 138q0 -41 23.5 -62.5t59.5 -21.5q45 0 75 23.5t43 57.5q4 18 4 27v85
q-205 2 -205 -109zM99 570q-1 51 19.5 77t56.5 26q22 0 70 -23q5 -2 16 -8.5t18 -9.5t13 -3q15 0 23.5 9t10.5 37h51q0 -106 -77 -106q-25 0 -70 25q-33 19 -49 19q-29 0 -31 -43h-51z" />
    <glyph glyph-name="adieresis" unicode="&#xe4;" horiz-adv-x="482" 
d="M35 128q0 88 75.5 134t215.5 45v11q0 112 -110 112q-70 0 -126 -36l-21 58q68 43 160 43q184 0 184 -199v-180q0 -70 7 -116h-79l-8 61h-2q-53 -72 -148 -72q-69 0 -108.5 41.5t-39.5 97.5zM123 138q0 -41 23.5 -62.5t59.5 -21.5q45 0 75 23.5t43 57.5q4 18 4 27v85
q-205 2 -205 -109zM149 570q-22 0 -36 15t-14 36t14.5 36t35.5 15t35 -15t14 -36t-14 -36t-35 -15zM333 570q-21 0 -35.5 15t-14.5 36t15 36t36 15t35 -15t14 -36t-14 -36t-36 -15z" />
    <glyph glyph-name="aring" unicode="&#xe5;" horiz-adv-x="482" 
d="M35 128q0 88 75.5 134t215.5 45v11q0 112 -110 112q-70 0 -126 -36l-21 58q68 43 160 43q184 0 184 -199v-180q0 -70 7 -116h-79l-8 61h-2q-53 -72 -148 -72q-69 0 -108.5 41.5t-39.5 97.5zM123 138q0 -41 23.5 -62.5t59.5 -21.5q45 0 75 23.5t43 57.5q4 18 4 27v85
q-205 2 -205 -109zM240 537q-46 0 -75 26.5t-29 66.5q0 39 28.5 66.5t75.5 27.5q46 0 74 -26.5t28 -66.5t-28.5 -67t-73.5 -27zM239 577q24 0 37.5 15.5t13.5 37.5q0 21 -13.5 37.5t-37.5 16.5q-23 0 -36 -16t-13 -36q0 -22 13 -38.5t36 -16.5z" />
    <glyph glyph-name="ae" unicode="&#xe6;" horiz-adv-x="773" 
d="M36 127q0 84 76 130t215 45v20q0 12 -4 27.5t-14.5 35t-35 32.5t-58.5 13q-71 0 -125 -37l-20 58q70 44 151 44q123 0 156 -102h2q53 102 169 102q42 0 76 -15.5t54.5 -39.5t34.5 -55t19 -59t5 -54q0 -12 -3 -39h-325q-1 -84 41.5 -130t113.5 -46q75 0 131 28l16 -63
q-61 -33 -158 -33q-64 0 -113.5 28.5t-70.5 79.5h-3q-23 -51 -70 -79.5t-109 -28.5q-72 0 -111.5 40.5t-39.5 97.5zM122 134q0 -37 24.5 -58.5t59.5 -21.5q45 0 76 23.5t42 59.5q5 14 5 35v71q-207 4 -207 -109zM410 295h242q3 47 -25.5 92t-87.5 45q-60 0 -93.5 -43.5
t-35.5 -93.5z" />
    <glyph glyph-name="ccedilla" unicode="&#xe7;" horiz-adv-x="448" 
d="M403 83l15 -65q-53 -26 -129 -29l-23 -39q29 -6 49.5 -25t20.5 -48q0 -43 -29.5 -63t-74.5 -20q-41 0 -69 17l14 45q22 -13 55 -13q43 0 43 31q-1 34 -78 42l41 76q-92 13 -146 78.5t-54 165.5q0 113 71.5 185.5t187.5 72.5q73 0 123 -25l-20 -68q-44 23 -102 23
q-80 0 -125.5 -52.5t-45.5 -130.5q0 -83 47.5 -132t121.5 -49q50 0 107 23z" />
    <glyph glyph-name="egrave" unicode="&#xe8;" horiz-adv-x="501" 
d="M38 233q0 113 62 187.5t166 74.5q56 0 97 -22.5t62 -59t30.5 -73t9.5 -73.5q0 -28 -4 -41h-339q1 -84 47.5 -126t117.5 -42q76 0 135 25l15 -63q-66 -31 -161 -31q-110 0 -174 67t-64 177zM123 289h257q1 53 -27.5 97.5t-94.5 44.5q-61 0 -95 -43.5t-40 -98.5zM252 550
l-120 143h96l95 -143h-71z" />
    <glyph glyph-name="eacute" unicode="&#xe9;" horiz-adv-x="501" 
d="M38 233q0 113 62 187.5t166 74.5q56 0 97 -22.5t62 -59t30.5 -73t9.5 -73.5q0 -28 -4 -41h-339q1 -84 47.5 -126t117.5 -42q76 0 135 25l15 -63q-66 -31 -161 -31q-110 0 -174 67t-64 177zM123 289h257q1 53 -27.5 97.5t-94.5 44.5q-61 0 -95 -43.5t-40 -98.5zM212 550
l96 143h97l-121 -143h-72z" />
    <glyph glyph-name="ecircumflex" unicode="&#xea;" horiz-adv-x="501" 
d="M38 233q0 113 62 187.5t166 74.5q56 0 97 -22.5t62 -59t30.5 -73t9.5 -73.5q0 -28 -4 -41h-339q1 -84 47.5 -126t117.5 -42q76 0 135 25l15 -63q-66 -31 -161 -31q-110 0 -174 67t-64 177zM123 289h257q1 53 -27.5 97.5t-94.5 44.5q-61 0 -95 -43.5t-40 -98.5zM123 552
l105 139h66l107 -139h-70l-69 90h-2l-68 -90h-69z" />
    <glyph glyph-name="edieresis" unicode="&#xeb;" horiz-adv-x="501" 
d="M38 233q0 113 62 187.5t166 74.5q56 0 97 -22.5t62 -59t30.5 -73t9.5 -73.5q0 -28 -4 -41h-339q1 -84 47.5 -126t117.5 -42q76 0 135 25l15 -63q-66 -31 -161 -31q-110 0 -174 67t-64 177zM123 289h257q1 53 -27.5 97.5t-94.5 44.5q-61 0 -95 -43.5t-40 -98.5zM175 570
q-22 0 -36 15t-14 36t14.5 36t36.5 15q20 0 34 -15t14 -36t-14 -36t-35 -15zM360 570q-22 0 -36 15t-14 36t14.5 36t36.5 15q21 0 35 -15t14 -36t-14 -36t-36 -15z" />
    <glyph glyph-name="igrave" unicode="&#xec;" horiz-adv-x="234" 
d="M73 0v484h87v-484h-87zM89 550l-120 143h96l95 -143h-71z" />
    <glyph glyph-name="iacute" unicode="&#xed;" horiz-adv-x="234" 
d="M73 0v484h87v-484h-87zM63 550l96 143h97l-121 -143h-72z" />
    <glyph glyph-name="icircumflex" unicode="&#xee;" horiz-adv-x="234" 
d="M73 0v484h87v-484h-87zM-22 552l105 139h66l107 -139h-70l-69 90h-2l-68 -90h-69z" />
    <glyph glyph-name="idieresis" unicode="&#xef;" horiz-adv-x="234" 
d="M73 0v484h87v-484h-87zM25 570q-22 0 -36 15t-14 36t14.5 36t36.5 15q20 0 34 -15t14 -36t-14 -36t-35 -15zM209 570q-21 0 -35 15t-14 36t14.5 36t35.5 15t35 -15t14 -36t-14 -36t-36 -15z" />
    <glyph glyph-name="eth" unicode="&#xf0;" horiz-adv-x="541" 
d="M127 237q0 -77 40 -130t100 -53q65 0 104.5 52.5t39.5 135.5q0 93 -34 135q-41 47 -107 47q-48 0 -82 -31t-47.5 -71.5t-13.5 -84.5zM38 236q0 112 66 179.5t157 68.5q67 0 113 -42l2 2q-44 72 -118 129l-142 -66l-19 43l116 55q-40 29 -105 60l39 55q79 -36 141 -81
l128 61l21 -44l-106 -50q83 -68 127 -159q43 -86 43 -194q0 -130 -69 -197t-165 -67q-100 0 -164.5 67.5t-64.5 179.5z" />
    <glyph glyph-name="ntilde" unicode="&#xf1;" horiz-adv-x="555" 
d="M73 0v353q0 49 -4 131h78l4 -80h3q20 38 62 64.5t98 26.5q28 0 55 -9.5t54 -31t44 -64.5t17 -101v-289h-87v278q0 64 -27 104t-85 40q-42 0 -73.5 -25.5t-44.5 -64.5q-7 -19 -7 -41v-291h-87zM139 570q-1 51 19.5 77t56.5 26q22 0 70 -23q5 -2 13 -6.5t13 -7.5t11 -5
t11 -2q31 0 33 46h51q0 -106 -77 -106q-24 0 -69 25q-35 19 -50 19q-14 0 -21.5 -9t-8.5 -34h-52z" />
    <glyph glyph-name="ograve" unicode="&#xf2;" horiz-adv-x="549" 
d="M38 240q0 117 69.5 186t171.5 69q103 0 167.5 -69t64.5 -184q0 -64 -22 -114.5t-58 -79.5t-77.5 -44t-85.5 -15q-99 0 -164.5 68.5t-65.5 182.5zM127 240q0 -77 39 -131.5t108 -54.5t108.5 54.5t39.5 132.5q0 73 -37 130t-111 57t-110.5 -56.5t-36.5 -131.5zM262 550
l-120 143h96l95 -143h-71z" />
    <glyph glyph-name="oacute" unicode="&#xf3;" horiz-adv-x="549" 
d="M38 240q0 117 69.5 186t171.5 69q103 0 167.5 -69t64.5 -184q0 -64 -22 -114.5t-58 -79.5t-77.5 -44t-85.5 -15q-99 0 -164.5 68.5t-65.5 182.5zM127 240q0 -77 39 -131.5t108 -54.5t108.5 54.5t39.5 132.5q0 73 -37 130t-111 57t-110.5 -56.5t-36.5 -131.5zM217 550
l96 143h97l-121 -143h-72z" />
    <glyph glyph-name="ocircumflex" unicode="&#xf4;" horiz-adv-x="549" 
d="M38 240q0 117 69.5 186t171.5 69q103 0 167.5 -69t64.5 -184q0 -64 -22 -114.5t-58 -79.5t-77.5 -44t-85.5 -15q-99 0 -164.5 68.5t-65.5 182.5zM127 240q0 -77 39 -131.5t108 -54.5t108.5 54.5t39.5 132.5q0 73 -37 130t-111 57t-110.5 -56.5t-36.5 -131.5zM135 552
l105 139h66l107 -139h-70l-69 90h-2l-68 -90h-69z" />
    <glyph glyph-name="otilde" unicode="&#xf5;" horiz-adv-x="549" 
d="M38 240q0 117 69.5 186t171.5 69q103 0 167.5 -69t64.5 -184q0 -64 -22 -114.5t-58 -79.5t-77.5 -44t-85.5 -15q-99 0 -164.5 68.5t-65.5 182.5zM127 240q0 -77 39 -131.5t108 -54.5t108.5 54.5t39.5 132.5q0 73 -37 130t-111 57t-110.5 -56.5t-36.5 -131.5zM135 570
q-1 51 19.5 77t56.5 26q8 0 14 -1t14.5 -4t12 -4t15 -6.5t14.5 -7.5q5 -2 16 -8.5t18 -9.5t13 -3q31 0 34 46h51q-1 -106 -77 -106q-25 0 -70 25q-33 19 -49 19q-29 0 -31 -43h-51z" />
    <glyph glyph-name="odieresis" unicode="&#xf6;" horiz-adv-x="549" 
d="M38 240q0 117 69.5 186t171.5 69q103 0 167.5 -69t64.5 -184q0 -64 -22 -114.5t-58 -79.5t-77.5 -44t-85.5 -15q-99 0 -164.5 68.5t-65.5 182.5zM127 240q0 -77 39 -131.5t108 -54.5t108.5 54.5t39.5 132.5q0 73 -37 130t-111 57t-110.5 -56.5t-36.5 -131.5zM182 570
q-22 0 -36 15t-14 36t14.5 36t35.5 15t35 -15t14 -36t-14 -36t-35 -15zM366 570q-21 0 -35.5 15t-14.5 36t15 36t36 15t35 -15t14 -36t-14 -36t-36 -15z" />
    <glyph glyph-name="divide" unicode="&#xf7;" horiz-adv-x="596" 
d="M298 387q-24 0 -38.5 15.5t-14.5 39.5q0 25 15 40.5t39 15.5q23 0 37.5 -15.5t14.5 -40.5q0 -24 -14.5 -39.5t-38.5 -15.5zM40 237v60h516v-60h-516zM245 91q0 25 15 40.5t39 15.5q23 0 37.5 -15.5t14.5 -40.5q0 -24 -14.5 -39.5t-38.5 -15.5t-38.5 15.5t-14.5 39.5z" />
    <glyph glyph-name="oslash" unicode="&#xf8;" horiz-adv-x="549" 
d="M71 -8l41 60q-74 71 -74 187q0 117 68 186.5t170 69.5q69 0 122 -35l43 60l40 -27l-43 -62q73 -73 73 -186q0 -124 -71 -190t-166 -66q-70 0 -123 34l-43 -61zM158 120h3l197 279q-30 29 -85 29q-74 0 -112 -56.5t-38 -131.5q0 -71 35 -120zM191 83q35 -29 81 -29
q68 0 111 53.5t43 135.5q0 67 -36 118h-1z" />
    <glyph glyph-name="ugrave" unicode="&#xf9;" horiz-adv-x="550" 
d="M70 201v283h87v-268q0 -155 107 -155q44 0 75.5 24.5t42.5 55.5q8 22 8 46v297h87v-352q0 -54 4 -132h-77l-5 79h-2q-54 -90 -161 -90q-76 0 -121 51t-45 161zM257 550l-120 143h96l95 -143h-71z" />
    <glyph glyph-name="uacute" unicode="&#xfa;" horiz-adv-x="550" 
d="M70 201v283h87v-268q0 -155 107 -155q44 0 75.5 24.5t42.5 55.5q8 22 8 46v297h87v-352q0 -54 4 -132h-77l-5 79h-2q-54 -90 -161 -90q-76 0 -121 51t-45 161zM229 550l96 143h97l-121 -143h-72z" />
    <glyph glyph-name="ucircumflex" unicode="&#xfb;" horiz-adv-x="550" 
d="M70 201v283h87v-268q0 -155 107 -155q44 0 75.5 24.5t42.5 55.5q8 22 8 46v297h87v-352q0 -54 4 -132h-77l-5 79h-2q-54 -90 -161 -90q-76 0 -121 51t-45 161zM136 552l105 139h66l107 -139h-70l-69 90h-2l-68 -90h-69z" />
    <glyph glyph-name="udieresis" unicode="&#xfc;" horiz-adv-x="550" 
d="M70 201v283h87v-268q0 -155 107 -155q44 0 75.5 24.5t42.5 55.5q8 22 8 46v297h87v-352q0 -54 4 -132h-77l-5 79h-2q-54 -90 -161 -90q-76 0 -121 51t-45 161zM186 570q-22 0 -36 15t-14 36t14.5 36t36.5 15q20 0 34 -15t14 -36t-14 -36t-35 -15zM371 570q-22 0 -36 15
t-14 36t14.5 36t35.5 15t35 -15t14 -36t-13.5 -36t-35.5 -15z" />
    <glyph glyph-name="yacute" unicode="&#xfd;" horiz-adv-x="471" 
d="M114 -105q47 41 73 99q7 16 7 21q0 8 -7 22l-178 447h96l106 -286q19 -54 31 -99h2q2 8 13 44t18 56l96 285h93l-132 -345q-49 -129 -85.5 -197t-80.5 -106q-54 -47 -108 -57l-22 74q39 12 78 42zM193 550l96 143h97l-121 -143h-72z" />
    <glyph glyph-name="thorn" unicode="&#xfe;" horiz-adv-x="569" 
d="M160 65v-263h-88v868h88v-262h2q54 87 164 87q88 1 146.5 -67.5t58.5 -179.5q0 -125 -65 -192t-155 -67q-98 0 -149 76h-2zM169 147q15 -41 50.5 -65.5t79.5 -24.5q64 0 104 52t40 138q0 75 -39 126t-104 51q-43 0 -78.5 -25.5t-51.5 -69.5q-10 -28 -10 -49v-90
q0 -20 9 -43z" />
    <glyph glyph-name="ydieresis" unicode="&#xff;" horiz-adv-x="471" 
d="M114 -105q47 41 73 99q7 16 7 21q0 8 -7 22l-178 447h96l106 -286q19 -54 31 -99h2q2 8 13 44t18 56l96 285h93l-132 -345q-49 -129 -85.5 -197t-80.5 -106q-54 -47 -108 -57l-22 74q39 12 78 42zM155 570q-22 0 -36.5 15t-14.5 36t14.5 36t36.5 15q21 0 34.5 -15
t13.5 -36t-13.5 -36t-34.5 -15zM339 570q-22 0 -36 15t-14 36t15 36t36 15t35 -15t14 -36t-14 -36t-36 -15z" />
    <glyph glyph-name="Amacron" unicode="&#x100;" horiz-adv-x="612" 
d="M25 0l229 674h105l230 -674h-93l-72 212h-239l-69 -212h-91zM203 280h203l-66 194q-14 41 -35 123h-3q-14 -62 -33 -122zM179 733v61h250v-61h-250z" />
    <glyph glyph-name="amacron" unicode="&#x101;" horiz-adv-x="482" 
d="M35 128q0 88 75.5 134t215.5 45v11q0 112 -110 112q-70 0 -126 -36l-21 58q68 43 160 43q184 0 184 -199v-180q0 -70 7 -116h-79l-8 61h-2q-53 -72 -148 -72q-69 0 -108.5 41.5t-39.5 97.5zM123 138q0 -41 23.5 -62.5t59.5 -21.5q45 0 75 23.5t43 57.5q4 18 4 27v85
q-205 2 -205 -109zM119 587v61h245v-61h-245z" />
    <glyph glyph-name="Ccaron" unicode="&#x10c;" horiz-adv-x="580" 
d="M36 331q0 158 97.5 255.5t254.5 97.5q107 0 160 -29l-21 -71q-58 28 -136 28q-120 0 -191.5 -73.5t-71.5 -204.5q0 -125 68.5 -198t190.5 -73q84 0 142 28l18 -70q-68 -32 -179 -32q-146 0 -239 90.5t-93 251.5zM329 713l-105 114h76l65 -70h2l63 70h74l-103 -114h-72z
" />
    <glyph glyph-name="ccaron" unicode="&#x10d;" horiz-adv-x="448" 
d="M38 236q0 113 71.5 185.5t187.5 72.5q73 0 123 -25l-20 -68q-44 23 -102 23q-80 0 -125.5 -52.5t-45.5 -130.5q0 -83 47.5 -132t121.5 -49q50 0 107 23l15 -65q-56 -29 -139 -29q-109 0 -175 68t-66 179zM229 552l-107 139h71l68 -90h2l68 90h69l-105 -139h-66z" />
    <glyph glyph-name="Dcroat" unicode="&#x110;" horiz-adv-x="671" 
d="M80 0v307h-82v70h82v290q94 14 185 14q185 0 274 -84q95 -85 95 -244q0 -166 -97 -263q-100 -98 -298 -98q-87 0 -159 8zM168 67q29 -4 88 -4q140 0 213.5 74.5t73.5 213.5q0 124 -69 192.5t-204 68.5q-50 0 -102 -9v-226h180v-70h-180v-240z" />
    <glyph glyph-name="dcroat" unicode="&#x111;" horiz-adv-x="564" 
d="M568 562h-78v-438q0 -58 4 -124h-78l-4 83h-3q-20 -42 -63 -68t-100 -26q-90 0 -149 68.5t-59 177.5q-1 117 62 188.5t155 71.5q52 0 90 -21t56 -53h2v141h-197v56h197v92h87v-92h78v-56zM403 203v84q0 21 -4 38q-10 43 -44.5 71.5t-82.5 28.5q-67 0 -106 -52.5
t-39 -133.5q0 -78 37.5 -129t105.5 -51q45 0 80.5 28.5t48.5 77.5q4 16 4 38z" />
    <glyph glyph-name="Emacron" unicode="&#x112;" horiz-adv-x="491" 
d="M75 0v674h365v-72h-277v-214h261v-72h-261v-244h292v-72h-380zM134 733v61h250v-61h-250z" />
    <glyph glyph-name="emacron" unicode="&#x113;" horiz-adv-x="501" 
d="M38 233q0 113 62 187.5t166 74.5q56 0 97 -22.5t62 -59t30.5 -73t9.5 -73.5q0 -28 -4 -41h-339q1 -84 47.5 -126t117.5 -42q76 0 135 25l15 -63q-66 -31 -161 -31q-110 0 -174 67t-64 177zM123 289h257q1 53 -27.5 97.5t-94.5 44.5q-61 0 -95 -43.5t-40 -98.5zM131 587
v61h245v-61h-245z" />
    <glyph glyph-name="Gbreve" unicode="&#x11e;" horiz-adv-x="646" 
d="M130 82q-94 91 -94 251q0 153 99 250.5t266 97.5q99 0 168 -31l-21 -71q-65 29 -149 29q-124 0 -197.5 -72.5t-73.5 -198.5q0 -127 70.5 -199.5t189.5 -72.5q79 0 115 18v201h-136v70h222v-324q-96 -37 -207 -37q-159 0 -252 89zM360 720q-56 0 -87.5 29.5t-37.5 77.5h55
q15 -53 72 -53q59 0 73 53h53q-6 -47 -39.5 -77t-88.5 -30z" />
    <glyph glyph-name="gbreve" unicode="&#x11f;" horiz-adv-x="559" 
d="M101 -102q64 -39 143 -39q72 0 114 41.5t42 128.5v54h-2q-21 -36 -61 -58.5t-93 -22.5q-90 0 -148 67.5t-58 168.5q0 117 65 187t153 70q107 0 151 -84h2l4 73h77q-4 -70 -4 -133v-281q0 -159 -69 -221q-62 -58 -176 -58q-100 0 -162 39zM127 243q0 -75 37.5 -125
t105.5 -50q41 0 74.5 24.5t47.5 66.5q7 21 7 47v87q0 20 -5 40q-13 41 -45 67t-79 26q-63 0 -103 -50t-40 -133zM272 556q-60 0 -92.5 36t-35.5 85h54q14 -66 74 -66q62 0 74 66h53q-4 -56 -38 -88.5t-89 -32.5z" />
    <glyph glyph-name="Gdotaccent" unicode="&#x120;" horiz-adv-x="646" 
d="M130 82q-94 91 -94 251q0 153 99 250.5t266 97.5q99 0 168 -31l-21 -71q-65 29 -149 29q-124 0 -197.5 -72.5t-73.5 -198.5q0 -127 70.5 -199.5t189.5 -72.5q79 0 115 18v201h-136v70h222v-324q-96 -37 -207 -37q-159 0 -252 89zM362 719q-21 0 -36 15.5t-15 36.5t15 36
t36 15t35 -15t14 -36q0 -22 -13.5 -37t-35.5 -15z" />
    <glyph glyph-name="gdotaccent" unicode="&#x121;" horiz-adv-x="559" 
d="M101 -102q64 -39 143 -39q72 0 114 41.5t42 128.5v54h-2q-21 -36 -61 -58.5t-93 -22.5q-90 0 -148 67.5t-58 168.5q0 117 65 187t153 70q107 0 151 -84h2l4 73h77q-4 -70 -4 -133v-281q0 -159 -69 -221q-62 -58 -176 -58q-100 0 -162 39zM127 243q0 -75 37.5 -125
t105.5 -50q41 0 74.5 24.5t47.5 66.5q7 21 7 47v87q0 20 -5 40q-13 41 -45 67t-79 26q-63 0 -103 -50t-40 -133zM279 573q-22 0 -36.5 15t-14.5 36t15 36t36 15t35 -14.5t14 -36.5q0 -21 -14 -36t-35 -15z" />
    <glyph glyph-name="Hcircumflex" unicode="&#x124;" horiz-adv-x="652" 
d="M75 0v674h88v-283h326v283h87v-674h-87v316h-326v-316h-88zM187 710l104 114h69l106 -114h-76l-64 69h-2l-63 -69h-74z" />
    <glyph glyph-name="hcircumflex" unicode="&#x125;" horiz-adv-x="555" 
d="M73 0v710h87v-302h2q24 40 64 62q43 25 89 25q28 0 55 -9.5t54 -31t43.5 -64.5t16.5 -103v-287h-87v278q0 65 -26.5 104.5t-85.5 39.5q-42 0 -73.5 -25.5t-44.5 -62.5q-7 -18 -7 -42v-292h-87zM-18 728l103 114h69l107 -114h-77l-63 69h-2l-64 -69h-73z" />
    <glyph glyph-name="Hbar" unicode="&#x126;" horiz-adv-x="657" 
d="M78 0v479h-58v58h58v137h87v-137h326v137h88v-137h57v-58h-57v-479h-88v290h-326v-290h-87zM165 366h326v113h-326v-113z" />
    <glyph glyph-name="hbar" unicode="&#x127;" horiz-adv-x="555" 
d="M160 408h2q24 40 64 62q43 25 89 25q28 0 55 -9.5t54 -31t43.5 -64.5t16.5 -103v-287h-87v278q0 65 -26.5 104.5t-85.5 39.5q-42 0 -73.5 -25.5t-44.5 -62.5q-7 -18 -7 -42v-292h-87v562h-74v56h74v92h87v-92h197v-56h-197v-154z" />
    <glyph glyph-name="Imacron" unicode="&#x12a;" horiz-adv-x="239" 
d="M75 0v674h88v-674h-88zM-5 733v61h251v-61h-251z" />
    <glyph glyph-name="imacron" unicode="&#x12b;" horiz-adv-x="234" 
d="M73 0v484h87v-484h-87zM-5 587v61h245v-61h-245z" />
    <glyph glyph-name="dotlessi" unicode="&#x131;" horiz-adv-x="234" 
d="M73 0v484h87v-484h-87z" />
    <glyph glyph-name="Lslash" unicode="&#x141;" horiz-adv-x="476" 
d="M80 0v284l-84 -41v66l84 41v324h87v-280l140 68v-68l-140 -68v-253h288v-73h-375z" />
    <glyph glyph-name="lslash" unicode="&#x142;" horiz-adv-x="242" 
d="M77 0v333l-68 -40v67l68 42v308h88v-264l74 45v-69l-74 -44v-378h-88z" />
    <glyph glyph-name="eng" unicode="&#x14b;" horiz-adv-x="555" 
d="M73 0v353q0 49 -4 131h78l4 -80h3q20 38 62 64.5t98 26.5q28 0 55 -9.5t54 -31t44 -64.5t17 -101v-230q0 -109 -51.5 -167.5t-138.5 -70.5l-16 70q119 24 119 160v227q0 64 -27 104t-85 40q-42 0 -73.5 -25.5t-44.5 -64.5q-7 -19 -7 -41v-291h-87z" />
    <glyph glyph-name="Omacron" unicode="&#x14c;" horiz-adv-x="689" 
d="M339 -11q-136 0 -219.5 96t-83.5 248q0 155 88 253.5t227 98.5q140 0 220.5 -98t80.5 -249q0 -162 -90 -255.5t-223 -93.5zM344 60q102 0 159 79.5t57 196.5q0 114 -55.5 196t-159.5 82q-101 0 -159 -80t-58 -198q0 -119 58 -197.5t158 -78.5zM219 738v61h251v-61h-251z
" />
    <glyph glyph-name="omacron" unicode="&#x14d;" horiz-adv-x="549" 
d="M38 240q0 117 69.5 186t171.5 69q103 0 167.5 -69t64.5 -184q0 -64 -22 -114.5t-58 -79.5t-77.5 -44t-85.5 -15q-99 0 -164.5 68.5t-65.5 182.5zM127 240q0 -77 39 -131.5t108 -54.5t108.5 54.5t39.5 132.5q0 73 -37 130t-111 57t-110.5 -56.5t-36.5 -131.5zM152 587v61
h245v-61h-245z" />
    <glyph glyph-name="OE" unicode="&#x152;" horiz-adv-x="894" 
d="M36 332q0 164 93 258.5t242 94.5q56 0 140 -11h331v-72h-278v-215h262v-72h-262v-243h293v-72h-353q-86 -11 -141 -11q-152 0 -239.5 96.5t-87.5 246.5zM128 336q0 -125 67 -200.5t184 -75.5q61 0 98 13v526q-43 15 -107 15q-111 0 -176.5 -76.5t-65.5 -201.5z" />
    <glyph glyph-name="oe" unicode="&#x153;" horiz-adv-x="863" 
d="M38 239q0 115 66 185.5t166 70.5q62 0 111 -30.5t72 -85.5h2q27 57 73 86.5t103 29.5q44 0 79.5 -15.5t56.5 -39.5t35 -55t19.5 -60t5.5 -57q0 -29 -3 -41h-328q-1 -80 44 -125t116 -45q64 0 130 28l16 -63q-58 -33 -157 -33q-136 0 -192 115h-2q-26 -57 -77 -86
t-111 -29q-97 0 -161 68.5t-64 181.5zM127 240q0 -79 41 -132.5t103 -53.5q64 0 103 52t39 136q0 76 -36 131t-106 55q-73 0 -108.5 -57t-35.5 -131zM495 290h247q0 23 -5 45.5t-17 45t-37 36.5t-59 14q-59 0 -92 -43.5t-37 -97.5z" />
    <glyph glyph-name="Sacute" unicode="&#x15a;" horiz-adv-x="493" 
d="M41 33l23 73q69 -44 156 -44q66 0 103.5 31.5t37.5 83.5q0 47 -29 77.5t-98 56.5q-179 62 -179 191q0 79 61 130.5t158 51.5q90 0 148 -32l-23 -71q-59 32 -128 32q-63 0 -95 -30.5t-32 -70.5q0 -46 30.5 -74t103.5 -56q89 -35 130 -80.5t41 -117.5q0 -83 -60.5 -139
t-174.5 -56q-48 0 -96.5 13t-76.5 31zM203 713l94 116h105l-120 -116h-79z" />
    <glyph glyph-name="sacute" unicode="&#x15b;" horiz-adv-x="396" 
d="M39 23l22 66q55 -34 116 -34q46 0 70 20t24 52q0 31 -20 50.5t-70 37.5q-128 47 -128 138q0 60 45.5 101t121.5 41q69 0 118 -30l-21 -64q-50 29 -99 29q-38 0 -59.5 -19.5t-21.5 -47.5q0 -29 20.5 -46t71.5 -37q65 -24 96 -58t31 -87q0 -65 -48 -105.5t-133 -40.5
q-78 0 -136 34zM152 550l96 143h97l-121 -143h-72z" />
    <glyph glyph-name="uni015E" unicode="&#x15e;" horiz-adv-x="493" 
d="M422 652l-23 -71q-59 32 -128 32q-63 0 -95 -30.5t-32 -70.5q0 -46 30.5 -74t103.5 -56q89 -35 130 -80.5t41 -117.5q0 -71 -45 -123.5t-130 -66.5l-26 -44q30 -6 50 -26t20 -49q0 -41 -30 -61t-73 -20q-40 0 -71 17l14 45q24 -13 56 -13q42 0 42 30q0 35 -77 43l39 73
h-4q-48 0 -96.5 13t-76.5 31l23 73q69 -44 156 -44q66 0 103.5 31.5t37.5 83.5q0 47 -29 77.5t-98 56.5q-179 62 -179 191q0 79 61 130.5t158 51.5q90 0 148 -32z" />
    <glyph glyph-name="uni015F" unicode="&#x15f;" horiz-adv-x="396" 
d="M338 465l-21 -64q-50 29 -99 29q-38 0 -59.5 -19.5t-21.5 -47.5q0 -29 20.5 -46t71.5 -37q65 -24 96 -58t31 -87q0 -54 -34 -92t-96 -50l-27 -43q30 -6 50.5 -25t20.5 -48q0 -43 -30 -63t-74 -20q-41 0 -69 17l14 45q22 -13 54 -13q44 0 44 31q-1 34 -78 42l39 73
q-74 1 -131 34l22 66q55 -34 116 -34q46 0 70 20t24 52q0 31 -20 50.5t-70 37.5q-128 47 -128 138q0 60 45.5 101t121.5 41q69 0 118 -30z" />
    <glyph glyph-name="Scaron" unicode="&#x160;" horiz-adv-x="493" 
d="M41 33l23 73q69 -44 156 -44q66 0 103.5 31.5t37.5 83.5q0 47 -29 77.5t-98 56.5q-179 62 -179 191q0 79 61 130.5t158 51.5q90 0 148 -32l-23 -71q-59 32 -128 32q-63 0 -95 -30.5t-32 -70.5q0 -46 30.5 -74t103.5 -56q89 -35 130 -80.5t41 -117.5q0 -83 -60.5 -139
t-174.5 -56q-48 0 -96.5 13t-76.5 31zM222 713l-105 114h76l65 -70h2l63 70h74l-103 -114h-72z" />
    <glyph glyph-name="scaron" unicode="&#x161;" horiz-adv-x="396" 
d="M39 23l22 66q55 -34 116 -34q46 0 70 20t24 52q0 31 -20 50.5t-70 37.5q-128 47 -128 138q0 60 45.5 101t121.5 41q69 0 118 -30l-21 -64q-50 29 -99 29q-38 0 -59.5 -19.5t-21.5 -47.5q0 -29 20.5 -46t71.5 -37q65 -24 96 -58t31 -87q0 -65 -48 -105.5t-133 -40.5
q-78 0 -136 34zM170 552l-107 139h71l68 -90h2l68 90h69l-105 -139h-66z" />
    <glyph glyph-name="uni0162" unicode="&#x162;" horiz-adv-x="497" 
d="M292 0h-16l-31 -50q30 -6 50.5 -26t20.5 -49q0 -41 -30 -61t-73 -20q-42 0 -71 17l14 45q24 -13 56 -13q42 0 42 30q0 35 -78 43l45 84h-17v600h-205v74h499v-74h-206v-600z" />
    <glyph glyph-name="uni0163" unicode="&#x163;" horiz-adv-x="331" 
d="M305 417h-126v-261q0 -94 66 -94q30 0 51 7l4 -67q-32 -13 -78 -13h-2l-23 -39q29 -6 49.5 -25t20.5 -48q0 -43 -29.5 -63t-74.5 -20q-41 0 -69 17l14 45q22 -13 55 -13q43 0 43 31q-1 34 -78 42l43 81q-26 9 -45 29q-34 40 -34 127v264h-75v67h75v116l87 23v-139h126
v-67z" />
    <glyph glyph-name="Tbar" unicode="&#x166;" horiz-adv-x="497" 
d="M498 600h-206v-230h124v-63h-124v-307h-88v307h-124v63h124v230h-205v74h499v-74z" />
    <glyph glyph-name="tbar" unicode="&#x167;" horiz-adv-x="331" 
d="M126 26q-34 40 -34 127v95h-66v54h66v115h-75v67h75v112l87 23v-135h126v-67h-126v-115h98v-54h-98v-96q0 -90 66 -90q33 0 51 7l4 -67q-32 -13 -78 -13q-64 0 -96 37z" />
    <glyph glyph-name="Umacron" unicode="&#x16a;" horiz-adv-x="647" 
d="M75 276v398h88v-400q0 -108 42.5 -161t114.5 -53q77 0 120.5 53t43.5 161v400h87v-394q0 -148 -69 -219.5t-185 -71.5q-111 0 -176.5 69t-65.5 218zM198 733v61h251v-61h-251z" />
    <glyph glyph-name="umacron" unicode="&#x16b;" horiz-adv-x="550" 
d="M70 201v283h87v-268q0 -155 107 -155q44 0 75.5 24.5t42.5 55.5q8 22 8 46v297h87v-352q0 -54 4 -132h-77l-5 79h-2q-54 -90 -161 -90q-76 0 -121 51t-45 161zM153 587v61h245v-61h-245z" />
    <glyph glyph-name="Ycircumflex" unicode="&#x176;" horiz-adv-x="541" 
d="M226 0v285l-213 389h100l94 -186q40 -78 67 -139h2q12 28 68 139l97 186h98l-225 -387v-287h-88zM131 710l104 114h69l106 -114h-76l-64 69h-2l-63 -69h-74z" />
    <glyph glyph-name="ycircumflex" unicode="&#x177;" horiz-adv-x="471" 
d="M114 -105q47 41 73 99q7 16 7 21q0 8 -7 22l-178 447h96l106 -286q19 -54 31 -99h2q2 8 13 44t18 56l96 285h93l-132 -345q-49 -129 -85.5 -197t-80.5 -106q-54 -47 -108 -57l-22 74q39 12 78 42zM99 552l105 139h66l107 -139h-70l-69 90h-2l-68 -90h-69z" />
    <glyph glyph-name="Ydieresis" unicode="&#x178;" horiz-adv-x="541" 
d="M226 0v285l-213 389h100l94 -186q40 -78 67 -139h2q12 28 68 139l97 186h98l-225 -387v-287h-88zM186 715q-21 0 -35.5 15t-14.5 36t15 36t36 15q20 0 34 -15t14 -36t-14 -36t-35 -15zM371 715q-22 0 -36 15t-14 36q0 20 15 35.5t36 15.5t35 -15t14 -36t-14 -36t-36 -15z
" />
    <glyph glyph-name="Zdotaccent" unicode="&#x17b;" horiz-adv-x="553" 
d="M30 0v51l374 547v3h-342v73h455v-53l-372 -545v-3h377v-73h-492zM280 719q-21 0 -36 15.5t-15 36.5q0 22 15 37t37 15q20 0 34.5 -15t14.5 -37t-14 -37t-36 -15z" />
    <glyph glyph-name="zdotaccent" unicode="&#x17c;" horiz-adv-x="427" 
d="M18 0v51l219 285q10 12 63 75v2h-262v71h369l-1 -55l-216 -282q-46 -58 -62 -75v-2h283v-70h-393zM215 570q-21 0 -35.5 15.5t-14.5 36.5q0 20 15 35.5t36 15.5t35 -15t14 -36q0 -22 -14 -37t-36 -15z" />
    <glyph glyph-name="Zcaron" unicode="&#x17d;" horiz-adv-x="553" 
d="M30 0v51l374 547v3h-342v73h455v-53l-372 -545v-3h377v-73h-492zM251 710l-104 114h76l65 -69h2l62 69h74l-102 -114h-73z" />
    <glyph glyph-name="zcaron" unicode="&#x17e;" horiz-adv-x="427" 
d="M18 0v51l219 285q10 12 63 75v2h-262v71h369l-1 -55l-216 -282q-46 -58 -62 -75v-2h283v-70h-393zM194 552l-107 139h71l68 -90h2l68 90h69l-105 -139h-66z" />
    <glyph glyph-name="uni0192" unicode="&#x192;" horiz-adv-x="513" 
d="M26 -18q24 -12 55 -12q45 1 67 39t31 118l24 212h-91v64h99l7 63q5 41 16.5 76t32.5 68t57.5 52t84.5 19q42 -1 69 -15l-17 -64q-25 10 -52 10q-48 0 -73.5 -38.5t-32.5 -99.5l-8 -71h120v-64h-127l-27 -219q-12 -106 -51.5 -161.5t-122.5 -55.5q-49 0 -77 16z" />
    <glyph glyph-name="Gcaron" unicode="&#x1e6;" horiz-adv-x="646" 
d="M130 82q-94 91 -94 251q0 153 99 250.5t266 97.5q99 0 168 -31l-21 -71q-65 29 -149 29q-124 0 -197.5 -72.5t-73.5 -198.5q0 -127 70.5 -199.5t189.5 -72.5q79 0 115 18v201h-136v70h222v-324q-96 -37 -207 -37q-159 0 -252 89zM348 713l-105 114h76l65 -70h2l63 70h74
l-103 -114h-72z" />
    <glyph glyph-name="gcaron" unicode="&#x1e7;" horiz-adv-x="559" 
d="M101 -102q64 -39 143 -39q72 0 114 41.5t42 128.5v54h-2q-21 -36 -61 -58.5t-93 -22.5q-90 0 -148 67.5t-58 168.5q0 117 65 187t153 70q107 0 151 -84h2l4 73h77q-4 -70 -4 -133v-281q0 -159 -69 -221q-62 -58 -176 -58q-100 0 -162 39zM127 243q0 -75 37.5 -125
t105.5 -50q41 0 74.5 24.5t47.5 66.5q7 21 7 47v87q0 20 -5 40q-13 41 -45 67t-79 26q-63 0 -103 -50t-40 -133zM307 550h-63l-96 143h68l59 -95h2l59 95h65z" />
    <glyph glyph-name="uni0251" unicode="&#x251;" horiz-adv-x="562" 
d="M127 239q0 -78 37 -130t106 -52q43 0 77 25.5t49 70.5q7 23 7 43v92q0 21 -4 36q-10 43 -44.5 72t-82.5 29q-67 0 -106 -51.5t-39 -134.5zM38 234q0 126 66.5 193.5t152.5 67.5q107 0 148 -84h2l4 73h83q-4 -82 -4 -133v-230q0 -68 8 -121h-82l-10 76h-2
q-22 -38 -61.5 -62.5t-94.5 -24.5q-91 0 -150.5 68t-59.5 177z" />
    <glyph glyph-name="uni0252" unicode="&#x252;" horiz-adv-x="562" 
d="M163 159q11 -43 45 -72t82 -29q67 0 106.5 51.5t39.5 133.5q0 79 -37 130.5t-106 51.5q-43 0 -77.5 -25.5t-49.5 -69.5q-7 -23 -7 -42v-93q0 -21 4 -36zM68 0q4 82 4 133v229q0 77 -8 122h82l10 -76h3q21 37 60.5 62t94.5 25q91 0 150.5 -68t59.5 -177q0 -127 -66.5 -194
t-152.5 -67q-53 0 -91.5 23t-56.5 60l-2 1l-4 -73h-83z" />
    <glyph glyph-name="uni0254" unicode="&#x254;" horiz-adv-x="448" 
d="M27 16l18 67q46 -23 105 -23q81 0 126.5 52.5t45.5 132.5q0 82 -46.5 130.5t-120.5 48.5q-53 0 -108 -24l-14 67q59 27 139 27q108 0 173.5 -67t65.5 -177q0 -116 -69 -188.5t-188 -72.5q-77 0 -127 27z" />
    <glyph glyph-name="uni0256" unicode="&#x256;" horiz-adv-x="564" 
d="M38 235q-1 117 62 188.5t155 71.5q52 0 90 -21t56 -53h2v289h87v-724q0 -65 18.5 -93t57.5 -28q26 0 52 10l10 -70q-29 -13 -78 -13q-147 0 -147 186v97h-2q-21 -39 -61 -62.5t-95 -23.5q-89 0 -148 68.5t-59 177.5zM127 239q0 -78 37.5 -129t105.5 -51q45 0 80.5 28.5
t48.5 77.5q4 15 4 37v85q0 21 -4 38q-10 43 -44.5 71.5t-82.5 28.5q-67 0 -106 -52.5t-39 -133.5z" />
    <glyph glyph-name="uni0259" unicode="&#x259;" horiz-adv-x="501" 
d="M36 221q0 26 4 46h338q-2 77 -47.5 118t-114.5 41q-70 0 -135 -27l-16 63q73 33 162 33q111 0 173.5 -68.5t62.5 -181.5q0 -111 -60.5 -183.5t-164.5 -72.5q-54 0 -94.5 20t-63 54.5t-33.5 74t-11 83.5zM119 203q-1 -61 30 -106t93 -45q61 0 95.5 45.5t38.5 105.5h-257z
" />
    <glyph glyph-name="uni025B" unicode="&#x25b;" horiz-adv-x="439" 
d="M39 136q0 45 33.5 79t86.5 42v4q-47 11 -71.5 38.5t-24.5 64.5q0 52 51 91.5t142 39.5q93 0 147 -37l-18 -59q-17 12 -52.5 21.5t-69.5 9.5q-51 0 -81.5 -19.5t-30.5 -52.5q0 -34 37.5 -52t96.5 -18h59v-62h-61q-69 0 -110.5 -20t-41.5 -62q0 -41 37.5 -64.5t92.5 -23.5
q79 0 144 37l15 -60q-28 -19 -77.5 -31.5t-99.5 -12.5q-84 0 -144 36t-60 111z" />
    <glyph glyph-name="uni0261" unicode="&#x261;" horiz-adv-x="559" 
d="M101 -102q64 -39 143 -39q72 0 114 41.5t42 128.5v54h-2q-21 -36 -61 -58.5t-93 -22.5q-90 0 -148 67.5t-58 168.5q0 117 65 187t153 70q107 0 151 -84h2l4 73h77q-4 -70 -4 -133v-281q0 -159 -69 -221q-62 -58 -176 -58q-100 0 -162 39zM127 243q0 -75 37.5 -125
t105.5 -50q41 0 74.5 24.5t47.5 66.5q7 21 7 47v87q0 20 -5 40q-13 41 -45 67t-79 26q-63 0 -103 -50t-40 -133z" />
    <glyph glyph-name="uni0262" unicode="&#x262;" horiz-adv-x="532" 
d="M112 53q-72 65 -72 185q0 119 78.5 188t203.5 69q83 0 135 -23l-19 -67q-55 21 -114 21q-86 0 -141.5 -47.5t-55.5 -139.5q0 -91 52 -137.5t133 -46.5q54 0 79 12v133h-97v61h177v-246q-73 -26 -163 -26q-128 0 -196 64z" />
    <glyph glyph-name="uni0263" unicode="&#x263;" horiz-adv-x="481" 
d="M471 484l-171 -412q5 -11 16.5 -35.5t16 -35.5t11.5 -29t9.5 -32t2.5 -28q0 -53 -33.5 -87t-88.5 -34q-54 0 -84.5 31.5t-30.5 83.5q0 14 3 28.5t10 33t12.5 30t18 36t17.5 35.5l-167 415h93l95 -248q25 -60 40 -116h3q16 50 41 115l94 249h92zM239 21h-4
q-39 -78 -39 -113q0 -21 10.5 -35t29.5 -14q17 0 29 14.5t12 34.5q0 12 -4 27.5t-8.5 26.5t-13.5 31t-12 28z" />
    <glyph glyph-name="uni026A" unicode="&#x26a;" horiz-adv-x="276" 
d="M30 0v64h64v355h-64v65h216v-65h-65v-355h65v-64h-216z" />
    <glyph glyph-name="uni0274" unicode="&#x274;" horiz-adv-x="559" 
d="M71 0v484h102l149 -224q54 -84 91 -160l2 1q-10 93 -10 200v183h82v-484h-90l-152 224q-57 86 -96 168l-3 -1q7 -109 7 -206v-185h-82z" />
    <glyph glyph-name="uni0278" unicode="&#x278;" horiz-adv-x="641" 
d="M38 238q0 115 67.5 180.5t175.5 74.5l-1 215h82l-1 -214q109 -8 175.5 -74t66.5 -177q0 -114 -67.5 -179.5t-174.5 -73.5l1 -188h-82l1 188q-108 7 -175.5 72.5t-67.5 175.5zM125 240q0 -76 41.5 -129t114.5 -60v382q-74 -8 -115 -59.5t-41 -133.5zM361 51q73 8 114 60
t41 132q0 78 -41.5 130.5t-113.5 59.5v-382z" />
    <glyph glyph-name="uni027D" unicode="&#x27d;" horiz-adv-x="327" 
d="M72 -22v355q0 90 -4 151h78l3 -96h3q17 49 54 78t81 29q13 0 25 -3v-83q-14 3 -30 3q-46 0 -77.5 -31t-40.5 -82q-4 -16 -4 -41v-272q0 -65 18.5 -93t56.5 -28q28 0 52 10l11 -70q-31 -13 -78 -13q-148 0 -148 186z" />
    <glyph glyph-name="uni027E" unicode="&#x27e;" horiz-adv-x="327" 
d="M72 0v294q0 99 47 150t128 51q38 0 67 -11l-8 -76q-24 8 -51 8q-95 0 -95 -124v-292h-88z" />
    <glyph glyph-name="uni0281" unicode="&#x281;" horiz-adv-x="476" 
d="M71 0v484h87v-204h61q42 0 66.5 20t36.5 69q22 94 36 115h90q-6 -9 -44 -134q-22 -80 -78 -98v-2q45 -10 73 -41.5t28 -76.5q0 -65 -46 -101q-54 -42 -170 -42q-67 0 -140 11zM158 57q23 -5 66 -5q117 0 117 82q0 39 -29 61t-85 22h-69v-160z" />
    <glyph glyph-name="uni0283" unicode="&#x283;" horiz-adv-x="251" 
d="M82 -28v566q0 92 42 137.5t113 45.5q43 0 71 -15l-17 -68q-23 10 -51 10q-71 0 -71 -108v-568q0 -90 -42.5 -135t-112.5 -45q-44 0 -69 12l14 70q24 -9 52 -9q71 0 71 107z" />
    <glyph glyph-name="uni0288" unicode="&#x288;" horiz-adv-x="331" 
d="M92 -22v439h-75v67h75v116l87 23v-139h126v-67h-126v-431q0 -65 18 -93t57 -28q25 0 51 10l11 -70q-31 -13 -77 -13q-71 0 -109 43t-38 143z" />
    <glyph glyph-name="uni028A" unicode="&#x28a;" horiz-adv-x="572" 
d="M43 214q0 67 29 119t71 83v3h-109v65h201v-51q-105 -71 -105 -205q0 -71 41 -121.5t113 -50.5q73 0 114.5 49.5t41.5 123.5q0 66 -29.5 120.5t-76.5 83.5v51h204v-65h-109v-3q99 -74 99 -197q0 -98 -69 -164t-177 -66q-112 0 -175.5 66t-63.5 159z" />
    <glyph glyph-name="uni028B" unicode="&#x28b;" horiz-adv-x="554" 
d="M70 210v274h87v-267q0 -76 31 -119t89 -43q69 0 108 63.5t39 153.5q0 40 -7 71.5t-28.5 56t-54.5 24.5q-22 0 -35 -6l-12 66q32 10 64 10q75 0 118.5 -56t43.5 -158q0 -134 -67 -212.5t-171 -78.5q-91 0 -148 55.5t-57 165.5z" />
    <glyph glyph-name="uni0292" unicode="&#x292;" horiz-adv-x="464" 
d="M25 -100q66 -38 152 -38q72 0 116.5 38.5t44.5 104.5q0 68 -46.5 105.5t-141.5 37.5h-28v47l170 219h-269v70h373v-55l-171 -215q86 -12 144 -59t58 -139q0 -101 -68.5 -163t-183.5 -62q-106 0 -171 40z" />
    <glyph glyph-name="uni0294" unicode="&#x294;" horiz-adv-x="438" 
d="M128 0v356q89 22 136.5 65.5t47.5 106.5q0 54 -33.5 87t-94.5 33q-75 0 -142 -36l-21 65q85 44 177 44q95 0 150 -52t55 -139q0 -81 -51 -138t-136 -85v-307h-88z" />
    <glyph glyph-name="uni0295" unicode="&#x295;" horiz-adv-x="438" 
d="M208 0v305q-85 27 -136 80t-51 133q0 91 65.5 147t169.5 56q90 0 149 -32l-22 -69q-56 28 -128 28q-64 0 -103.5 -35.5t-39.5 -91.5q0 -65 46 -103.5t138 -61.5v-356h-88z" />
    <glyph glyph-name="uni02A4" unicode="&#x2a4;" horiz-adv-x="928" 
d="M859 429l-170 -215q39 -6 72.5 -18.5t63.5 -35t47.5 -59.5t17.5 -85q0 -100 -68.5 -162.5t-182.5 -62.5q-105 0 -172 40l22 69q64 -38 151 -38q72 0 117 38.5t45 104.5q0 68 -47 105.5t-141 37.5h-29v47l170 219h-265v-290q0 -58 4 -124h-78l-4 83h-3q-20 -42 -63 -68
t-100 -26q-90 0 -149 68.5t-59 177.5q-1 117 62 188.5t155 71.5q52 0 90 -21t56 -53h2v289h87v-226h369v-55zM403 203v84q0 21 -4 38q-10 43 -44.5 71.5t-82.5 28.5q-67 0 -106 -52.5t-39 -133.5q0 -78 37.5 -129t105.5 -51q45 0 80.5 28.5t48.5 77.5q4 16 4 38z" />
    <glyph glyph-name="uni02A7" unicode="&#x2a7;" horiz-adv-x="532" 
d="M363 484v54q0 92 42 137.5t114 45.5q40 0 70 -15l-17 -68q-23 10 -50 10q-72 0 -72 -108v-568q0 -90 -42 -135t-112 -45q-43 0 -70 12l15 70q24 -9 50 -9q72 0 72 107v445h-184v-261q0 -94 63 -94q30 0 46 6l3 -68q-29 -11 -69 -11q-64 0 -96 37q-34 40 -34 127v264h-75
v67h75v116l87 23v-139h184z" />
    <glyph glyph-name="uni02B1" unicode="&#x2b1;" horiz-adv-x="379" 
d="M49 266v338q0 65 31.5 100t86.5 35q30 0 50 -9l-11 -49q-15 5 -34 5q-57 0 -57 -77v-73h1q35 55 101 55q49 0 82 -33.5t33 -102.5v-189h-67v181q0 91 -71 91q-26 0 -46.5 -15.5t-29.5 -37.5q-3 -13 -3 -29v-190h-66z" />
    <glyph glyph-name="uni02B9" unicode="&#x2b9;" horiz-adv-x="188" 
d="M36 452l44 240h86l-76 -240h-54z" />
    <glyph glyph-name="uni02BE" unicode="&#x2be;" horiz-adv-x="206" 
d="M43 490v52q30 0 47 18.5t17 44.5t-17 45t-47 19v51q59 0 94.5 -32.5t35.5 -81.5q0 -50 -36 -83t-94 -33z" />
    <glyph glyph-name="uni02BF" unicode="&#x2bf;" horiz-adv-x="206" 
d="M164 490q-59 0 -95 32.5t-36 81.5q0 51 36 83.5t95 32.5v-51q-31 0 -48 -19t-17 -45q0 -25 17.5 -44t47.5 -19v-52z" />
    <glyph glyph-name="circumflex" unicode="&#x2c6;" horiz-adv-x="300" 
d="M11 552l105 139h66l107 -139h-70l-69 90h-2l-68 -90h-69z" />
    <glyph glyph-name="caron" unicode="&#x2c7;" horiz-adv-x="300" 
d="M118 552l-107 139h71l68 -90h2l68 90h69l-105 -139h-66z" />
    <glyph glyph-name="uni02C8" unicode="&#x2c8;" horiz-adv-x="300" 
d="M118 569v145h64v-145h-64z" />
    <glyph glyph-name="uni02CC" unicode="&#x2cc;" horiz-adv-x="300" 
d="M118 -90h64v-147h-64v147z" />
    <glyph glyph-name="uni02D0" unicode="&#x2d0;" horiz-adv-x="221" 
d="M108 352l-80 132h163l-79 -132h-4zM28 0l80 131h4l79 -131h-163z" />
    <glyph glyph-name="breve" unicode="&#x2d8;" horiz-adv-x="300" 
d="M150 556q-60 0 -92.5 36t-35.5 85h54q14 -66 74 -66q62 0 74 66h53q-4 -56 -38 -88.5t-89 -32.5z" />
    <glyph glyph-name="dotaccent" unicode="&#x2d9;" horiz-adv-x="300" 
d="M139 570q-21 0 -35.5 15.5t-14.5 36.5q0 20 15 35.5t36 15.5t35 -15t14 -36q0 -22 -14 -37t-36 -15z" />
    <glyph glyph-name="ring" unicode="&#x2da;" horiz-adv-x="300" 
d="M142 537q-46 0 -75 26.5t-29 66.5q0 39 28.5 66.5t75.5 27.5q46 0 74 -26.5t28 -66.5t-28.5 -67t-73.5 -27zM141 577q24 0 37.5 15.5t13.5 37.5q0 21 -13.5 37.5t-37.5 16.5q-23 0 -36 -16t-13 -36q0 -22 13 -38.5t36 -16.5z" />
    <glyph glyph-name="ogonek" unicode="&#x2db;" horiz-adv-x="300" 
d="M63 -119q0 61 60 123h57q-53 -63 -53 -100q0 -23 14 -36.5t36 -13.5q24 0 46 9l14 -45q-30 -23 -81 -23q-43 0 -68 22t-25 64z" />
    <glyph glyph-name="tilde" unicode="&#x2dc;" horiz-adv-x="300" 
d="M11 570q-1 51 19.5 77t56.5 26q22 0 70 -23q5 -2 13 -6.5t13 -7.5t11 -5t11 -2q31 0 33 46h51q0 -106 -77 -106q-24 0 -69 25q-35 19 -50 19q-14 0 -21.5 -9t-8.5 -34h-52z" />
    <glyph glyph-name="hungarumlaut" unicode="&#x2dd;" horiz-adv-x="300" 
d="M41 556l60 136h80l-82 -136h-58zM195 556l60 136h81l-83 -136h-58z" />
    <glyph glyph-name="uni02E4" unicode="&#x2e4;" horiz-adv-x="301" 
d="M140 266v197q-126 39 -126 140q0 62 45.5 99t118.5 37q60 0 102 -21l-17 -50q-36 18 -85 18q-44 0 -70 -22.5t-26 -58.5q0 -76 123 -105v-234h-65z" />
    <glyph glyph-name="gravecomb" unicode="&#x300;" 
d="M-23 550l-116 143h96l91 -143h-71z" />
    <glyph glyph-name="acutecomb" unicode="&#x301;" 
d="M25 550h-72l96 143h96z" />
    <glyph glyph-name="uni0302" unicode="&#x302;" 
d="M69 552l-69 90h-2l-68 -90h-69l105 139h66l107 -139h-70z" />
    <glyph glyph-name="tildecomb" unicode="&#x303;" 
d="M63 569q-26 0 -69 25q-36 19 -50 19q-29 0 -31 -43h-52q-1 51 20.5 77t56.5 26q8 0 14 -1t14.5 -4t12 -4t15 -6.5t14.5 -7.5q40 -21 48 -21q30 0 33 46h51q0 -106 -77 -106z" />
    <glyph glyph-name="uni0304" unicode="&#x304;" 
d="M-122 587v61h245v-61h-245z" />
    <glyph glyph-name="uni0306" unicode="&#x306;" 
d="M-1 556q-59 0 -91.5 36t-35.5 85h54q14 -66 73 -66q64 0 74 66h54q-4 -56 -38 -88.5t-90 -32.5z" />
    <glyph glyph-name="uni0307" unicode="&#x307;" 
d="M0 570q-22 0 -36.5 15.5t-14.5 36.5q0 20 15 35.5t36 15.5t35 -15t14 -36t-14 -36.5t-35 -15.5z" />
    <glyph glyph-name="uni0308" unicode="&#x308;" 
d="M-92 570q-22 0 -36 15t-14 36t14.5 36t36.5 15q20 0 34 -15t14 -36t-14 -36t-35 -15zM93 570q-21 0 -35.5 15t-14.5 36t14.5 36t36.5 15q21 0 34.5 -15t13.5 -36t-13.5 -36t-35.5 -15z" />
    <glyph glyph-name="uni030A" unicode="&#x30a;" 
d="M1 537q-46 0 -75 26.5t-29 66.5q0 39 28.5 66.5t75.5 27.5q46 0 74 -26.5t28 -66.5t-28.5 -67t-73.5 -27zM0 577q24 0 37.5 15.5t13.5 37.5q0 21 -13.5 37.5t-37.5 16.5q-23 0 -36 -16t-13 -36q0 -22 13 -38.5t36 -16.5z" />
    <glyph glyph-name="uni030B" unicode="&#x30b;" 
d="M-60 556h-55l79 136h86zM30 556l78 136h87l-110 -136h-55z" />
    <glyph glyph-name="uni030C" unicode="&#x30c;" 
d="M31 550h-62l-96 143h67l59 -95h2l59 95h66z" />
    <glyph glyph-name="dotbelowcomb" unicode="&#x323;" 
d="M0 -80q21 0 35 -15t14 -37q0 -21 -14 -36t-36 -15q-21 0 -35.5 15t-14.5 36q0 22 15 37t36 15z" />
    <glyph glyph-name="uni0324" unicode="&#x324;" 
d="M-91 -80q20 0 34 -15t14 -36t-14 -36t-35 -15q-22 0 -36 15t-14 36t14.5 36t36.5 15zM94 -80q21 0 34.5 -15t13.5 -36t-13.5 -36t-35.5 -15q-21 0 -35.5 15t-14.5 36t14.5 36t36.5 15z" />
    <glyph glyph-name="uni0327" unicode="&#x327;" 
d="M-13 10h54l-35 -60q29 -6 49 -25t20 -48q0 -43 -29.5 -63t-73.5 -20q-42 0 -70 17l15 45q22 -13 55 -13q43 0 43 31q-1 34 -79 42z" />
    <glyph glyph-name="uni032A" unicode="&#x32a;" 
d="M123 -89v-122h-53v71h-140v-71h-53v122h246z" />
    <glyph glyph-name="uni032E" unicode="&#x32e;" 
d="M72 -82h52q0 -56 -34 -90.5t-90 -34.5q-62 0 -93 36.5t-31 88.5h52q5 -31 23.5 -50t48.5 -19q33 0 51 20.5t21 48.5z" />
    <glyph glyph-name="uni0330" unicode="&#x330;" 
d="M-58 -87q21 0 65 -23q31 -18 44 -18t20 9.5t8 34.5h51q2 -106 -72 -106q-24 0 -64 21q-35 19 -45 19q-24 0 -27 -47h-52q-1 51 18.5 80.5t53.5 29.5z" />
    <glyph glyph-name="uni0331" unicode="&#x331;" 
d="M-116 -103h233v-60h-233v60z" />
    <glyph glyph-name="uni035F" unicode="&#x35f;" 
d="M-116 -103h783v-60h-783v60z" />
    <glyph glyph-name="uni0361" unicode="&#x361;" 
d="M-48 563h-76q47 62 151 107t253 45q147 0 247.5 -44t153.5 -108h-77q-123 94 -325 94t-327 -94z" />
    <glyph glyph-name="theta" unicode="&#x3b8;" horiz-adv-x="534" 
d="M269 -11q-109 0 -170 94.5t-61 277.5q0 158 61.5 259t172.5 101q112 0 168 -96.5t56 -263.5q0 -174 -57 -273t-170 -99zM124 399h286q0 112 -37 184.5t-107 72.5q-64 0 -103 -75.5t-39 -181.5zM271 54q68 0 103.5 76t35.5 203h-285q0 -131 40 -205t106 -74z" />
    <glyph glyph-name="pi" unicode="&#x3c0;" horiz-adv-x="554" 
d="M57 0q26 69 45 192.5t21 222.5q-65 0 -98 -8l-12 51q38 26 139 26h378l-10 -69h-66v-271q0 -98 13 -144h-85q-16 28 -16 135v280h-158q-4 -105 -23.5 -232t-44.5 -183h-83z" />
    <glyph glyph-name="chi" unicode="&#x3c7;" horiz-adv-x="458" 
d="M177 -20l-91 -194l-76 23l174 347l-167 328h95l123 -261h4q23 52 51 107l72 154h86l-171 -327l176 -348l-82 -23l-144 297h-4q-1 -3 -18 -41.5t-28 -61.5z" />
    <glyph glyph-name="uni060C" unicode="&#x60c;" horiz-adv-x="382" 
d="M85 97q0 79 52 144.5t116 91.5l44 -41q-58 -26 -97 -70t-44 -85q42 9 69.5 -10.5t27.5 -58.5q0 -36 -22.5 -59t-58.5 -23q-38 0 -62.5 29t-24.5 82z" />
    <glyph glyph-name="uni0615" unicode="&#x615;" 
d="M-8 791l-28 54l58 -4q13 26 10 79l-12 164l45 4l7 -115q2 -39 -1 -57q42 63 100 63q31 0 49.5 -21t18.5 -51q0 -60 -51 -88t-127 -28h-69zM64 842q131 0 131 57q0 13 -9 21.5t-25 8.5q-48 0 -97 -87z" />
    <glyph glyph-name="uni061B" unicode="&#x61b;" horiz-adv-x="345" 
d="M177 298q-34 0 -57.5 27.5t-23.5 71.5q0 70 47 126t104 76l43 -39q-51 -18 -83.5 -49t-40.5 -65q40 4 64 -16t24 -56q0 -34 -22 -55t-55 -21zM94 70q0 36 22.5 59t55.5 23q36 0 57 -23t21 -59t-21.5 -59t-57.5 -23q-34 0 -55.5 23.5t-21.5 58.5z" />
    <glyph glyph-name="uni061F" unicode="&#x61f;" horiz-adv-x="463" 
d="M201 193l1 25q6 74 -56 147q-30 36 -44.5 56.5t-28 53t-13.5 64.5q0 60 43.5 103t126.5 43q88 0 141 -36l-24 -69q-48 33 -108 33q-43 0 -67 -23t-24 -61q0 -32 17 -62.5t55 -75.5q74 -87 61 -173l-2 -25h-78zM183 51q0 28 16 45.5t43 17.5q26 0 43 -17.5t17 -45.5
q0 -26 -17 -44t-42 -18q-27 0 -43.5 18t-16.5 44z" />
    <glyph glyph-name="uni0621" unicode="&#x621;" horiz-adv-x="466" 
d="M73 37l8 73q31 17 67 21q-58 36 -58 95t46 94.5t113 35.5q71 0 110 -31l-11 -67q-37 27 -100 27q-39 0 -64.5 -16t-25.5 -45q0 -36 41 -57t110 -21h83l-22 -74h-84q-134 0 -213 -35z" />
    <glyph glyph-name="uni0622" unicode="&#x622;" horiz-adv-x="251" 
d="M93 0l-28 720l75 6l28 -726h-75zM143 814q-24 0 -61 12t-53 12q-30 0 -37 -47l-47 17q1 40 21.5 65t59.5 25q25 0 65.5 -13t60.5 -13q33 0 70 34l9 -48q-25 -44 -88 -44z" />
    <glyph glyph-name="uni0623" unicode="&#x623;" horiz-adv-x="251" 
d="M93 0l-28 720l75 6l28 -726h-75zM120 809q-93 0 -134 -17l6 47q22 12 46 12q-36 26 -36 62q0 40 29.5 62.5t72.5 22.5q58 0 86 -26l-16 -46q-29 22 -72 22q-23 0 -37 -11t-14 -25q0 -24 24.5 -38t63.5 -14h66l-20 -51h-65z" />
    <glyph glyph-name="uni0624" unicode="&#x624;" horiz-adv-x="502" 
d="M346 538h-65q-93 0 -133 -17l6 47q19 12 45 12q-35 25 -35 62q0 40 29.5 62.5t72.5 22.5q57 0 85 -26l-15 -46q-29 22 -72 22q-24 0 -37.5 -11t-13.5 -25q0 -24 24.5 -38t63.5 -14h66zM14 -172l12 59q50 -27 125 -27q85 0 148.5 57t85.5 146q-28 -5 -60 -5
q-81 0 -136.5 44.5t-55.5 126.5q0 72 47 122t110 50q54 0 93 -39t55.5 -92.5t16.5 -113.5q0 -80 -21 -142q-37 -120 -111.5 -178t-162.5 -58q-96 0 -146 50zM195 242q0 -52 42 -75t99 -23q37 0 58 6q-1 85 -37 131t-80 46q-39 0 -60.5 -27t-21.5 -58z" />
    <glyph glyph-name="uni0625" unicode="&#x625;" horiz-adv-x="251" 
d="M93 0l-28 720l75 6l28 -726h-75zM150 -71q58 0 86 -26l-15 -46q-30 22 -72 22q-24 0 -38 -11t-14 -25q0 -24 24.5 -38t64.5 -14h65l-20 -51h-65q-93 0 -134 -17l6 47q22 12 46 12q-36 26 -36 62q0 39 30 62t72 23z" />
    <glyph glyph-name="uni0626" unicode="&#x626;" horiz-adv-x="715" 
d="M50 59q0 88 37 171l55 -7q-21 -73 -21 -130q0 -46 13 -82t34 -58.5t50 -37t58.5 -20.5t61.5 -6q140 0 213 75q34 38 34 63q0 15 -19.5 29.5t-81.5 33.5l-50 16q-62 19 -84.5 45t-22.5 72q0 88 71 162q74 74 159 74q92 0 115 -93l-48 -55q-12 32 -35 50.5t-51 18.5
q-60 0 -102.5 -45.5t-42.5 -89.5q0 -18 14 -30.5t57 -25.5l72 -23q60 -19 89 -43.5t29 -69.5q0 -73 -57 -137q-101 -111 -274 -111q-128 0 -200.5 68t-72.5 186zM179 385q-94 0 -134 -17l6 47q22 12 46 12q-36 26 -36 62q0 40 29.5 62.5t72.5 22.5q58 0 86 -26l-16 -46
q-29 22 -72 22q-23 0 -37 -11t-14 -25q0 -24 24.5 -38t63.5 -14h66l-20 -51h-65z" />
    <glyph glyph-name="uni0627" unicode="&#x627;" horiz-adv-x="251" 
d="M93 0l-28 720l75 6l28 -726h-75z" />
    <glyph glyph-name="uni0628" unicode="&#x628;" horiz-adv-x="884" 
d="M49 245q0 71 22 124l54 -11q-11 -44 -11 -84q0 -206 291 -206q225 0 352 51q1 8 1 20q-3 107 -71 231l72 20q68 -124 68 -259q0 -36 -10 -74q-179 -78 -417 -78q-351 0 -351 266zM457 -144q23 0 37.5 -15t14.5 -39q0 -25 -14.5 -40t-37.5 -15t-37.5 15t-14.5 40
q0 24 14.5 39t37.5 15z" />
    <glyph glyph-name="uni0629" unicode="&#x629;" horiz-adv-x="445" 
d="M127 574q-22 0 -36.5 14.5t-14.5 38.5t14.5 38.5t36.5 14.5q23 0 37 -14.5t14 -38.5t-14 -38.5t-37 -14.5zM261 574q-22 0 -35.5 14.5t-13.5 38.5t13.5 38.5t35.5 14.5q23 0 37 -14.5t14 -38.5q0 -25 -14 -39t-37 -14zM138 429l46 61q95 -69 160 -151q55 -75 55 -155
q0 -91 -56.5 -141.5t-127.5 -50.5q-76 0 -122.5 54t-46.5 130q0 106 112 238q-6 5 -20 15zM223 85q54 0 83 32.5t29 70.5q0 45 -30.5 89t-94.5 97q-100 -100 -100 -178q0 -50 33 -80.5t80 -30.5z" />
    <glyph glyph-name="uni062A" unicode="&#x62a;" horiz-adv-x="884" 
d="M49 245q0 71 22 124l54 -11q-11 -44 -11 -84q0 -206 291 -206q225 0 352 51q1 8 1 20q-3 107 -71 231l72 20q68 -124 68 -259q0 -36 -10 -74q-179 -78 -417 -78q-351 0 -351 266zM497 422q-22 0 -35.5 14.5t-13.5 38.5t13.5 38.5t35.5 14.5q23 0 37 -14.5t14 -38.5
q0 -25 -14 -39t-37 -14zM363 422q-22 0 -36.5 14.5t-14.5 38.5t14.5 38.5t36.5 14.5q23 0 37 -14.5t14 -38.5t-14 -38.5t-37 -14.5z" />
    <glyph glyph-name="uni062B" unicode="&#x62b;" horiz-adv-x="884" 
d="M49 245q0 71 22 124l54 -11q-11 -44 -11 -84q0 -206 291 -206q225 0 352 51q1 8 1 20q-3 107 -71 231l72 20q68 -124 68 -259q0 -36 -10 -74q-179 -78 -417 -78q-351 0 -351 266zM497 422q-23 0 -36.5 14.5t-13.5 39.5q0 22 14 37t36 15t35.5 -15t13.5 -37
q0 -25 -13.5 -39.5t-35.5 -14.5zM364 422q-22 0 -36 14.5t-14 39.5q0 22 14.5 37t35.5 15q22 0 36.5 -15t14.5 -37q0 -25 -14 -39.5t-37 -14.5zM431 543q-22 0 -35 14t-13 39q0 23 13 38t35 15q23 0 37 -15t14 -38q0 -25 -14 -39t-37 -14z" />
    <glyph glyph-name="uni062C" unicode="&#x62c;" horiz-adv-x="649" 
d="M51 -76q0 70 34.5 129t90 97t115.5 61.5t121 33.5q-8 3 -38 14.5t-54.5 20t-61 16t-67.5 7.5q-81 0 -135 -26l17 86q49 22 125 22q27 0 54.5 -4t59.5 -14t50 -16.5t56 -21t47 -18.5q66 -27 98 -27l51 -1l-21 -88q-22 3 -73 3q-46 0 -119 -15q-115 -28 -190.5 -92.5
t-75.5 -158.5q0 -76 48 -130t125 -79t174 -25q55 0 131 14l-33 -78q-55 -17 -131 -17q-174 0 -286 81t-112 226zM456 -49q0 -25 -14.5 -40t-38.5 -15q-23 0 -37 15t-14 40q0 24 14.5 39t37.5 15t37.5 -15t14.5 -39z" />
    <glyph glyph-name="uni062D" unicode="&#x62d;" horiz-adv-x="649" 
d="M51 -76q0 70 34.5 129t90 97t115.5 61.5t121 33.5q-8 3 -38 14.5t-54.5 20t-61 16t-67.5 7.5q-81 0 -135 -26l17 86q49 22 125 22q27 0 54.5 -4t59.5 -14t50 -16.5t56 -21t47 -18.5q66 -27 98 -27l51 -1l-21 -88q-22 3 -73 3q-46 0 -119 -15q-115 -28 -190.5 -92.5
t-75.5 -158.5q0 -76 48 -130t125 -79t174 -25q55 0 131 14l-33 -78q-55 -17 -131 -17q-174 0 -286 81t-112 226z" />
    <glyph glyph-name="uni062E" unicode="&#x62e;" horiz-adv-x="649" 
d="M51 -76q0 70 34.5 129t90 97t115.5 61.5t121 33.5q-8 3 -38 14.5t-54.5 20t-61 16t-67.5 7.5q-81 0 -135 -26l17 86q49 22 125 22q27 0 54.5 -4t59.5 -14t50 -16.5t56 -21t47 -18.5q66 -27 98 -27l51 -1l-21 -88q-22 3 -73 3q-46 0 -119 -15q-115 -28 -190.5 -92.5
t-75.5 -158.5q0 -76 48 -130t125 -79t174 -25q55 0 131 14l-33 -78q-55 -17 -131 -17q-174 0 -286 81t-112 226zM354 508q-23 0 -37 15t-14 40q0 23 14.5 38.5t37.5 15.5t37.5 -15.5t14.5 -38.5q0 -25 -14.5 -40t-38.5 -15z" />
    <glyph glyph-name="uni062F" unicode="&#x62f;" horiz-adv-x="479" 
d="M56 21l-14 90q53 -20 156 -20q109 0 159 37q1 64 -53 146t-170 149l63 54q100 -56 164.5 -150t64.5 -195q0 -42 -6 -58q-72 -74 -232 -74q-84 0 -132 21z" />
    <glyph glyph-name="uni0630" unicode="&#x630;" horiz-adv-x="479" 
d="M56 21l-14 90q53 -20 156 -20q109 0 159 37q1 64 -53 146t-170 149l63 54q100 -56 164.5 -150t64.5 -195q0 -42 -6 -58q-72 -74 -232 -74q-84 0 -132 21zM194 606q-23 0 -37 15t-14 40q0 23 14.5 38.5t37.5 15.5t37.5 -15.5t14.5 -38.5q0 -25 -14.5 -40t-38.5 -15z" />
    <glyph glyph-name="uni0631" unicode="&#x631;" horiz-adv-x="459" 
d="M34 -109q50 -28 115 -28q25 0 51 8.5t58 35t54 68.5q24 46 24 81q0 106 -94 295l74 32q34 -67 60.5 -156.5t26.5 -157.5q0 -58 -22 -112q-33 -84 -95 -131t-130 -47q-44 0 -80.5 14.5t-54.5 35.5z" />
    <glyph glyph-name="uni0632" unicode="&#x632;" horiz-adv-x="459" 
d="M34 -109q50 -28 115 -28q25 0 51 8.5t58 35t54 68.5q24 46 24 81q0 106 -94 295l74 32q34 -67 60.5 -156.5t26.5 -157.5q0 -58 -22 -112q-33 -84 -95 -131t-130 -47q-44 0 -80.5 14.5t-54.5 35.5zM244 499q-23 0 -37 15t-14 40q0 23 14.5 38.5t37.5 15.5t37.5 -15.5
t14.5 -38.5q0 -25 -14.5 -40t-38.5 -15z" />
    <glyph glyph-name="uni0633" unicode="&#x633;" horiz-adv-x="1023" 
d="M51 26q0 86 33 155l54 -10q-18 -62 -18 -121q0 -81 50 -129t125 -48q70 0 120.5 34.5t68.5 91.5q8 18 8 36q-6 83 -65 213l72 27q29 -64 49 -151q11 -37 55 -37q40 0 65.5 29.5t37.5 101.5l63 3q-8 -37 -8 -55q-2 -78 68 -78q33 0 55 21.5t22 55.5q0 55 -34 123l73 21
q24 -46 24 -130q0 -83 -42.5 -131t-106.5 -48q-79 0 -106 72q-39 -72 -117 -72q-26 0 -45 12q-4 -33 -8 -45q-26 -87 -97.5 -135t-165.5 -48q-104 0 -167 68.5t-63 173.5z" />
    <glyph glyph-name="uni0634" unicode="&#x634;" horiz-adv-x="1023" 
d="M51 26q0 86 33 155l54 -10q-18 -62 -18 -121q0 -81 50 -129t125 -48q70 0 120.5 34.5t68.5 91.5q8 18 8 36q-6 83 -65 213l72 27q29 -64 49 -151q11 -37 55 -37q40 0 65.5 29.5t37.5 101.5l63 3q-8 -37 -8 -55q-2 -78 68 -78q33 0 55 21.5t22 55.5q0 55 -34 123l73 21
q24 -46 24 -130q0 -83 -42.5 -131t-106.5 -48q-79 0 -106 72q-39 -72 -117 -72q-26 0 -45 12q-4 -33 -8 -45q-26 -87 -97.5 -135t-165.5 -48q-104 0 -167 68.5t-63 173.5zM779 388q-23 0 -36.5 14.5t-13.5 39.5q0 22 14 37t36 15t35.5 -15t13.5 -37q0 -25 -13.5 -39.5
t-35.5 -14.5zM646 388q-22 0 -36 14.5t-14 39.5q0 22 14.5 37t35.5 15q22 0 36.5 -15t14.5 -37q0 -25 -14 -39.5t-37 -14.5zM713 509q-22 0 -35 14t-13 39q0 23 13 38t35 15q23 0 37 -15t14 -38q0 -25 -14 -39t-37 -14z" />
    <glyph glyph-name="uni0635" unicode="&#x635;" horiz-adv-x="1204" 
d="M51 9q0 83 37 154l54 -10q-23 -64 -23 -119q0 -81 49.5 -124.5t122.5 -43.5q67 0 118.5 30t71.5 89q7 14 7 31q0 87 -57 216l70 32q1 -2 3.5 -10.5t5.5 -15.5q20 -60 36.5 -86t47.5 -42q32 52 69.5 97.5t84 88t101.5 67t110 24.5q87 0 143 -58t56 -131q0 -109 -144 -166
q-97 -39 -247 -39q-154 0 -217 52q0 -63 -8 -90q-25 -83 -95 -130t-167 -47q-107 0 -168 63.5t-61 167.5zM654 94q45 -12 116 -12q130 0 203 21q120 36 120 93q0 41 -40 76t-105 35q-63 0 -142 -52.5t-152 -160.5z" />
    <glyph glyph-name="uni0636" unicode="&#x636;" horiz-adv-x="1204" 
d="M51 9q0 83 37 154l54 -10q-23 -64 -23 -119q0 -81 49.5 -124.5t122.5 -43.5q67 0 118.5 30t71.5 89q7 14 7 31q0 87 -57 216l70 32q1 -2 3.5 -10.5t5.5 -15.5q20 -60 36.5 -86t47.5 -42q32 52 69.5 97.5t84 88t101.5 67t110 24.5q87 0 143 -58t56 -131q0 -109 -144 -166
q-97 -39 -247 -39q-154 0 -217 52q0 -63 -8 -90q-25 -83 -95 -130t-167 -47q-107 0 -168 63.5t-61 167.5zM654 94q45 -12 116 -12q130 0 203 21q120 36 120 93q0 41 -40 76t-105 35q-63 0 -142 -52.5t-152 -160.5zM815 513q-23 0 -37 15t-14 40q0 23 14.5 38.5t37.5 15.5
t37.5 -15.5t14.5 -38.5q0 -25 -14.5 -40t-38.5 -15z" />
    <glyph glyph-name="uni0637" unicode="&#x637;" horiz-adv-x="766" 
d="M46 13l-31 93q50 -15 124 -15q20 34 27 49q11 27 8 98l-19 482l74 6l14 -361q5 -102 0 -147q60 76 132.5 122.5t146.5 46.5q86 0 142 -57t56 -131q0 -106 -110 -154q-103 -45 -380 -45q-113 0 -184 13zM219 91h31q242 0 317 24q44 14 66 32.5t22 50.5q0 39 -38.5 74
t-104.5 35q-67 0 -146.5 -55t-146.5 -161z" />
    <glyph glyph-name="uni0638" unicode="&#x638;" horiz-adv-x="766" 
d="M46 13l-31 93q50 -15 124 -15q20 34 27 49q11 27 8 98l-19 482l74 6l14 -361q5 -102 0 -147q60 76 132.5 122.5t146.5 46.5q86 0 142 -57t56 -131q0 -106 -110 -154q-103 -45 -380 -45q-113 0 -184 13zM219 91h31q242 0 317 24q44 14 66 32.5t22 50.5q0 39 -38.5 74
t-104.5 35q-67 0 -146.5 -55t-146.5 -161zM461 513q-23 0 -37.5 15t-14.5 40q0 23 15 38.5t37 15.5q23 0 37.5 -15.5t14.5 -38.5q0 -25 -14.5 -40t-37.5 -15z" />
    <glyph glyph-name="uni0639" unicode="&#x639;" horiz-adv-x="550" 
d="M36 -103q0 71 39 131t109 102q-52 31 -80 75t-28 93q0 79 60 133.5t149 54.5q81 0 133 -36l6 -74q-52 31 -137 31q-68 0 -106.5 -34.5t-38.5 -73.5t37.5 -74t84.5 -47q24 7 228 71l-14 -94q-107 -25 -197 -58q-84 -32 -128 -82t-44 -111q0 -34 16.5 -68t50.5 -65.5
t96.5 -51.5t143.5 -20q89 0 157 16l-31 -77q-56 -20 -145 -20q-166 0 -263.5 76t-97.5 203z" />
    <glyph glyph-name="uni063A" unicode="&#x63a;" horiz-adv-x="550" 
d="M36 -103q0 71 39 131t109 102q-52 31 -80 75t-28 93q0 79 60 133.5t149 54.5q81 0 133 -36l6 -74q-52 31 -137 31q-68 0 -106.5 -34.5t-38.5 -73.5t37.5 -74t84.5 -47q24 7 228 71l-14 -94q-107 -25 -197 -58q-84 -32 -128 -82t-44 -111q0 -34 16.5 -68t50.5 -65.5
t96.5 -51.5t143.5 -20q89 0 157 16l-31 -77q-56 -20 -145 -20q-166 0 -263.5 76t-97.5 203zM233 606q-23 0 -37 15t-14 40q0 23 14.5 38.5t37.5 15.5q22 0 36.5 -15.5t14.5 -38.5q0 -25 -14.5 -40t-37.5 -15z" />
    <glyph glyph-name="uni0640" unicode="&#x640;" horiz-adv-x="265" 
d="M0 91h265q50 0 50 -46q0 -18 -12 -31.5t-38 -13.5h-265q-50 0 -50 47q0 17 12 30.5t38 13.5z" />
    <glyph glyph-name="uni0641" unicode="&#x641;" horiz-adv-x="901" 
d="M657 620q-23 0 -37.5 15t-14.5 40q0 23 15 38.5t37 15.5q23 0 37.5 -15.5t14.5 -38.5q0 -25 -14.5 -40t-37.5 -15zM77 388l54 -11q-16 -64 -16 -105q0 -105 76.5 -154.5t211.5 -49.5q118 0 219.5 18t149.5 39q3 14 6 34q-136 -8 -197.5 39t-61.5 117t52 126q51 54 115 54
t112.5 -70.5t48.5 -203.5q0 -86 -25 -151q-54 -36 -176 -63.5t-250 -27.5q-70 0 -125.5 11t-92.5 31.5t-63 45t-39.5 55.5t-19.5 59.5t-6 59.5q0 76 27 147zM581 325q0 -46 54.5 -70t147.5 -19q-3 78 -30.5 129t-78.5 51q-38 0 -65.5 -27.5t-27.5 -63.5z" />
    <glyph glyph-name="uni0642" unicode="&#x642;" horiz-adv-x="726" 
d="M414 535q-22 0 -36.5 14.5t-14.5 38.5t14.5 38.5t36.5 14.5t36.5 -14.5t14.5 -38.5t-14.5 -38.5t-36.5 -14.5zM548 535q-23 0 -36 14t-13 39q0 24 13.5 38.5t35.5 14.5q23 0 37 -14.5t14 -38.5t-14 -38.5t-37 -14.5zM90 289l55 -7q-26 -72 -26 -153q0 -109 63 -167
t158 -58q80 0 146 30.5t98 83.5q10 15 17 55q-32 -5 -69 -5q-87 2 -135.5 43.5t-48.5 119.5q0 72 50 125t106 53q73 0 120.5 -73.5t47.5 -189.5q0 -42 -10 -93t-19 -67q-38 -72 -119.5 -120t-196.5 -48q-124 0 -200.5 76t-76.5 210q0 103 40 185zM413 243q0 -38 31.5 -64.5
t100.5 -26.5q37 0 62 4q-3 83 -36.5 129t-80.5 46q-32 0 -54.5 -24.5t-22.5 -63.5z" />
    <glyph glyph-name="uni0643" unicode="&#x643;" horiz-adv-x="794" 
d="M50 214q0 45 13 84l54 -10q-4 -36 -4 -55q0 -75 64.5 -110.5t171.5 -35.5q149 0 279 27q4 24 0 92l-20 514l75 6l21 -547q4 -97 -3 -128q-153 -51 -360 -51q-84 0 -144 19t-90.5 52t-43.5 68t-13 75zM297 279l-17 44q45 1 82 10.5t54 20.5t17 20q0 12 -59 16
q-38 2 -53 14.5t-15 35.5q0 46 41 87.5t105 50.5v-63q-49 -8 -73.5 -24t-24.5 -34q0 -11 49 -15q46 -4 61.5 -17t15.5 -37q0 -49 -48 -80.5t-101 -31.5q-25 0 -34 3z" />
    <glyph glyph-name="uni0644" unicode="&#x644;" horiz-adv-x="656" 
d="M52 90q0 74 31 153l58 -9q-17 -60 -17 -119q0 -89 51 -129.5t122 -40.5q58 0 109 22t74 63q9 15 7 52l-26 638l75 6l26 -628q1 -60 -16 -94q-33 -68 -105 -106t-150 -38q-112 0 -175.5 62.5t-63.5 167.5z" />
    <glyph glyph-name="uni0645" unicode="&#x645;" horiz-adv-x="772" 
d="M30 -94q115 48 204.5 102t122.5 102q15 15 49 122q30 92 65.5 131t91.5 39q68 0 115.5 -66.5t47.5 -139.5q0 -62 -31.5 -102t-79.5 -40q-87 0 -180 71q-22 -68 -43 -95q-40 -53 -131.5 -102.5t-182.5 -71.5zM463 209q29 -28 71.5 -48t80.5 -20q21 0 34.5 15t13.5 39
q0 46 -32.5 87.5t-72.5 41.5q-31 0 -53 -24.5t-42 -90.5z" />
    <glyph glyph-name="uni0646" unicode="&#x646;" horiz-adv-x="645" 
d="M47 84q0 87 35 159l57 -10q-20 -64 -20 -124q0 -82 52.5 -128t135.5 -46q152 0 203 104q12 20 12 43q0 104 -87 277l77 25q76 -150 76 -289q0 -53 -23 -99q-36 -74 -107 -113t-163 -39q-112 0 -180 66t-68 174zM283 454q-23 0 -37.5 15t-14.5 39t14.5 39t37.5 15
t37.5 -15t14.5 -39q0 -25 -14.5 -39.5t-37.5 -14.5z" />
    <glyph glyph-name="uni0647" unicode="&#x647;" horiz-adv-x="445" 
d="M138 429l46 61q95 -69 160 -151q55 -75 55 -155q0 -91 -56.5 -141.5t-127.5 -50.5q-76 0 -122.5 54t-46.5 130q0 106 112 238q-6 5 -20 15zM223 85q54 0 83 32.5t29 70.5q0 45 -30.5 89t-94.5 97q-100 -100 -100 -178q0 -50 33 -80.5t80 -30.5z" />
    <glyph glyph-name="uni0648" unicode="&#x648;" horiz-adv-x="502" 
d="M14 -172l12 59q50 -27 125 -27q85 0 148.5 57t85.5 146q-28 -5 -60 -5q-81 0 -136.5 44.5t-55.5 126.5q0 72 47 122t110 50q54 0 93 -39t55.5 -92.5t16.5 -113.5q0 -80 -21 -142q-37 -120 -111.5 -178t-162.5 -58q-96 0 -146 50zM195 242q0 -52 42 -75t99 -23q37 0 58 6
q-1 85 -37 131t-80 46q-39 0 -60.5 -27t-21.5 -58z" />
    <glyph glyph-name="uni0649" unicode="&#x649;" horiz-adv-x="715" 
d="M50 59q0 88 37 171l55 -7q-21 -73 -21 -130q0 -46 13 -82t34 -58.5t50 -37t58.5 -20.5t61.5 -6q140 0 213 75q34 38 34 63q0 15 -19.5 29.5t-81.5 33.5l-50 16q-62 19 -84.5 45t-22.5 72q0 88 71 162q74 74 159 74q92 0 115 -93l-48 -55q-12 32 -35 50.5t-51 18.5
q-60 0 -102.5 -45.5t-42.5 -89.5q0 -18 14 -30.5t57 -25.5l72 -23q60 -19 89 -43.5t29 -69.5q0 -73 -57 -137q-101 -111 -274 -111q-128 0 -200.5 68t-72.5 186z" />
    <glyph glyph-name="uni064A" unicode="&#x64a;" horiz-adv-x="715" 
d="M50 59q0 88 37 171l55 -7q-21 -73 -21 -130q0 -46 13 -82t34 -58.5t50 -37t58.5 -20.5t61.5 -6q140 0 213 75q34 38 34 63q0 15 -19.5 29.5t-81.5 33.5l-50 16q-62 19 -84.5 45t-22.5 72q0 88 71 162q74 74 159 74q92 0 115 -93l-48 -55q-12 32 -35 50.5t-51 18.5
q-60 0 -102.5 -45.5t-42.5 -89.5q0 -18 14 -30.5t57 -25.5l72 -23q60 -19 89 -43.5t29 -69.5q0 -73 -57 -137q-101 -111 -274 -111q-128 0 -200.5 68t-72.5 186zM430 -291q23 0 37 -14.5t14 -38.5t-14 -38.5t-37 -14.5q-22 0 -35.5 14.5t-13.5 38.5t13.5 38.5t35.5 14.5z
M296 -291q23 0 37 -14.5t14 -38.5t-14 -38.5t-37 -14.5q-22 0 -36.5 14.5t-14.5 38.5t14.5 38.5t36.5 14.5z" />
    <glyph glyph-name="uni064B" unicode="&#x64b;" 
d="M-35 766l-10 55q184 58 255 89l11 -58q-91 -40 -256 -86zM-40 892l-10 55q191 61 255 89l11 -58q-102 -43 -256 -86z" />
    <glyph glyph-name="uni064C" unicode="&#x64c;" 
d="M-17 770q-4 0 -13.5 0.5t-12.5 0.5q13 52 13 97q0 28 -20 28q-28 0 -55 -20l6 50q30 23 63 23q50 0 50 -70q0 -28 -5 -53q35 0 71.5 12t55.5 35q-45 3 -75 29.5t-30 63.5q0 42 27 68t65 26q33 0 59 -29t26 -83q0 -89 -66 -133.5t-159 -44.5zM162 923q7 29 -7 59t-43 30
q-17 0 -28.5 -10.5t-11.5 -26.5q0 -23 24.5 -38t65.5 -14z" />
    <glyph glyph-name="uni064D" unicode="&#x64d;" 
d="M123 -130l11 -58q-94 -39 -256 -86l-11 55q195 62 256 89zM118 -4l11 -58q-94 -39 -256 -86l-11 55q195 62 256 89z" />
    <glyph glyph-name="uni064E" unicode="&#x64e;" 
d="M-35 766l-10 55q155 46 255 89l11 -58q-87 -38 -256 -86z" />
    <glyph glyph-name="uni064F" unicode="&#x64f;" 
d="M39 783q-45 0 -64 14v39q22 -6 53 -6q28 0 57.5 11.5t41.5 31.5q-49 -3 -81 19.5t-32 66.5q0 38 26.5 64.5t65.5 26.5q32 0 60 -27.5t28 -80.5q0 -73 -48 -116t-107 -43zM149 915q5 38 -9 63t-45 25q-16 0 -28 -11t-12 -27q0 -23 23 -38t71 -12z" />
    <glyph glyph-name="uni0650" unicode="&#x650;" 
d="M118 -4l11 -58q-86 -37 -256 -86l-11 55q195 62 256 89z" />
    <glyph glyph-name="uni0651" unicode="&#x651;" 
d="M18 781q-65 0 -65 87q0 27 7 53l42 17q-5 -28 -5 -61q0 -39 25 -39q49 0 42 119l40 16q4 -99 46 -99q31 0 31 41q-2 35 -21 77l46 19q20 -48 20 -96q0 -44 -22 -71t-51 -27q-38 0 -57 33q-11 -32 -35 -50.5t-43 -18.5z" />
    <glyph glyph-name="uni0652" unicode="&#x652;" 
d="M93 796q-45 0 -72.5 26t-28.5 72q0 49 29.5 88t71.5 39t71 -39t29 -88q0 -46 -28 -72t-72 -26zM93 845q25 0 40 13t15 38q0 31 -16 53t-39 22q-24 0 -40 -21t-16 -54q0 -23 15.5 -37t40.5 -14z" />
    <glyph glyph-name="uni0653" unicode="&#x653;" 
d="M-6 789l-49 16q1 38 22 64.5t59 26.5q25 0 65.5 -13t60.5 -13q33 0 70 33l9 -45q-27 -47 -88 -47q-24 0 -60.5 12.5t-52.5 12.5q-29 0 -36 -47z" />
    <glyph glyph-name="uni0654" unicode="&#x654;" 
d="M-13 790l6 47q22 12 46 12q-36 24 -36 62q0 40 29.5 62.5t72.5 22.5q56 0 86 -26l-16 -46q-29 22 -72 22q-24 0 -37.5 -11t-13.5 -25q0 -24 24.5 -38t63.5 -14h66l-21 -51h-65q-93 0 -133 -17z" />
    <glyph glyph-name="uni0655" unicode="&#x655;" 
d="M21 -25q57 0 86 -27l-16 -46q-30 23 -72 23q-24 0 -37.5 -11.5t-13.5 -24.5q0 -24 24.5 -38.5t63.5 -14.5h66l-21 -50h-65q-90 0 -133 -17l6 47q18 11 45 11q-35 27 -35 63q0 40 29.5 62.5t72.5 22.5z" />
    <glyph glyph-name="uni0656" unicode="&#x656;" 
d="M31 -23l9 -242l-60 -5l-17 242z" />
    <glyph glyph-name="uni0657" unicode="&#x657;" 
d="M72 791q-26 0 -48 23.5t-22 70.5q0 70 54 118.5t125 48.5l12 -45q-45 -2 -83.5 -24.5t-49.5 -60.5q36 4 57.5 -13.5t21.5 -50.5t-18.5 -50t-48.5 -17z" />
    <glyph glyph-name="uni0658" unicode="&#x658;" 
d="M91 796q-48 0 -79 35.5t-37 111.5l45 11q10 -96 77 -96q33 0 50 25.5t28 79.5l44 -5q-7 -79 -40 -120.5t-88 -41.5z" />
    <glyph glyph-name="uni0659" unicode="&#x659;" 
d="M-30 795l10 59h249l-10 -59h-249z" />
    <glyph glyph-name="uni065A" unicode="&#x65a;" 
d="M70 795q-30 67 -104 160l44 34q47 -54 88 -126q41 67 92 129l39 -31q-67 -86 -108 -166h-51z" />
    <glyph glyph-name="uni065B" unicode="&#x65b;" 
d="M6 782l-40 31q72 92 108 166h52q27 -65 103 -160l-44 -34q-47 54 -88 126q-40 -67 -91 -129z" />
    <glyph glyph-name="uni065C" unicode="&#x65c;" 
d="M1 -17q23 0 37 -15t14 -39q0 -25 -14 -40t-38 -15q-23 0 -37 15t-14 40q0 23 14.5 38.5t37.5 15.5z" />
    <glyph glyph-name="uni065D" unicode="&#x65d;" 
d="M135 783q-61 0 -110.5 39.5t-49.5 114.5q0 53 30 83t66 30q38 0 62.5 -26t24.5 -65q0 -37 -29.5 -63t-78.5 -28q51 -46 146 -35l-4 -38q-24 -12 -57 -12zM23 909q43 1 67.5 15.5t24.5 37.5q0 16 -12.5 28.5t-29.5 12.5q-21 0 -36.5 -17.5t-15.5 -52.5q0 -14 2 -24z" />
    <glyph glyph-name="uni065E" unicode="&#x65e;" 
d="M3 792l-25 33l214 197l27 -32zM19 948q-17 0 -26.5 10t-9.5 27t10 27.5t26 10.5t26 -10.5t10 -27.5t-9.5 -27t-26.5 -10zM175 786q-15 0 -25 11t-10 28q0 16 10.5 27t25.5 11q16 0 26 -10.5t10 -27.5t-10 -28t-27 -11z" />
    <glyph glyph-name="uni0660" unicode="&#x660;" horiz-adv-x="262" 
d="M131 223q-37 0 -60 23t-23 62t23 63t61 24q36 0 59 -24t23 -63q0 -38 -23 -61.5t-59 -23.5h-1z" />
    <glyph glyph-name="uni0661" unicode="&#x661;" horiz-adv-x="285" 
d="M176 0q-16 379 -146 651l85 9q59 -124 97 -305t43 -355h-79z" />
    <glyph glyph-name="uni0662" unicode="&#x662;" horiz-adv-x="485" 
d="M175 0q-13 373 -145 651l84 7q4 -8 13 -31.5t17 -41t13 -24.5q35 -54 113 -54q49 0 81 33.5t34 110.5l65 5q1 -6 1 -26q0 -92 -49.5 -147.5t-124.5 -55.5q-58 0 -94 28q25 -84 46.5 -210t24.5 -245h-79z" />
    <glyph glyph-name="uni0663" unicode="&#x663;" horiz-adv-x="533" 
d="M176 0q-13 374 -146 651l84 9q16 -30 39 -96q23 -53 68 -53q63 0 63 77q0 29 -6 63l58 4q6 -65 21.5 -89.5t39.5 -24.5q22 0 32.5 17t10.5 61q0 15 -3 32l57 5q5 -32 5 -61q0 -66 -26.5 -100.5t-64.5 -34.5q-45 0 -73 43q-11 -38 -36 -57.5t-55 -19.5q-38 0 -59 26
q59 -193 69 -452h-78z" />
    <glyph glyph-name="uni0664" unicode="&#x664;" horiz-adv-x="451" 
d="M105 151q0 50 29.5 92.5t78.5 71.5q-71 5 -110 41.5t-39 88.5q0 77 71 137t176 81l23 -76q-105 -25 -153 -62.5t-48 -74.5q0 -30 35 -50t107 -20q43 0 81 6v-75q-95 -22 -137 -62.5t-42 -81.5q0 -33 26 -57t83 -24q78 0 144 37l4 -79q-63 -47 -159 -47q-68 0 -119 40.5
t-51 113.5z" />
    <glyph glyph-name="uni0665" unicode="&#x665;" horiz-adv-x="510" 
d="M244 45q-75 0 -131 56.5t-57 180.5q0 146 62 247t147 101q57 0 102 -52.5t66.5 -124.5t21.5 -143q0 -75 -19.5 -132t-68 -95t-123.5 -38zM252 134q51 0 83.5 27.5t43 62t10.5 76.5q0 23 -5.5 56.5t-18.5 77t-42 73t-69 29.5q-39 0 -70 -38t-45.5 -89t-14.5 -101
q0 -174 128 -174z" />
    <glyph glyph-name="uni0666" unicode="&#x666;" horiz-adv-x="459" 
d="M341 0q-93 222 -84 566h-106q-98 0 -138 11l11 82q37 -8 160 -8h155q-7 -67 -7 -152q0 -115 22 -254.5t70 -244.5h-83z" />
    <glyph glyph-name="uni0667" unicode="&#x667;" horiz-adv-x="536" 
d="M237 0q-80 399 -215 651l94 5q50 -105 100.5 -272t66.5 -281h3q15 100 57 267t86 286l85 -5q-44 -102 -100 -299.5t-86 -351.5h-91z" />
    <glyph glyph-name="uni0668" unicode="&#x668;" horiz-adv-x="536" 
d="M22 0q45 105 102.5 303t85.5 347l92 6q97 -434 212 -656h-93q-48 101 -98 265t-67 271h-3q-15 -97 -57.5 -255.5t-87.5 -280.5h-86z" />
    <glyph glyph-name="uni0669" unicode="&#x669;" horiz-adv-x="476" 
d="M364 0q-25 98 -50 309q-32 -7 -79 -7q-82 0 -137.5 46t-55.5 128q0 77 51.5 131.5t118.5 54.5q136 0 165 -237q2 -19 9 -85t9 -82t8.5 -63t11 -69.5t12 -57.5t17.5 -68h-80zM253 384q39 0 54 5q-8 109 -35.5 150t-71.5 41q-37 0 -63.5 -29t-26.5 -66q0 -52 38.5 -76.5
t104.5 -24.5z" />
    <glyph glyph-name="uni066A" unicode="&#x66a;" horiz-adv-x="553" 
d="M37 17q64 122 183 325.5t206 340.5l53 -41q-220 -342 -385 -663zM116 538q-25 0 -41.5 17t-16.5 46q0 26 17 43.5t42 17.5q26 0 42.5 -17.5t16.5 -43.5q0 -29 -16.5 -46t-43.5 -17zM337 63q0 26 17 43.5t42 17.5q26 0 42.5 -17.5t16.5 -43.5q0 -29 -16 -46t-43 -17
q-26 0 -42.5 17t-16.5 46z" />
    <glyph glyph-name="uni066B" unicode="&#x66b;" horiz-adv-x="386" 
d="M85 27q58 27 97 71t44 85q-42 -10 -69.5 10t-27.5 58q0 37 22.5 59.5t58.5 22.5q38 0 62.5 -29t24.5 -82q0 -78 -52.5 -144t-115.5 -92z" />
    <glyph glyph-name="uni066C" unicode="&#x66c;" horiz-adv-x="386" 
d="M85 97q0 79 52 144.5t116 91.5l44 -41q-58 -26 -97 -70t-44 -85q42 9 69.5 -10.5t27.5 -58.5q0 -36 -22.5 -59t-58.5 -23q-38 0 -62.5 29t-24.5 82z" />
    <glyph glyph-name="uni066D" unicode="&#x66d;" horiz-adv-x="641" 
d="M155 13l68 191l-167 112l3 7l201 -7l56 196h8l56 -196l203 7l2 -5l-170 -114l68 -191l-4 -4l-160 125l-158 -125z" />
    <glyph glyph-name="uni066E" unicode="&#x66e;" horiz-adv-x="884" 
d="M49 245q0 71 22 124l54 -11q-11 -44 -11 -84q0 -206 291 -206q225 0 352 51q1 8 1 20q-3 107 -71 231l72 20q68 -124 68 -259q0 -36 -10 -74q-179 -78 -417 -78q-351 0 -351 266z" />
    <glyph glyph-name="uni066F" unicode="&#x66f;" horiz-adv-x="726" 
d="M90 289l55 -7q-26 -72 -26 -153q0 -109 63 -167t158 -58q80 0 146 30.5t98 83.5q10 15 17 55q-32 -5 -69 -5q-87 2 -135.5 43.5t-48.5 119.5q0 72 50 125t106 53q73 0 120.5 -73.5t47.5 -189.5q0 -42 -10 -93t-19 -67q-38 -72 -119.5 -120t-196.5 -48q-124 0 -200.5 76
t-76.5 210q0 103 40 185zM413 243q0 -38 31.5 -64.5t100.5 -26.5q37 0 62 4q-3 83 -36.5 129t-80.5 46q-32 0 -54.5 -24.5t-22.5 -63.5z" />
    <glyph glyph-name="uni0670" unicode="&#x670;" 
d="M67 797l-17 241l68 5l9 -242z" />
    <glyph glyph-name="uni0671" unicode="&#x671;" horiz-adv-x="251" 
d="M93 0l-28 720l75 6l28 -726h-75zM104 802q-30 0 -69.5 17.5t-50.5 17.5q-24 0 -43 -23v56q17 26 45 26q5 0 21 -4q59 93 117 93q37 0 59.5 -25.5t22.5 -63.5q0 -41 -30 -67.5t-72 -26.5zM111 858q20 0 34 9t15 24q0 17 -10 28t-28 12q-38 0 -76 -57q27 -16 65 -16z" />
    <glyph glyph-name="uni0674" unicode="&#x674;" horiz-adv-x="296" 
d="M35 730l6 47q19 12 45 12q-35 25 -35 62q0 40 29.5 62.5t72.5 22.5q56 0 86 -26l-16 -46q-29 22 -72 22q-24 0 -37.5 -11t-13.5 -25q0 -24 24.5 -38t63.5 -14h66l-21 -51h-65q-93 0 -133 -17z" />
    <glyph glyph-name="uni0675" unicode="&#x675;" horiz-adv-x="322" 
d="M93 0l-28 720l75 6l28 -726h-75zM296 749q-93 0 -134 -17l6 47q22 12 46 12q-36 26 -36 62q0 40 29.5 62.5t72.5 22.5q58 0 86 -26l-16 -46q-29 22 -72 22q-23 0 -37 -11t-14 -25q0 -24 24.5 -38t63.5 -14h66l-20 -51h-65z" />
    <glyph glyph-name="uni0676" unicode="&#x676;" horiz-adv-x="577" 
d="M486 565h66l-20 -51h-65q-93 0 -134 -17l6 47q22 12 46 12q-36 26 -36 62q0 40 29.5 62.5t72.5 22.5q58 0 86 -26l-16 -46q-29 22 -72 22q-23 0 -37 -11t-14 -25q0 -24 24.5 -38t63.5 -14zM14 -172l12 59q50 -27 125 -27q85 0 148.5 57t85.5 146q-28 -5 -60 -5
q-81 0 -136.5 44.5t-55.5 126.5q0 72 47 122t110 50q54 0 93 -39t55.5 -92.5t16.5 -113.5q0 -80 -21 -142q-37 -120 -111.5 -178t-162.5 -58q-96 0 -146 50zM195 242q0 -52 42 -75t99 -23q37 0 58 6q-1 85 -37 131t-80 46q-39 0 -60.5 -27t-21.5 -58z" />
    <glyph glyph-name="uni0677" unicode="&#x677;" horiz-adv-x="577" 
d="M70 468v39q22 -6 53 -6q28 0 57.5 11.5t41.5 31.5q-49 -3 -81 19.5t-32 66.5q0 38 26.5 64.5t65.5 26.5q32 0 60 -27.5t28 -80.5q0 -73 -48 -116t-107 -43q-45 0 -64 14zM486 565h66l-20 -51h-65q-93 0 -134 -17l6 47q22 12 46 12q-36 26 -36 62q0 40 29.5 62.5
t72.5 22.5q58 0 86 -26l-16 -46q-29 22 -72 22q-23 0 -37 -11t-14 -25q0 -24 24.5 -38t63.5 -14zM150 636q0 -23 23 -38t71 -12q5 38 -9 63t-45 25q-16 0 -28 -11t-12 -27zM14 -172l12 59q50 -27 125 -27q85 0 148.5 57t85.5 146q-28 -5 -60 -5q-81 0 -136.5 44.5
t-55.5 126.5q0 72 47 122t110 50q54 0 93 -39t55.5 -92.5t16.5 -113.5q0 -80 -21 -142q-37 -120 -111.5 -178t-162.5 -58q-96 0 -146 50zM195 242q0 -52 42 -75t99 -23q37 0 58 6q-1 85 -37 131t-80 46q-39 0 -60.5 -27t-21.5 -58z" />
    <glyph glyph-name="uni0678" unicode="&#x678;" horiz-adv-x="873" 
d="M50 59q0 88 37 171l55 -7q-21 -73 -21 -130q0 -46 13 -82t34 -58.5t50 -37t58.5 -20.5t61.5 -6q140 0 213 75q34 38 34 63q0 15 -19.5 29.5t-81.5 33.5l-50 16q-62 19 -84.5 45t-22.5 72q0 88 71 162q74 74 159 74q92 0 115 -93l-48 -55q-12 32 -35 50.5t-51 18.5
q-60 0 -102.5 -45.5t-42.5 -89.5q0 -18 14 -30.5t57 -25.5l72 -23q60 -19 89 -43.5t29 -69.5q0 -73 -57 -137q-101 -111 -274 -111q-128 0 -200.5 68t-72.5 186zM780 558q-94 0 -134 -17l6 47q22 12 46 12q-36 26 -36 62q0 40 29.5 62.5t72.5 22.5q58 0 86 -26l-16 -46
q-29 22 -72 22q-23 0 -37 -11t-14 -25q0 -24 24.5 -38t63.5 -14h66l-20 -51h-65z" />
    <glyph glyph-name="uni0679" unicode="&#x679;" horiz-adv-x="884" 
d="M49 245q0 71 22 124l54 -11q-11 -44 -11 -84q0 -206 291 -206q225 0 352 51q1 8 1 20q-3 107 -71 231l72 20q68 -124 68 -259q0 -36 -10 -74q-179 -78 -417 -78q-351 0 -351 266zM394 413h-69l-28 54l58 -4q13 26 10 79l-12 164l45 4l7 -115q2 -39 -1 -57q42 63 100 63
q31 0 49.5 -21t18.5 -51q0 -60 -51 -88t-127 -28zM397 464q131 0 131 57q0 13 -9 21.5t-25 8.5q-48 0 -97 -87z" />
    <glyph glyph-name="uni067E" unicode="&#x67e;" horiz-adv-x="884" 
d="M49 245q0 71 22 124l54 -11q-11 -44 -11 -84q0 -206 291 -206q225 0 352 51q1 8 1 20q-3 107 -71 231l72 20q68 -124 68 -259q0 -36 -10 -74q-179 -78 -417 -78q-351 0 -351 266zM457 -265q21 0 35 -14.5t14 -38.5q0 -23 -14.5 -38t-35.5 -15q-22 0 -36.5 15t-14.5 38
q0 24 14.5 38.5t37.5 14.5zM390 -144q22 0 36.5 -15t14.5 -39q0 -22 -14.5 -37t-36.5 -15q-21 0 -35 15t-14 37q0 24 14 39t35 15zM524 -144q22 0 35 -14.5t13 -39.5q0 -22 -13.5 -37t-35.5 -15t-36 15t-14 37q0 25 14 39.5t37 14.5z" />
    <glyph glyph-name="uni0686" unicode="&#x686;" horiz-adv-x="649" 
d="M51 -76q0 70 34.5 129t90 97t115.5 61.5t121 33.5q-8 3 -38 14.5t-54.5 20t-61 16t-67.5 7.5q-81 0 -135 -26l17 86q49 22 125 22q27 0 54.5 -4t59.5 -14t50 -16.5t56 -21t47 -18.5q66 -27 98 -27l51 -1l-21 -88q-22 3 -73 3q-46 0 -119 -15q-115 -28 -190.5 -92.5
t-75.5 -158.5q0 -76 48 -130t125 -79t174 -25q55 0 131 14l-33 -78q-55 -17 -131 -17q-174 0 -286 81t-112 226zM405 -79q19 0 31.5 -13.5t12.5 -34.5q0 -22 -13 -35t-33 -13t-33 13t-13 35t13.5 35t34.5 13zM389 -14q0 -20 -13.5 -33.5t-33.5 -13.5q-19 0 -32 13.5
t-13 33.5q0 22 12.5 35.5t32.5 13.5q19 0 33 -13.5t14 -35.5zM420 -14q0 22 13 35.5t34 13.5q20 0 32 -13t12 -36q0 -21 -12.5 -34t-33.5 -13q-19 0 -32 13.5t-13 33.5z" />
    <glyph glyph-name="uni0688" unicode="&#x688;" horiz-adv-x="479" 
d="M56 21l-14 90q53 -20 156 -20q109 0 159 37q1 64 -53 146t-170 149l63 54q100 -56 164.5 -150t64.5 -195q0 -42 -6 -58q-72 -74 -232 -74q-84 0 -132 21zM158 597h-69l-28 54l58 -4q13 26 10 79l-12 164l45 4l7 -115q2 -39 -1 -57q42 63 100 63q31 0 49.5 -21t18.5 -51
q0 -60 -51 -88t-127 -28zM161 648q131 0 131 57q0 13 -9 21.5t-25 8.5q-48 0 -97 -87z" />
    <glyph glyph-name="uni0691" unicode="&#x691;" horiz-adv-x="459" 
d="M34 -109q50 -28 115 -28q25 0 51 8.5t58 35t54 68.5q24 46 24 81q0 106 -94 295l74 32q34 -67 60.5 -156.5t26.5 -157.5q0 -58 -22 -112q-33 -84 -95 -131t-130 -47q-44 0 -80.5 14.5t-54.5 35.5zM208 490h-69l-28 54l58 -4q13 26 10 79l-12 164l45 4l7 -115
q2 -39 -1 -57q42 63 100 63q31 0 49.5 -21t18.5 -51q0 -60 -51 -88t-127 -28zM210 541q132 0 132 57q0 13 -9 21.5t-25 8.5q-48 0 -98 -87z" />
    <glyph glyph-name="uni0698" unicode="&#x698;" horiz-adv-x="459" 
d="M34 -109q50 -28 115 -28q25 0 51 8.5t58 35t54 68.5q24 46 24 81q0 106 -94 295l74 32q34 -67 60.5 -156.5t26.5 -157.5q0 -58 -22 -112q-33 -84 -95 -131t-130 -47q-44 0 -80.5 14.5t-54.5 35.5zM311 499q-23 0 -36.5 14.5t-13.5 39.5q0 22 14 37t36 15t35.5 -15
t13.5 -37q0 -25 -13.5 -39.5t-35.5 -14.5zM178 499q-22 0 -36 14.5t-14 39.5q0 22 14.5 37t35.5 15q22 0 36.5 -15t14.5 -37q0 -25 -14 -39.5t-37 -14.5zM245 620q-22 0 -35 14t-13 39q0 23 13 38t35 15q23 0 37 -15t14 -38q0 -25 -14 -39t-37 -14z" />
    <glyph glyph-name="uni06A1" unicode="&#x6a1;" horiz-adv-x="901" 
d="M77 388l54 -11q-16 -64 -16 -105q0 -105 76.5 -154.5t211.5 -49.5q118 0 219.5 18t149.5 39q3 14 6 34q-136 -8 -197.5 39t-61.5 117t52 126q51 54 115 54t112.5 -70.5t48.5 -203.5q0 -86 -25 -151q-54 -36 -176 -63.5t-250 -27.5q-70 0 -125.5 11t-92.5 31.5t-63 45
t-39.5 55.5t-19.5 59.5t-6 59.5q0 76 27 147zM581 325q0 -46 54.5 -70t147.5 -19q-3 78 -30.5 129t-78.5 51q-38 0 -65.5 -27.5t-27.5 -63.5z" />
    <glyph glyph-name="uni06A4" unicode="&#x6a4;" horiz-adv-x="901" 
d="M658 741q-22 0 -35.5 14t-13.5 39q0 23 13.5 38t35.5 15q23 0 36.5 -14.5t13.5 -38.5q0 -25 -13.5 -39t-36.5 -14zM591 620q-23 0 -36.5 14.5t-13.5 39.5q0 22 14.5 37t35.5 15q22 0 36 -15t14 -37q0 -24 -14 -39t-36 -15zM673 674q0 22 14 37t36 15t35.5 -15t13.5 -37
q0 -25 -13.5 -39.5t-35.5 -14.5t-36 14.5t-14 39.5zM77 388l54 -11q-16 -64 -16 -105q0 -105 76.5 -154.5t211.5 -49.5q118 0 219.5 18t149.5 39q3 14 6 34q-136 -8 -197.5 39t-61.5 117t52 126q51 54 115 54t112.5 -70.5t48.5 -203.5q0 -86 -25 -151q-54 -36 -176 -63.5
t-250 -27.5q-70 0 -125.5 11t-92.5 31.5t-63 45t-39.5 55.5t-19.5 59.5t-6 59.5q0 76 27 147zM581 325q0 -46 54.5 -70t147.5 -19q-3 78 -30.5 129t-78.5 51q-38 0 -65.5 -27.5t-27.5 -63.5z" />
    <glyph glyph-name="uni06A9" unicode="&#x6a9;" horiz-adv-x="913" 
d="M50 214q0 47 14 84l53 -10q-5 -24 -5 -55q0 -85 79 -126t207 -41q89 0 165.5 11.5t123 29t72.5 37t26 36.5q0 39 -59 98q-31 30 -76 62t-75 50t-93 54q2 61 11 80q2 8 47 35q63 36 174.5 84t208.5 81l-17 -87q-76 -24 -188 -71.5t-165 -79.5q45 -25 80 -46.5t78 -53.5
t70.5 -62t47 -67.5t19.5 -74.5q0 -48 -40 -87.5t-106 -64t-147 -38t-167 -13.5q-96 0 -165 19.5t-105 54.5t-52 74.5t-16 86.5z" />
    <glyph glyph-name="uni0643.z" unicode="&#x6aa;" horiz-adv-x="1082" 
d="M66 11l-36 102q86 -24 242 -24q87 0 187.5 4t168.5 9t177 13t157 11q4 68 -44 99.5t-135 31.5q-84 0 -211 -10q-185 -10 -235 -10q-36 0 -62 3.5t-53.5 13.5t-42.5 32.5t-15 57.5q0 80 117 174q92 74 254 150l-18 -93q-52 -20 -120 -59.5t-114 -80.5q-49 -47 -49 -76
q0 -43 107 -43q45 0 285 13q98 6 162 6q124 -1 181.5 -52t58.5 -159q0 -33 -12 -81q-13 -1 -108.5 -9t-190.5 -15.5t-219.5 -14t-212.5 -6.5q-173 0 -219 13z" />
    <glyph glyph-name="uni06AD" unicode="&#x6ad;" horiz-adv-x="794" 
d="M50 214q0 45 13 84l54 -10q-4 -36 -4 -55q0 -75 64.5 -110.5t171.5 -35.5q149 0 279 27q4 24 0 92l-20 514l75 6l21 -547q4 -97 -3 -128q-153 -51 -360 -51q-84 0 -144 19t-90.5 52t-43.5 68t-13 75zM297 279l-17 44q45 1 82 10.5t54 20.5t17 20q0 12 -59 16
q-38 2 -53 14.5t-15 35.5q0 46 41 87.5t105 50.5v-63q-49 -8 -73.5 -24t-24.5 -34q0 -11 49 -15q46 -4 61.5 -17t15.5 -37q0 -49 -48 -80.5t-101 -31.5q-25 0 -34 3zM416 682q-21 0 -34 13t-13 37q0 22 13 36t34 14q22 0 35 -13.5t13 -36.5t-13 -36.5t-35 -13.5zM290 682
q-22 0 -35 13t-13 37q0 22 13.5 36t34.5 14t35 -14t14 -36q0 -23 -14 -36.5t-35 -13.5zM354 798q-22 0 -34.5 13t-12.5 36q0 22 13 36t34 14q22 0 35.5 -14t13.5 -36q0 -23 -13.5 -36t-35.5 -13z" />
    <glyph glyph-name="uni06AF" unicode="&#x6af;" horiz-adv-x="913" 
d="M50 214q0 47 14 84l53 -10q-5 -24 -5 -55q0 -85 79 -126t207 -41q89 0 165.5 11.5t123 29t72.5 37t26 36.5q0 39 -59 98q-31 30 -76 62t-75 50t-93 54q2 61 11 80q2 8 47 35q63 36 174.5 84t208.5 81l-17 -87q-76 -24 -188 -71.5t-165 -79.5q45 -25 80 -46.5t78 -53.5
t70.5 -62t47 -67.5t19.5 -74.5q0 -48 -40 -87.5t-106 -64t-147 -38t-167 -13.5q-96 0 -165 19.5t-105 54.5t-52 74.5t-16 86.5zM531 715q159 88 376 160l-14 -67q-204 -68 -374 -158z" />
    <glyph glyph-name="uni06BA" unicode="&#x6ba;" horiz-adv-x="645" 
d="M47 84q0 87 35 159l57 -10q-20 -64 -20 -124q0 -82 52.5 -128t135.5 -46q152 0 203 104q12 20 12 43q0 104 -87 277l77 25q76 -150 76 -289q0 -53 -23 -99q-36 -74 -107 -113t-163 -39q-112 0 -180 66t-68 174z" />
    <glyph glyph-name="uni06BE" unicode="&#x6be;" horiz-adv-x="698" 
d="M258 463l41 66q5 -4 73 -51t101 -73q177 -131 177 -251q0 -71 -53.5 -117t-137.5 -46q-79 0 -152 39q-113 -59 -269 -62l-27 92q135 2 219 25q-69 67 -69 148q0 64 38 115.5t101 80.5zM228 246q0 -76 84 -129q96 55 96 163q0 48 -20.5 73.5t-44.5 25.5q-35 0 -75 -38.5
t-40 -94.5zM463 74q122 0 122 78q0 79 -117 172q6 -27 6 -57q0 -103 -88 -182q41 -11 77 -11z" />
    <glyph glyph-name="uni06C0" unicode="&#x6c0;" horiz-adv-x="445" 
d="M282 583h-65q-94 0 -134 -17l6 47q22 12 46 12q-36 26 -36 62q0 40 29.5 62.5t72.5 22.5q58 0 86 -26l-16 -46q-29 22 -72 22q-23 0 -37 -11t-14 -25q0 -24 24.5 -38t63.5 -14h66zM138 429l46 61q95 -69 160 -151q55 -75 55 -155q0 -91 -56.5 -141.5t-127.5 -50.5
q-76 0 -122.5 54t-46.5 130q0 106 112 238q-6 5 -20 15zM223 85q54 0 83 32.5t29 70.5q0 45 -30.5 89t-94.5 97q-100 -100 -100 -178q0 -50 33 -80.5t80 -30.5z" />
    <glyph glyph-name="uni06C1" unicode="&#x6c1;" horiz-adv-x="445" 
d="M138 429l46 61q95 -69 160 -151q55 -75 55 -155q0 -91 -56.5 -141.5t-127.5 -50.5q-76 0 -122.5 54t-46.5 130q0 106 112 238q-6 5 -20 15zM223 85q54 0 83 32.5t29 70.5q0 45 -30.5 89t-94.5 97q-100 -100 -100 -178q0 -50 33 -80.5t80 -30.5z" />
    <glyph glyph-name="uni06C2" unicode="&#x6c2;" horiz-adv-x="445" 
d="M282 583h-65q-94 0 -134 -17l6 47q22 12 46 12q-36 26 -36 62q0 40 29.5 62.5t72.5 22.5q58 0 86 -26l-16 -46q-29 22 -72 22q-23 0 -37 -11t-14 -25q0 -24 24.5 -38t63.5 -14h66zM138 429l46 61q95 -69 160 -151q55 -75 55 -155q0 -91 -56.5 -141.5t-127.5 -50.5
q-76 0 -122.5 54t-46.5 130q0 106 112 238q-6 5 -20 15zM223 85q54 0 83 32.5t29 70.5q0 45 -30.5 89t-94.5 97q-100 -100 -100 -178q0 -50 33 -80.5t80 -30.5z" />
    <glyph glyph-name="uni06C3" unicode="&#x6c3;" horiz-adv-x="445" 
d="M127 574q-22 0 -36.5 14.5t-14.5 38.5t14.5 38.5t36.5 14.5q23 0 37 -14.5t14 -38.5t-14 -38.5t-37 -14.5zM261 574q-22 0 -35.5 14.5t-13.5 38.5t13.5 38.5t35.5 14.5q23 0 37 -14.5t14 -38.5q0 -25 -14 -39t-37 -14zM138 429l46 61q95 -69 160 -151q55 -75 55 -155
q0 -91 -56.5 -141.5t-127.5 -50.5q-76 0 -122.5 54t-46.5 130q0 106 112 238q-6 5 -20 15zM223 85q54 0 83 32.5t29 70.5q0 45 -30.5 89t-94.5 97q-100 -100 -100 -178q0 -50 33 -80.5t80 -30.5z" />
    <glyph glyph-name="uni06C5" unicode="&#x6c5;" horiz-adv-x="505" 
d="M108 -4h254q12 26 23 67q-28 -5 -60 -5q-81 0 -136 45t-55 126q0 73 46 122.5t113 49.5q52 0 90.5 -38.5t56.5 -94.5t18 -118q0 -82 -21 -145q-37 -123 -113 -182.5t-164 -59.5q-40 0 -80.5 12.5t-65.5 37.5l14 59q50 -27 123 -27q111 0 182 101l-225 -1v51zM197 242
q0 -52 41.5 -75t98.5 -23q33 0 56 5q-2 85 -36 131.5t-77 46.5q-42 0 -62.5 -26.5t-20.5 -58.5z" />
    <glyph glyph-name="uni06C6" unicode="&#x6c6;" horiz-adv-x="502" 
d="M283 524h-52q-32 71 -104 160l44 34q47 -53 89 -126q36 63 91 129l40 -31q-72 -92 -108 -166zM14 -172l12 59q50 -27 125 -27q85 0 148.5 57t85.5 146q-28 -5 -60 -5q-81 0 -136.5 44.5t-55.5 126.5q0 72 47 122t110 50q54 0 93 -39t55.5 -92.5t16.5 -113.5
q0 -80 -21 -142q-37 -120 -111.5 -178t-162.5 -58q-96 0 -146 50zM195 242q0 -52 42 -75t99 -23q37 0 58 6q-1 85 -37 131t-80 46q-39 0 -60.5 -27t-21.5 -58z" />
    <glyph glyph-name="uni06C7" unicode="&#x6c7;" horiz-adv-x="502" 
d="M137 526v39q20 -6 53 -6q28 0 57 11.5t42 31.5q-49 -3 -81 19.5t-32 66.5q0 38 26 64.5t65 26.5q33 0 60.5 -27.5t28.5 -80.5q0 -73 -48 -116t-108 -43q-44 0 -63 14zM217 694q0 -23 23 -38t70 -12q5 37 -9 62.5t-44 25.5q-17 0 -28.5 -11t-11.5 -27zM14 -172l12 59
q50 -27 125 -27q85 0 148.5 57t85.5 146q-28 -5 -60 -5q-81 0 -136.5 44.5t-55.5 126.5q0 72 47 122t110 50q54 0 93 -39t55.5 -92.5t16.5 -113.5q0 -80 -21 -142q-37 -120 -111.5 -178t-162.5 -58q-96 0 -146 50zM195 242q0 -52 42 -75t99 -23q37 0 58 6q-1 85 -37 131
t-80 46q-39 0 -60.5 -27t-21.5 -58z" />
    <glyph glyph-name="uni06C8" unicode="&#x6c8;" horiz-adv-x="502" 
d="M289 530l-60 -4l-17 241l68 5zM14 -172l12 59q50 -27 125 -27q85 0 148.5 57t85.5 146q-28 -5 -60 -5q-81 0 -136.5 44.5t-55.5 126.5q0 72 47 122t110 50q54 0 93 -39t55.5 -92.5t16.5 -113.5q0 -80 -21 -142q-37 -120 -111.5 -178t-162.5 -58q-96 0 -146 50zM195 242
q0 -52 42 -75t99 -23q37 0 58 6q-1 85 -37 131t-80 46q-39 0 -60.5 -27t-21.5 -58z" />
    <glyph glyph-name="uni06C9" unicode="&#x6c9;" horiz-adv-x="502" 
d="M391 548l-44 -34q-45 50 -88 126q-41 -67 -92 -129l-40 31q70 89 109 166h51q32 -71 104 -160zM14 -172l12 59q50 -27 125 -27q85 0 148.5 57t85.5 146q-28 -5 -60 -5q-81 0 -136.5 44.5t-55.5 126.5q0 72 47 122t110 50q54 0 93 -39t55.5 -92.5t16.5 -113.5
q0 -80 -21 -142q-37 -120 -111.5 -178t-162.5 -58q-96 0 -146 50zM195 242q0 -52 42 -75t99 -23q37 0 58 6q-1 85 -37 131t-80 46q-39 0 -60.5 -27t-21.5 -58z" />
    <glyph glyph-name="uni06CB" unicode="&#x6cb;" horiz-adv-x="502" 
d="M260 650q-22 0 -35.5 14t-13.5 39q0 23 13.5 38t35.5 15q23 0 36.5 -14.5t13.5 -38.5q0 -25 -13.5 -39t-36.5 -14zM193 529q-23 0 -36.5 14.5t-13.5 39.5q0 22 14.5 37t35.5 15q22 0 36 -15t14 -37q0 -24 -14 -39t-36 -15zM275 583q0 22 14 37t36 15t35.5 -15t13.5 -37
q0 -25 -13.5 -39.5t-35.5 -14.5t-36 14.5t-14 39.5zM14 -172l12 59q50 -27 125 -27q85 0 148.5 57t85.5 146q-28 -5 -60 -5q-81 0 -136.5 44.5t-55.5 126.5q0 72 47 122t110 50q54 0 93 -39t55.5 -92.5t16.5 -113.5q0 -80 -21 -142q-37 -120 -111.5 -178t-162.5 -58
q-96 0 -146 50zM195 242q0 -52 42 -75t99 -23q37 0 58 6q-1 85 -37 131t-80 46q-39 0 -60.5 -27t-21.5 -58z" />
    <glyph glyph-name="uni06CC" unicode="&#x6cc;" horiz-adv-x="715" 
d="M50 59q0 88 37 171l55 -7q-21 -73 -21 -130q0 -46 13 -82t34 -58.5t50 -37t58.5 -20.5t61.5 -6q140 0 213 75q34 38 34 63q0 15 -19.5 29.5t-81.5 33.5l-50 16q-62 19 -84.5 45t-22.5 72q0 88 71 162q74 74 159 74q92 0 115 -93l-48 -55q-12 32 -35 50.5t-51 18.5
q-60 0 -102.5 -45.5t-42.5 -89.5q0 -18 14 -30.5t57 -25.5l72 -23q60 -19 89 -43.5t29 -69.5q0 -73 -57 -137q-101 -111 -274 -111q-128 0 -200.5 68t-72.5 186z" />
    <glyph glyph-name="uni06D0" unicode="&#x6d0;" horiz-adv-x="715" 
d="M50 59q0 88 37 171l55 -7q-21 -73 -21 -130q0 -46 13 -82t34 -58.5t50 -37t58.5 -20.5t61.5 -6q140 0 213 75q34 38 34 63q0 15 -19.5 29.5t-81.5 33.5l-50 16q-62 19 -84.5 45t-22.5 72q0 88 71 162q74 74 159 74q92 0 115 -93l-48 -55q-12 32 -35 50.5t-51 18.5
q-60 0 -102.5 -45.5t-42.5 -89.5q0 -18 14 -30.5t57 -25.5l72 -23q60 -19 89 -43.5t29 -69.5q0 -73 -57 -137q-101 -111 -274 -111q-128 0 -200.5 68t-72.5 186zM363 -416q23 0 37 -15t14 -39q0 -23 -14 -37.5t-37 -14.5q-22 0 -36.5 14t-14.5 38t14.5 39t36.5 15zM363 -280
q23 0 37 -15t14 -39t-15 -38.5t-38 -14.5q-21 0 -35 14.5t-14 38.5t14.5 39t36.5 15z" />
    <glyph glyph-name="uni06D2" unicode="&#x6d2;" horiz-adv-x="1099" 
d="M52 142q0 100 102 166q13 9 53.5 34t60.5 41q49 36 98 105q27 39 45.5 52t42.5 13q42 0 73 -49t42 -118l-59 -41q-27 115 -65 115q-14 0 -30 -22l-15 -22.5t-20.5 -29t-21.5 -25.5q-43 -50 -147 -104q-96 -53 -96 -102q0 -32 41.5 -47t148.5 -15q102 0 227 3.5t187 6.5
t210 11t152 8l-28 -89q-436 -32 -770 -32q-123 0 -177 36t-54 105z" />
    <glyph glyph-name="uni06D3" unicode="&#x6d3;" horiz-adv-x="1099" 
d="M52 142q0 100 102 166q13 9 53.5 34t60.5 41q49 36 98 105q27 39 45.5 52t42.5 13q42 0 73 -49t42 -118l-59 -41q-27 115 -65 115q-14 0 -30 -22l-15 -22.5t-20.5 -29t-21.5 -25.5q-43 -50 -147 -104q-96 -53 -96 -102q0 -32 41.5 -47t148.5 -15q102 0 227 3.5t187 6.5
t210 11t152 8l-28 -89q-436 -32 -770 -32q-123 0 -177 36t-54 105zM274 601q-94 0 -134 -17l6 47q22 12 46 12q-36 26 -36 62q0 40 29.5 62.5t72.5 22.5q58 0 86 -26l-16 -46q-29 22 -72 22q-23 0 -37 -11t-14 -25q0 -24 24.5 -38t63.5 -14h66l-20 -51h-65z" />
    <glyph glyph-name="uni06D4" unicode="&#x6d4;" horiz-adv-x="417" 
d="M33 34l11 57h123q149 0 217 18l-19 -89q-37 -20 -133 -20q-147 0 -199 34z" />
    <glyph glyph-name="uni06D5" unicode="&#x6d5;" horiz-adv-x="445" 
d="M138 429l46 61q95 -69 160 -151q55 -75 55 -155q0 -91 -56.5 -141.5t-127.5 -50.5q-76 0 -122.5 54t-46.5 130q0 106 112 238q-6 5 -20 15zM223 85q54 0 83 32.5t29 70.5q0 45 -30.5 89t-94.5 97q-100 -100 -100 -178q0 -50 33 -80.5t80 -30.5z" />
    <glyph glyph-name="uni06F0" unicode="&#x6f0;" horiz-adv-x="262" 
d="M131 223q-37 0 -60 23t-23 62t23 63t61 24q36 0 59 -24t23 -63q0 -38 -23 -61.5t-59 -23.5h-1z" />
    <glyph glyph-name="uni06F1" unicode="&#x6f1;" horiz-adv-x="285" 
d="M176 0q-16 379 -146 651l85 9q59 -124 97 -305t43 -355h-79z" />
    <glyph glyph-name="uni06F2" unicode="&#x6f2;" horiz-adv-x="485" 
d="M175 0q-13 373 -145 651l84 7q4 -8 13 -31.5t17 -41t13 -24.5q35 -54 113 -54q49 0 81 33.5t34 110.5l65 5q1 -6 1 -26q0 -92 -49.5 -147.5t-124.5 -55.5q-58 0 -94 28q25 -84 46.5 -210t24.5 -245h-79z" />
    <glyph glyph-name="uni06F3" unicode="&#x6f3;" horiz-adv-x="533" 
d="M176 0q-13 374 -146 651l84 9q16 -30 39 -96q23 -53 68 -53q63 0 63 77q0 29 -6 63l58 4q6 -65 21.5 -89.5t39.5 -24.5q22 0 32.5 17t10.5 61q0 15 -3 32l57 5q5 -32 5 -61q0 -66 -26.5 -100.5t-64.5 -34.5q-45 0 -73 43q-11 -38 -36 -57.5t-55 -19.5q-38 0 -59 26
q59 -193 69 -452h-78z" />
    <glyph glyph-name="uni06F4" unicode="&#x6f4;" horiz-adv-x="534" 
d="M192 0q-6 140 -46.5 318.5t-115.5 332.5l86 5q21 -36 43 -112q17 48 60 83t98 35q89 0 130 -59l-29 -66q-22 22 -52 34.5t-52 12.5q-60 0 -92.5 -37t-32.5 -66q0 -28 35.5 -56.5t89.5 -28.5q90 0 160 66l30 -63q-64 -83 -183 -83q-66 0 -108 38q22 -75 39.5 -185
t18.5 -169h-79z" />
    <glyph glyph-name="uni06F5" unicode="&#x6f5;" horiz-adv-x="532" 
d="M183 0q-64 0 -95.5 59.5t-31.5 146.5q0 171 176 445l59 6q87 -127 136 -233.5t49 -212.5q0 -91 -34.5 -151t-90.5 -60q-59 0 -84 70q-30 -70 -84 -70zM187 97q24 0 38.5 24.5t17.5 98.5h57q0 -123 56 -123q24 0 37.5 29t13.5 82q0 169 -149 354q-54 -83 -92.5 -181.5
t-38.5 -168.5q0 -115 60 -115z" />
    <glyph glyph-name="uni06F6" unicode="&#x6f6;" horiz-adv-x="509" 
d="M35 0q28 78 78.5 166t99.5 135q-125 46 -126 164q-2 67 41 123q26 34 67 54t83 20q86 0 126 -46l-19 -74q-43 41 -111 41q-60 0 -89.5 -32.5t-29.5 -70.5q0 -50 38 -78t79 -28q9 0 22.5 4.5t33 13.5t37.5 18t46.5 23t49.5 24l24 -80q-18 -8 -48 -21.5t-41.5 -18.5
t-31 -14t-28 -14t-21 -12t-20.5 -13.5t-17 -14.5q-38 -35 -82.5 -109t-76.5 -160h-84z" />
    <glyph glyph-name="uni06F7" unicode="&#x6f7;" horiz-adv-x="536" 
d="M237 0q-80 399 -215 651l94 5q50 -105 100.5 -272t66.5 -281h3q15 100 57 267t86 286l85 -5q-44 -102 -100 -299.5t-86 -351.5h-91z" />
    <glyph glyph-name="uni06F8" unicode="&#x6f8;" horiz-adv-x="536" 
d="M22 0q45 105 102.5 303t85.5 347l92 6q97 -434 212 -656h-93q-48 101 -98 265t-67 271h-3q-15 -97 -57.5 -255.5t-87.5 -280.5h-86z" />
    <glyph glyph-name="uni06F9" unicode="&#x6f9;" horiz-adv-x="476" 
d="M364 0q-25 98 -50 309q-32 -7 -79 -7q-82 0 -137.5 46t-55.5 128q0 77 51.5 131.5t118.5 54.5q136 0 165 -237q2 -19 9 -85t9 -82t8.5 -63t11 -69.5t12 -57.5t17.5 -68h-80zM253 384q39 0 54 5q-8 109 -35.5 150t-71.5 41q-37 0 -63.5 -29t-26.5 -66q0 -52 38.5 -76.5
t104.5 -24.5z" />
    <glyph glyph-name="uni1E0C" unicode="&#x1e0c;" horiz-adv-x="666" 
d="M75 2v663q95 14 186 14q183 0 273 -84q95 -87 95 -242q0 -165 -97 -262t-298 -97q-87 0 -159 8zM163 69q27 -5 88 -5q139 0 213 74.5t74 211.5q1 122 -68.5 191t-204.5 69q-50 0 -102 -9v-532zM314 -80q21 0 35 -15t14 -37q0 -21 -14 -36t-37 -15q-21 0 -35 15t-14 36
q0 22 15 37t36 15z" />
    <glyph glyph-name="uni1E0D" unicode="&#x1e0d;" horiz-adv-x="564" 
d="M38 235q-1 117 62 188.5t155 71.5q52 0 90 -21t56 -53h2v289h87v-586q0 -58 4 -124h-78l-4 83h-3q-20 -42 -63 -68t-100 -26q-90 0 -149 68.5t-59 177.5zM127 239q0 -78 37.5 -129t105.5 -51q45 0 80.5 28.5t48.5 77.5q4 16 4 38v84q0 21 -4 38q-10 43 -44.5 71.5
t-82.5 28.5q-67 0 -106 -52.5t-39 -133.5zM270 -80q21 0 35 -15t14 -37q0 -21 -14 -36t-37 -15q-21 0 -35 15t-14 36q0 22 15 37t36 15z" />
    <glyph glyph-name="uni1E0E" unicode="&#x1e0e;" horiz-adv-x="666" 
d="M75 2v663q95 14 186 14q183 0 273 -84q95 -87 95 -242q0 -165 -97 -262t-298 -97q-87 0 -159 8zM163 69q27 -5 88 -5q139 0 213 74.5t74 211.5q1 122 -68.5 191t-204.5 69q-50 0 -102 -9v-532zM197 -103h234v-60h-234v60z" />
    <glyph glyph-name="uni1E0F" unicode="&#x1e0f;" horiz-adv-x="564" 
d="M38 235q-1 117 62 188.5t155 71.5q52 0 90 -21t56 -53h2v289h87v-586q0 -58 4 -124h-78l-4 83h-3q-20 -42 -63 -68t-100 -26q-90 0 -149 68.5t-59 177.5zM127 239q0 -78 37.5 -129t105.5 -51q45 0 80.5 28.5t48.5 77.5q4 16 4 38v84q0 21 -4 38q-10 43 -44.5 71.5
t-82.5 28.5q-67 0 -106 -52.5t-39 -133.5zM153 -103h234v-60h-234v60z" />
    <glyph glyph-name="uni1E10" unicode="&#x1e10;" horiz-adv-x="666" 
d="M75 2v663q95 14 186 14q183 0 273 -84q95 -87 95 -242q0 -165 -97 -262q-73 -73 -207 -91l-30 -50q30 -6 50.5 -26t20.5 -49q0 -41 -30 -61t-73 -20q-42 0 -71 17l14 45q24 -13 55 -13q43 0 43 30q0 35 -78 43l42 79q-11 -1 -34 -1q-87 0 -159 8zM163 601v-532
q27 -5 88 -5q139 0 213 74.5t74 211.5q1 122 -68.5 191t-204.5 69q-50 0 -102 -9z" />
    <glyph glyph-name="uni1E11" unicode="&#x1e11;" horiz-adv-x="564" 
d="M490 710v-586q0 -58 4 -124h-78l-4 83h-3q-33 -70 -114 -88l-27 -45q29 -6 49.5 -25t20.5 -48q0 -43 -29.5 -63t-74.5 -20q-41 0 -69 17l14 45q22 -13 55 -13q43 0 43 31q-1 34 -78 42l39 73q-87 3 -143.5 71t-56.5 175q-1 117 62 188.5t155 71.5q52 0 90 -21t56 -53h2
v289h87zM403 203v84q0 21 -4 38q-10 43 -44.5 71.5t-82.5 28.5q-67 0 -106 -52.5t-39 -133.5q0 -78 37.5 -129t105.5 -51q45 0 80.5 28.5t48.5 77.5q4 16 4 38z" />
    <glyph glyph-name="uni1E20" unicode="&#x1e20;" horiz-adv-x="646" 
d="M130 82q-94 91 -94 251q0 153 99 250.5t266 97.5q99 0 168 -31l-21 -71q-65 29 -149 29q-124 0 -197.5 -72.5t-73.5 -198.5q0 -127 70.5 -199.5t189.5 -72.5q79 0 115 18v201h-136v70h222v-324q-96 -37 -207 -37q-159 0 -252 89zM259 738v61h250v-61h-250z" />
    <glyph glyph-name="uni1E21" unicode="&#x1e21;" horiz-adv-x="559" 
d="M101 -102q64 -39 143 -39q72 0 114 41.5t42 128.5v54h-2q-21 -36 -61 -58.5t-93 -22.5q-90 0 -148 67.5t-58 168.5q0 117 65 187t153 70q107 0 151 -84h2l4 73h77q-4 -70 -4 -133v-281q0 -159 -69 -221q-62 -58 -176 -58q-100 0 -162 39zM127 243q0 -75 37.5 -125
t105.5 -50q41 0 74.5 24.5t47.5 66.5q7 21 7 47v87q0 20 -5 40q-13 41 -45 67t-79 26q-63 0 -103 -50t-40 -133zM154 587v61h245v-61h-245z" />
    <glyph glyph-name="uni1E24" unicode="&#x1e24;" horiz-adv-x="652" 
d="M75 0v674h88v-283h326v283h87v-674h-87v316h-326v-316h-88zM326 -80q21 0 35 -15t14 -37q0 -21 -14 -36t-36 -15q-21 0 -35.5 15t-14.5 36q0 22 15 37t36 15z" />
    <glyph glyph-name="uni1E25" unicode="&#x1e25;" horiz-adv-x="555" 
d="M73 0v710h87v-302h2q24 40 64 62q43 25 89 25q28 0 55 -9.5t54 -31t43.5 -64.5t16.5 -103v-287h-87v278q0 65 -26.5 104.5t-85.5 39.5q-42 0 -73.5 -25.5t-44.5 -62.5q-7 -18 -7 -42v-292h-87zM282 -80q21 0 35 -15t14 -37q0 -21 -14 -36t-37 -15q-21 0 -35 15t-14 36
q0 22 15 37t36 15z" />
    <glyph glyph-name="uni1E28" unicode="&#x1e28;" horiz-adv-x="652" 
d="M489 674h87v-674h-87v316h-326v-316h-13l-30 -50q30 -6 50.5 -26t20.5 -49q0 -41 -30.5 -61t-73.5 -20q-41 0 -70 17l14 45q24 -13 55 -13q42 0 42 30q0 35 -77 43l45 84h-21v674h88v-283h326v283z" />
    </font>
</defs>
</svg>
